<svg id="Слой_1" data-name="Слой 1" xmlns="http://www.w3.org/2000/svg" viewBox="0 0 1000 1000"><path d="M742.87,537.3c0,124.55-.72,249.11.55,373.65.29,29.34-7.82,40.06-38.73,39.72q-204.73-2.22-409.52-.09c-28.5.25-38.37-8.59-38.28-37.38.81-246.11,0-492.23.73-738.35.24-86.1,41.76-126,127.28-126.11,79.72-.11,159.43-.27,239.14.06,77.93.32,118.53,40.47,118.74,117.83C743.12,290.18,742.87,413.74,742.87,537.3Zm-66.61,51.81c0-56-2-57.93-59.5-58-11.94,0-23.9-.47-35.83-.06-16.4.57-23.76-7.58-24-23.3-.3-21.89-.43-43.78-.77-65.67-.25-16-7.78-25.94-23.81-29.69-66.76-15.6-88.66,1-88.73,67.77v3c-.09,47.9-.09,47.9-47.13,48-72.11.1-75.65,3.82-72.49,76,0,1,.07,2,.08,3,.18,24.26,12.06,36,36.65,37.25,25.54,1.26,57.18-11,75.09,6.21,19.34,18.53,5.57,51.18,7.75,77.55,1.59,19.3,9,35.31,29.17,34.56,27.19-1,58.57,14.07,80.24-15.18,3.16-4.26,2.85-11.43,3.26-17.31.55-7.93.3-15.92.29-23.88-.13-72.91-1.65-61.32,63.27-62C673.88,646.72,676.26,644.64,676.26,589.11ZM497.92,228.26h98.37c51.19,0,50.07,0,50.47-50.54.21-27.13-9.68-36.61-36.9-36.08q-108.75,2.13-217.59.07c-28.28-.5-41,9.83-38.45,38.23a163.39,163.39,0,0,1,.07,23.83c-1,17.79,7,24.93,24.79,24.63C418.42,227.73,458.17,228.19,497.92,228.26Z"/><path d="M796,589.17q0-152.55,0-305.09c0-56.59,0-56.23,57.76-55.9,50.14.28,88.41,20.75,113.61,64.4,11.26,19.51,15,40.87,15,63.25-.13,155.53.2,311.07-.18,466.6C981.92,913.49,911.1,963.11,812,949c-18.14-2.58-15.68-18.47-15.75-30.86-.38-70.79-.22-141.57-.24-212.36Q795.95,647.48,796,589.17Z"/><path d="M204.25,591c0,107.63-.57,215.26.39,322.88.24,26.3-7.17,36.81-35.5,36.79-102-.09-150.65-46.48-151-149.57q-.81-212.26,0-424.54c.41-102.6,49.52-149.24,151.71-148.78,25.83.11,35.3,8.13,34.85,34.36-1.25,72.73-.41,145.49-.4,218.24Q204.26,535.67,204.25,591Z"/></svg>