<svg id="Слой_1" data-name="Слой 1" xmlns="http://www.w3.org/2000/svg" viewBox="0 0 1000 1000"><path d="M294.4,10.66c24.48,2.5,45,11.44,62.16,28.58C489.22,172,622.35,304.37,754.5,437.67c38.78,39.11,38,86.75-1.45,126.48Q557.56,761.09,360.68,956.62c-41.41,41.19-88.45,43.26-122.26,7.53C207,931,209.89,881.56,247.51,843.87c103.8-104,207.53-208,313-310.18,25.54-24.73,30.12-38.61,1.56-66-107-102.56-211.66-207.66-316-312.95C195.44,103.67,213.6,29.94,279,13.67,284.24,12.36,289.62,11.58,294.4,10.66Z"/></svg>