<svg id="Слой_1" data-name="Слой 1" xmlns="http://www.w3.org/2000/svg" viewBox="0 0 1000 1000"><path d="M705.6,989.34c-24.48-2.5-45-11.44-62.16-28.58C510.78,828,377.65,695.63,245.5,562.33c-38.78-39.11-38-86.75,1.45-126.48Q442.44,238.92,639.32,43.38C680.73,2.19,727.77.12,761.58,35.85,793,69,790.11,118.44,752.49,156.13c-103.8,104-207.53,208-313,310.18-25.54,24.73-30.12,38.61-1.56,66,107,102.56,211.66,207.66,316,313,50.65,51.09,32.49,124.82-32.9,141.09C715.76,987.64,710.38,988.42,705.6,989.34Z"/></svg>