<svg id="Слой_1" data-name="Слой 1" xmlns="http://www.w3.org/2000/svg" viewBox="0 0 1000 1000"><path d="M323.44,254.29c30.78,0,61.62-1.15,92.33.4,20.78,1.05,26.15-7,25.73-26.55-1.09-50.25-.66-100.55-.24-150.82C441.62,35,463.86,8.87,499.2,8c36.32-.88,59.48,25.77,59.88,70.14.45,49.25,1.26,98.54-.35,147.74-.77,23.47,7.28,29.48,29.91,28.92,60.5-1.5,121.08-1.41,181.59-.23,63.38,1.24,104.44,48,95.11,105.9-6.32,39.24-30.75,64.17-72.46,73.95-31.7,7.43-68.67-6.71-87.62-37.23-9.89-15.95-20.34-21.93-39.09-21.78-110.81.88-221.63.71-332.44.15-16.89-.08-27.45,3.93-37.12,19.63-22.38,36.32-62.26,48.94-101.44,35.92-37.45-12.45-62.6-47.7-61.81-86.64.83-40.82,26.83-73.65,67.54-85.18,5.91-1.67,11.91-4.2,17.9-4.27,34.87-.4,69.76-.2,104.64-.2Z"/><path d="M379.55,634c0-57.38.49-114.77-.28-172.13-.23-16.9,4.6-23.37,22.48-23.12q98.34,1.35,196.71,0C616.74,438.51,621,446,621,462.33c-.43,115.78-.21,231.56-.43,347.34,0,18.76-4.58,36.71-14.65,52.68-22.4,35.53-44.4,71.35-68.13,106C516,1000,484.07,999.87,463,968.14c-23.8-35.82-46-72.69-68.55-109.35-11.59-18.87-15.14-39.84-15-61.86C379.78,742.63,379.55,688.32,379.55,634Z"/></svg>