<svg id="Слой_1" data-name="Слой 1" xmlns="http://www.w3.org/2000/svg" viewBox="0 0 1000 1000"><path d="M500.26,940.1c-52.31,0-104.62.31-156.93-.08-38.72-.29-61.85-21.61-61.24-55.28.59-32.52,23.23-52.52,60.54-53.28,11.93-.25,23.87-.38,35.79,0,28.8.93,49.78-11.89,62.05-37.26s8-50.13-8.5-72.6c-15.47-21-37.84-30.89-62.13-37.94C257.49,651,161.8,593.44,91.43,497.77,30.12,414.42,8.83,319,6.75,217.89c-.65-31.76,15.1-47,47.64-47.43,49.55-.71,99.14-1,148.67.21,19.5.48,27-3.34,26.63-25.27-.81-52.71,30.45-84.6,83.35-85q187.21-1.42,374.44,0c53,.42,84.25,32.45,83.26,85.11-.42,22.07,7.34,25.64,26.69,25.13,46.77-1.23,93.6-.55,140.4-.35,43.51.17,57,14.69,55.3,58.85C984.36,457.43,860.9,615.09,638.45,681.34c-28.55,8.5-56.27,17.09-73.13,44.49-14.06,22.87-17.08,46.63-4.44,70.59s33.12,35.89,60.7,35.06c13.76-.42,27.56-.58,41.29.07,34.75,1.66,55.66,23.12,54.93,55.68-.7,31.19-21.32,52-55.1,52.61C608.57,940.75,554.41,940.08,500.26,940.1ZM406.38,443.5c-.57,27,10.56,35.64,27.62,23.34,44.6-32.15,86.82-35.92,130.72-.17,6,4.87,14.56,8.48,22.91,2.27,9.1-6.77,8.71-16.68,5.45-25-19.51-49.76-6-88.26,38-117.17a12.69,12.69,0,0,0,2-1.92c5.77-6,12.49-12,9.2-21.32-3.54-10-12.63-13.43-22.15-13-52.24,2.44-86.19-20.42-100.55-71.23a19.57,19.57,0,0,0-2.4-4.93c-11.62-18.38-26.91-19.32-33.65,1.42C466.14,269.12,432.14,293,376.28,291.6c-19.83-.49-26.52,17.71-11.37,29.69C408.44,355.74,433.56,394.15,406.38,443.5ZM676.69,579.82C798.45,543.3,915.54,384.13,913,265.57c-.29-14-7.57-14.17-17.34-14.15-37.6.08-75.22.62-112.81-.27-14.45-.35-18.77,5.63-20.22,18.81C751,376.28,727.5,479.49,676.69,579.82Zm-358.47-3c-46-98.9-69.17-202.25-80.78-308.57-1.66-15.11-9.37-17.13-21.93-17-34.83.5-69.72,1.17-104.51-.22-19.76-.78-25,5.26-22.59,25,9.49,75.83,36.72,143.76,87.64,201.07C215.2,521.12,261.55,555.73,318.22,576.79Z"/></svg>