<svg id="Слой_1" data-name="Слой 1" xmlns="http://www.w3.org/2000/svg" viewBox="0 0 1000 1000"><path d="M377.39,378.44c0,38.89-.64,77.81.28,116.68.42,17.39-4.63,27.66-21.66,35.12C275.08,565.7,225.76,630,195.9,711c-5,13.5-8.5,29-24.75,32.52-18.4,4-27.59-10.78-36.47-22.94C-24.75,502.21-24,256.46,130.47,38.64c9.44-13.31,18.28-32.24,40.23-27,21.07,5,21.23,24.33,26.09,41.05C220.74,135,270,196.2,351.29,227.36c21.08,8.08,27.39,19.27,26.52,40.55C376.31,304.7,377.39,341.59,377.39,378.44Z"/><path d="M984.6,294.81c3,15.9-7.28,21.68-19.4,26.82-28.23,12-56.3,24.37-84.37,36.72-8.54,3.75-17.75,8-17.53,18.95s9.46,14.9,18,18.64c28.09,12.31,55.94,25.26,84.45,36.51,16,6.3,21.69,14.86,18.52,32.49-17.38,96.54-54.54,184.27-115.49,261.28-22.22,28.07-44.07,24.3-55.74-9.07-30.14-86.21-82.7-152.24-167.79-189.47-11.66-5.1-17.2-11.86-17.12-25.36q.78-122.85,0-245.72c-.09-13.3,4.23-20.51,16.65-25C736.4,198.69,789.24,132.07,812.29,39,819.85,8.49,843-.42,860.87,21.14,927,100.83,967.06,192.92,984.6,294.81Z"/><path d="M561.72,534.05c0,129.89.43,259.79-.23,389.67-.26,52.25-43.61,81.64-86,59.63-24.92-12.94-31.68-35.44-31.6-61.78.28-86.93.09-173.87.1-260.8,0-173.88-.28-347.75.18-521.62C444.32,84,491.36,54,534.55,80.2c24.43,14.85,27.34,38.63,27.29,64.17Q561.53,339.21,561.72,534.05Z"/></svg>