<svg id="Слой_1" data-name="Слой 1" xmlns="http://www.w3.org/2000/svg" viewBox="0 0 1000 1000"><path d="M368.45,205.26c.21-72.55,61.85-134,133.06-132.61C572.08,74,631.84,135.3,631.57,206c-.27,70.9-60.22,131.66-130.86,132.61C429.48,339.61,368.23,277.84,368.45,205.26Z"/><path d="M368.45,793.88c.26-72.55,61.95-134,133.13-132.54,70.6,1.43,130.32,62.74,130,133.47-.33,70.92-60.33,131.66-130.93,132.53C429.38,928.23,368.19,866.45,368.45,793.88Z"/><path d="M20.62,795.44c-.56-72.5,60.11-134.36,131.55-134.12,70,.24,130.75,61.24,131.49,131.95.74,71.45-61.12,134.3-132,134.1C81.13,927.17,21.18,866.81,20.62,795.44Z"/><path d="M716.35,794.71c-.2-72.42,61.15-134.29,132.26-133.39,70.24.89,130.52,62,130.77,132.67.26,71.56-62.09,134.21-132.7,133.37C775.84,926.52,716.54,866.17,716.35,794.71Z"/><path d="M311.91,617.66A130.51,130.51,0,0,1,181.16,487.42c-.43-73.44,58-131.9,131.85-131.84,71.76.05,130.66,58.52,131.22,130.26C444.79,558.29,385.08,617.79,311.91,617.66Z"/><path d="M687.11,617.66c-73.57,0-132-58.89-131.32-132.34.67-72.35,58.67-129.68,131.27-129.74,72.88-.07,132.69,60,131.78,132.35C817.94,559.76,759.14,617.67,687.11,617.66Z"/></svg>