<svg id="Слой_1" data-name="Слой 1" xmlns="http://www.w3.org/2000/svg" viewBox="0 0 1000 1000"><path d="M957.72,59c-2.5,13.55-5.18,29.61-8.53,45.52-1.72,8.17-7.08,14.49-13,20.32q-54.56,54.13-108.93,108.46c-4.33,4.34-6.78,4.94-11.33.21Q793.42,210,770,187.42c-4.28-4.16-4.15-6.56,0-10.71Q825.39,121.5,880.35,65.84c10.06-10.22,22.68-13,35.83-15.19q14.67-2.46,29.35-5C953.86,44.28,958.25,48.11,957.72,59Z"/><path d="M688.55,262.43a40.83,40.83,0,0,0,4.14,1.29c7,1.22,14.34,8.26,20.38,4.32,9.15-6,16.53-14.78,24.21-22.81,3.22-3.36,0-6.73-2-9.69-8.27-12.57-16.67-25.06-24.9-37.66-5.5-8.44,2.79-25.24,12.78-26,3.31-.24,5.53,2,7.67,4.17q48.23,48.21,96.46,96.41c5,5,5.3,9.78.08,14.73a41.8,41.8,0,0,0-4.44,4.49c-5,6.45-10.17,6.86-16.92,2-11.95-8.63-24.56-16.33-36.57-24.87-6-4.24-10.76-4.75-15.44,1.41a22.82,22.82,0,0,1-4.41,4.53c-13,9.65-18.54,20.8-10,36.75,3.36,6.23-3,15.35-12,20.71-6.83,4-9.89-1.76-13.5-5.3-12.27-12-24.34-24.2-36.46-36.35-9.95-10-9.95-11.52.4-21.69C681.19,265.82,683.83,261.67,688.55,262.43Z"/><path d="M361.42,317.64c.18-61.26,52.23-113.13,112.35-112,59.59,1.15,110.05,52.9,109.82,112.63s-50.85,111.17-110.49,112C413,431.07,361.23,378.92,361.42,317.64Z"/><path d="M361.42,814.65c.22-61.26,52.31-113.12,112.41-111.91,59.62,1.2,110,53,109.76,112.7-.27,59.88-50.94,111.17-110.55,111.91C412.87,928.09,361.2,875.93,361.42,814.65Z"/><path d="M67.72,816c-.48-61.22,50.75-113.45,111.07-113.25,59.08.2,110.41,51.71,111,111.42.63,60.33-51.61,113.4-111.44,113.23C118.81,927.2,68.19,876.23,67.72,816Z"/><path d="M655.18,815.36C655,754.21,706.81,702,766.86,702.72c59.3.75,110.21,52.4,110.42,112,.21,60.42-52.43,113.32-112.06,112.62C705.41,926.65,655.34,875.69,655.18,815.36Z"/><path d="M313.68,665.86a110.22,110.22,0,0,1-110.41-110c-.35-62,49-111.37,111.34-111.32,60.59,0,110.33,49.42,110.8,110C425.88,615.73,375.46,666,313.68,665.86Z"/><path d="M630.49,665.86c-62.12,0-111.47-49.73-110.89-111.75.57-61.09,49.55-109.5,110.85-109.55,61.54-.05,112,50.67,111.27,111.76C741,617,691.31,665.87,630.49,665.86Z"/></svg>