<svg id="Слой_1" data-name="Слой 1" xmlns="http://www.w3.org/2000/svg" viewBox="0 0 1000 1000"><path d="M830.89,46.91c15.9,0,31.8-.11,47.69,0,16.57.15,23.35,10,17.6,25.7-7.72,21.14-15.74,42.17-23.6,63.26-3.86,10.36-3.84,10.39,7.63,10.4,23.84,0,47.69.16,71.53-.07,10.49-.1,19,3.15,23.92,12.74,4.74,9.29,2,17.75-3.65,26Q913.95,269.2,856.19,353.63c-5.09,7.45-11.31,12.11-20.71,10.45-11.4-2-16.56-10.67-13.52-23.06,8.52-34.72,17.3-69.38,25.77-104.11,2.91-11.93,5.16-11.59-9.11-11.61-24.5,0-49,0-73.51,0-18.28-.05-25.25-8.08-23-26.11q8.25-65,16.44-130.06c2-16.25,8.42-22.1,24.62-22.18C799.1,46.85,815,46.91,830.89,46.91Z"/><path d="M361.42,317.64c.18-61.26,52.23-113.13,112.35-112,59.59,1.15,110.05,52.9,109.82,112.63s-50.85,111.17-110.49,112C413,431.07,361.23,378.92,361.42,317.64Z"/><path d="M361.42,814.65c.22-61.26,52.31-113.12,112.41-111.91,59.62,1.2,110,53,109.76,112.7-.27,59.88-50.94,111.17-110.55,111.91C412.87,928.09,361.2,875.93,361.42,814.65Z"/><path d="M67.72,816c-.48-61.22,50.75-113.45,111.07-113.25,59.08.2,110.41,51.71,111,111.42.63,60.33-51.61,113.4-111.44,113.23C118.81,927.2,68.19,876.23,67.72,816Z"/><path d="M655.18,815.36C655,754.21,706.81,702,766.86,702.72c59.3.75,110.21,52.4,110.42,112,.21,60.42-52.43,113.32-112.06,112.62C705.41,926.65,655.34,875.69,655.18,815.36Z"/><path d="M313.68,665.86a110.22,110.22,0,0,1-110.41-110c-.35-62,49-111.37,111.34-111.32,60.59,0,110.33,49.42,110.8,110C425.88,615.73,375.46,666,313.68,665.86Z"/><path d="M630.49,665.86c-62.12,0-111.47-49.73-110.89-111.75.57-61.09,49.55-109.5,110.85-109.55,61.54-.05,112,50.67,111.27,111.76C741,617,691.31,665.87,630.49,665.86Z"/></svg>