<svg id="Слой_1" data-name="Слой 1" xmlns="http://www.w3.org/2000/svg" viewBox="0 0 1000 1000"><path d="M991,694c-.85,34.25-18.22,44.85-49.84,30-26.95-12.69-53.24-26.77-80.07-39.7-29.72-14.33-37.83-11.49-54.51,17.06-11.38,19.49-22.68,39-34.58,58.21-18.94,30.54-36.33,32.37-62.58,6.87-14.25-13.84-27.87-28.33-42.29-42-23.45-22.17-35.7-21.28-55.28,4-25.44,32.82-50.25,66.13-75.81,98.86-25.24,32.34-43.72,32.45-68.75.6-26.78-34.06-52.61-68.88-79.81-102.59-17.71-21.94-29.11-22.14-49.22-2.75-16.24,15.66-31.37,32.48-47.74,48-21.2,20.09-39.49,17.87-55.74-6.86-14.86-22.63-28.86-45.84-42.95-69-11.48-18.86-26.31-22.56-45.91-12.44C117.07,697.16,88.15,712,58.59,725.46c-28.4,12.9-47.35,2.17-48.77-28-6.08-129.72,12.44-254.11,83.89-366a495.26,495.26,0,0,1,43.38-58.69c26.53-30.48,52.35-35.95,89.88-19.85,32.35,13.87,64.26,28.83,95.74,44.57,17.54,8.78,25.93,6.3,29.21-14.22,5.56-34.74,12.4-69.3,19.53-103.77,6.66-32.25,24.7-39.47,52.95-21.62,17.55,11.09,34.65,22.89,52,34.37,16.85,11.19,33.35,11.44,50.4-.24,17.87-12.24,36.15-23.91,54.63-35.22,25.55-15.63,43-8.79,49.57,20.87,7.47,33.45,13.73,67.23,19,101.11,3.63,23.3,12.32,28.68,34,17.13,28.65-15.23,58.59-28.09,88.2-41.48,40.28-18.23,70.72-11,98.25,23.51,83.13,104.26,123.7,223,120.64,356.48C991.09,654.29,991.5,674.16,991,694Z"/></svg>