<svg id="Слой_1" data-name="Слой 1" xmlns="http://www.w3.org/2000/svg" viewBox="0 0 1000 1000"><path d="M77.88,500c0-97-.19-194.07.05-291.11C78.21,90.77,153.31,15.81,271.79,15.67q288.08-.33,576.16,0c53.74,0,73.8,19.44,73.86,72.53.21,193.07-.24,386.13.38,579.2.12,36.29-9.38,64.15-48.24,73.1-12.34,2.85-12.64,10.89-12.63,20.31,0,19.2.8,38.45-.27,57.6-1.45,26.12-1.73,47.64,32.42,56.18,22,5.5,28.76,29.54,28,52.4-.72,23.08-10.75,40.65-32.08,50.91-14.16,6.82-29.28,6.59-44.51,6.58q-283.53-.16-567.07-.08c-126.77,0-199.85-72.9-200-199.33Q77.77,642.54,77.88,500ZM489.79,741.79q-111.94,0-223.89,0c-46,.06-72.16,23.19-71.38,62.78.75,38.22,26.36,60,71,60.09,128.08.09,256.16.48,384.23-.3,30.8-.18,71.37,13.87,89.85-6.49,18-19.83,3.29-59.79,5.61-90.77,1.48-19.75-5.71-26-25.55-25.73C643.08,742.38,566.43,741.8,489.79,741.79Zm38.44-485.2c-57.5,0-115,.35-172.51-.17-22.29-.21-39,6.61-39.1,31.16S333,319.09,355.42,319q174-.54,348.05,0c23.32.08,41.41-6.18,40.65-32.67-.71-24.7-18.55-30.15-40.35-30C645.26,256.94,586.74,256.59,528.23,256.59Zm4.6,183.56c57.5,0,115-.31,172.51.16,22.33.18,38.94-7,38.81-31.49s-17-31.15-39.22-31.08q-174,.51-348,0c-21.87-.08-39.57,5.3-40.24,30-.71,26.49,17.28,32.86,40.65,32.62C415.8,439.76,474.31,440.16,532.83,440.15Z"/></svg>