<svg id="Слой_1" data-name="Слой 1" xmlns="http://www.w3.org/2000/svg" viewBox="0 0 1000 1000"><path d="M959,104.7c0,13.36,0,26.72,0,40.08,0,7.26-2,13-9.46,16-7,2.81-11.51-1.28-15.91-5.53-5.94-5.76-11.89-11.52-17.5-17.58-3.43-3.69-5.86-3.44-9.29.07q-19.33,19.8-39.12,39.14c-3.17,3.11-3.51,5.27-.17,8.54q20.12,19.69,39.81,39.82c3.33,3.39,5.61,2.82,8.6-.31q9.22-9.65,18.89-18.88c4.28-4.1,8.91-7.09,15.38-4.1,6,2.76,8.65,7.36,8.67,13.58.08,28,.22,56-.07,84-.11,9.77-5.12,14.84-14.92,15-27.67.32-55.35.2-83,.05-6.14,0-11-2.89-13.57-8.82s-.81-11.2,3.53-15.65c6.22-6.37,12.39-12.82,18.9-18.89,3.55-3.31,3.87-5.51.15-9.11Q850,242.79,830.76,222.91c-3.56-3.67-5.82-3.37-9.23.13-12.88,13.2-25.89,26.3-39.16,39.11-3.9,3.76-2.93,6,.41,9.11,6.25,5.89,12.16,12.13,18.26,18.18,4.74,4.7,6.64,10.13,3.91,16.46s-8.09,8.67-14.63,8.68c-27,0-54.08.19-81.11-.09-10.66-.11-15.72-5.38-15.81-16.17-.21-27.35-.09-54.71,0-82.07,0-6.59,2.67-11.52,9-14.38s11.07.19,15.34,4.29c6.42,6.17,12.76,12.43,18.89,18.89,3.15,3.31,5.46,3.2,8.63,0q19.72-20.1,39.83-39.8c3.59-3.51,2.4-5.61-.54-8.51-13.14-13-26.24-26-39.11-39.17-3.67-3.76-6.08-3.09-9.33.35q-9.18,9.71-18.91,18.87c-4,3.83-8.52,6.56-14.6,3.88-5.93-2.61-9.09-7-9.12-13.3-.14-28.31-.21-56.62,0-84.93C693.54,53.26,699.24,48.1,708,48c28-.34,56-.25,84,0,6.12,0,11,3.17,13.22,9.24,2.07,5.63.76,10.67-3.41,14.92-6.46,6.57-12.87,13.22-19.56,19.57-3.25,3.09-3.4,5.14,0,8.42q20.17,19.62,39.82,39.79c3.35,3.43,5.49,2.85,8.53-.24,13.16-13.39,26.38-26.71,39.85-39.78,3.65-3.55,2.4-5.59-.54-8.41-6.19-5.95-12.16-12.13-18.23-18.21-4.59-4.59-7.19-9.73-4.4-16.31,2.68-6.35,7.83-9,14.37-9.07,27.36-.08,54.72-.23,82.07.09,10.23.12,14.95,5.24,15.19,15.7C959.2,77.33,959,91,959,104.7Z"/><path d="M166.69,540.53c27.88,1.16,59.57,13.53,86.9,36.71Q435.26,731.37,616.68,885.73c24.42,20.8,29.45,41.41,17.17,63.58-12.08,21.8-33.41,29.07-62.91,19.6C417.77,919.79,264.48,871,111.72,820.62c-69.64-23-108.14-90.84-95.55-162C28.06,591.5,89.88,540.24,166.69,540.53Zm-10.11,95.56c-29.89.34-49.9,21-49.1,50.69.76,28.43,20.71,47.4,49.91,47.46,29.94.06,50.84-20.37,50.61-49.48S186.7,635.76,156.58,636.09Z"/><path d="M402,443.57c-.29-78.49,64-144.33,141.87-145.24S689.05,365,688.63,443.57c-.42,77.84-66.34,144-143.53,144C467.55,587.64,402.32,522,402,443.57Z"/></svg>