<svg id="Слой_1" data-name="Слой 1" xmlns="http://www.w3.org/2000/svg" viewBox="0 0 1000 1000"><path d="M938.35,47.8c6.78,1,13.66,3.33,17.59,10.63,4.22,7.8,4.2,15.74-.43,23.29-1.91,3.11-4.65,5.76-7.26,8.38Q841.53,196.9,734.76,303.68c-6.49,6.5-13.23,12.32-23.2,10.64-16.12-2.71-23.53-20.78-14.17-34.44a54.58,54.58,0,0,1,6.73-7.39Q810.86,165.69,917.6,58.9C923.25,53.24,929.07,48.33,938.35,47.8Z"/><path d="M780.49,93.05c-.53,23.38-20.74,43.41-43.69,43.28-23.33-.13-43.76-21.12-43.5-44.7s21.37-44.46,44.37-43.83C761.45,48.46,781,69.14,780.49,93.05Z"/><path d="M958.9,270.66c-.1,23.82-20.72,44.48-44,44.09-23.46-.41-43.64-21.44-43.19-45,.44-23.22,20.69-43.45,43.55-43.53C938.73,226.13,959,246.79,958.9,270.66Z"/><path d="M175.81,541c27.87,1.17,59.57,13.53,86.9,36.71Q444.36,731.81,625.8,886.18c24.41,20.79,29.45,41.4,17.17,63.57-12.08,21.8-33.41,29.07-62.91,19.6-153.17-49.12-306.46-97.9-459.22-148.29-69.64-23-108.14-90.84-95.55-162C37.17,591.94,99,540.68,175.81,541ZM165.7,636.53c-29.89.34-49.9,21-49.11,50.69.77,28.43,20.71,47.4,49.92,47.46,29.94.06,50.84-20.37,50.6-49.48S195.82,636.2,165.7,636.53Z"/><path d="M411.14,444c-.3-78.48,64-144.33,141.86-145.24S698.17,365.41,697.75,444c-.42,77.84-66.35,144-143.53,144C476.67,588.08,411.44,522.42,411.14,444Z"/></svg>