<svg id="Слой_1" data-name="Слой 1" xmlns="http://www.w3.org/2000/svg" viewBox="0 0 1000 1000"><path d="M244.47,368.28c38.6,1.61,82.49,18.73,120.34,50.84q251.55,213.42,502.81,427.2c33.81,28.8,40.78,57.34,23.77,88-16.72,30.19-46.26,40.25-87.11,27.15-212.12-68-424.39-135.59-635.94-205.35C71.9,724.35,18.58,630.35,36,531.85,52.48,438.86,138.09,367.87,244.47,368.28Zm-14,132.34c-41.4.46-69.11,29-68,70.18,1.06,39.38,28.68,65.64,69.12,65.73,41.47.09,70.41-28.21,70.09-68.52S272.18,500.15,230.47,500.62Z"/><path d="M570.36,234C569.94,125.32,659,34.13,766.81,32.87s201,92.28,200.44,201.13c-.57,107.8-91.87,199.42-198.76,199.47C661.1,433.52,570.77,342.59,570.36,234Z"/></svg>