<svg id="Слой_1" data-name="Слой 1" xmlns="http://www.w3.org/2000/svg" viewBox="0 0 1000 1000"><path d="M987.91,50.1q-19.85,121.44-44.93,242c-5.8,27.57-33,33.81-54.54,15.24-15.31-13.2-30.16-27.33-43.1-42.81-15.75-18.83-27-16.72-43.7.2C702.71,365,602.73,464.31,503.1,563.93,460.81,606.22,419,649,376,690.53c-14,13.52-19,26.43-13.39,45.63,7.6,26.21,12.39,53.23,17,73.6,1.59,21.8-4.74,34.12-15.18,44.6-38.63,38.79-76.65,78.2-116.22,116-32.61,31.15-76.5,21.09-82.54-23.46C155.87,875.2,118.5,843,49.4,833.64c-36.3-4.93-50.12-48.06-25.27-75.85,39.78-44.48,83.31-85.68,126.42-127,14.18-13.61,34.19-14.8,51.71-7,63.39,28.11,105.6,4.6,151.29-43.81C476.64,449.48,605.67,324.64,733.2,198.44c17.48-17.3,21.13-29,.53-45.57-14.92-12-28.11-26.38-40.81-40.82-19.43-22.12-14.1-48.53,13.59-54.37,80.24-16.94,160.94-31.81,241.81-45.47C973,8,991.9,25.73,987.91,50.1Z"/><path d="M74.1,208.76c2.87.22,4.16-.09,4.85.42,38.77,28.8,67.42-2.58,98.71-16.82C323.31,126.13,466.21,133.09,607,207.27c17.76,9.36,23.4,18.56,5.63,33a34,34,0,0,0-6.4,6.46C580.4,283,553,287.69,509,269.35c-96.79-40.32-195.93-34.76-291.54,10.7-35.38,16.81-35.44,17.72-8.74,44.49,46.49,46.61,92.45,93.79,140,139.32,16.86,16.15,15.52,26.12-.8,41.35-57.34,53.55-40.07,52.24-93.58-.45Q149.33,401.37,46,296.24c-31.88-32.49-22-75.67,18-85.64C67.89,209.62,71.92,209.15,74.1,208.76Z"/><path d="M756.13,608.87c-.3-39.55-10.45-93.08-35.07-142.83-9.58-19.38-9-32.32,7.51-47.55,56.37-52.11,47.3-66.46,83.49,14.82,63,141.55,54.74,281.56-19.39,417.47-10.66,19.55-23.86,35.9-5,59.63,11.84,14.9,2.73,33.32-9.95,46.67s-28.23,19.16-46.84,13.37c-15.1-4.7-26.17-15-36.88-25.87-74.56-75.74-148.82-151.79-223.92-227-14.27-14.3-17.21-24.11-.94-39.25,59.32-55.22,39.7-53,93.12-1.21,41.44,40.15,82.11,81.12,122.37,122.46,14.22,14.61,22.15,12.84,30.81-5.07C741.39,740.79,756.13,684.61,756.13,608.87Z"/></svg>