<svg id="Слой_1" data-name="Слой 1" xmlns="http://www.w3.org/2000/svg" viewBox="0 0 1000 1000"><path d="M355,887.78c-36.45-1.7-60.6-19.93-78-50.33Q161.72,636.7,45.55,436.51c-6.06-10.5-12.38-20.87-18-31.61C6.27,364,16.84,318.17,56.34,295q149.31-87.8,300.35-172.61c40.5-22.68,83.91-6.17,110.2,39.07q105.35,181.26,209.91,363c12.53,21.69,25.48,43.14,37.55,65.08,25.26,45.93,12.87,92.52-32,118.84-94,55.18-188.32,109.89-282.45,164.88A110.16,110.16,0,0,1,355,887.78Z"/><path d="M559.64,209.41H581q152.88,0,305.77.05c64,.1,96.25,31.74,96.34,95q.32,243.9,0,487.79-.1,95.28-95.88,95.41c-106,.18-211.94,0-317.91.07-20.47,0-39.9-3-58.92-19,10.89-6.65,20.11-12.55,29.57-18,54.59-31.56,109.46-62.62,163.79-94.6C781,710.62,801,634.59,756.3,556.81,694.61,449.56,632.41,342.6,570.64,235.4,566.35,228,559.8,221.26,559.64,209.41Z"/></svg>