<?xml version="1.0" encoding="UTF-8"?>
<svg id="_Слой_1" data-name="Слой 1" xmlns="http://www.w3.org/2000/svg" viewBox="0 0 1000 1000">
  <defs>
    <style>
      .cls-1 {
        fill: #000;
        stroke-width: 0px;
      }
    </style>
  </defs>
  <path class="cls-1" d="M498.57,932.59c-73.26,0-146.53-.52-219.78.38-17.61.22-27.67-5.13-36.54-20.84-74.08-131.13-148.88-261.84-224.13-392.3-8.22-14.24-8.62-24.92-.27-39.38C93.64,349.12,168.84,217.44,243.64,85.54c7.56-13.33,16.04-18.64,31.56-18.58,149.62.55,299.24.55,448.86,0,15.38-.06,24.26,4.79,31.82,18.13,75.3,132.81,150.9,265.45,227.2,397.69,8.08,14,5.92,23.81-1.4,36.53-75.06,130.57-149.85,261.31-224,392.4-8.66,15.3-18.16,21.61-36.24,21.34-74.28-1.09-148.58-.45-222.88-.45ZM438.66,690.4c7.58-7.01,14.52-13,20.99-19.46,82.43-82.34,164.8-164.74,247.18-247.13,47.96-47.96,47.19-47.22.84-95.44-16.6-17.27-26.24-18.53-43.68-.57-68.94,71.01-139.98,139.97-209.21,210.72-13.54,13.84-21.22,14.06-33.8-.09-17.79-19.99-37.64-38.15-56.59-57.11-51.74-51.74-51.33-51.33-102.17.82-12.56,12.88-15.27,20.73-.94,34.64,53.99,52.43,106.71,106.17,160.04,159.28,4.97,4.95,10.84,8.99,17.35,14.33Z"/>
</svg>