<svg id="Слой_1" data-name="Слой 1" xmlns="http://www.w3.org/2000/svg" viewBox="0 0 1000 1000"><path d="M372.44,319c96.65,3.46,184.85,14.66,268.84,48.5,28.19,11.36,54.34,26.24,74.47,49.68,30.71,35.74,29.91,73.8-3,107.6C687,551.14,655.23,568.61,620.59,580q-237.41,78.35-476,2.73C113,572.77,83.22,558,57.3,536.47,7.13,494.91,6.86,443,57.93,402c39.14-31.42,85.37-48.22,133.81-58.91,29.34-6.48,58.81-12.9,88.56-16.72C313.1,322.16,346.27,321,372.44,319Z"/><path d="M703,312.42c-14.58,1.1-25.1,1.05-36-3.37-98.27-40-201-53.65-306.49-51.43-40.28.85-82.88-30.38-95.75-68.8-10.64-31.73,3.44-65.3,40.1-92.74,47.83-35.81,103.57-52,161.21-62.74C590.29,10.22,713.61,13.59,835.52,48.13c37.92,10.74,73.91,26.2,104.76,51.39,52,42.47,52.09,94.9-.46,136.53-53.7,42.53-118.2,58.16-183.75,69.67C737.42,309,718.83,315,703,312.42Z"/><path d="M21.47,779.73c239.47,114,476.21,113.24,713.63,1,12.77,67-4.74,105.49-66.19,140.06-57,32.07-119.87,45.74-183.77,53.69-108.66,13.52-216.45,8-322-23.13a392.3,392.3,0,0,1-66.83-27C29.11,890.12,11.71,854.86,21.47,779.73Z"/><path d="M20.36,598.37C259.22,712,495.86,712.66,733.56,600c15.43,46.8,4.25,88.05-35.75,119.3-50.48,39.45-110.43,56.8-171.92,67.72-120.15,21.33-239.75,18.45-357.6-15.88a428.53,428.53,0,0,1-56.52-20.44C33.14,715.2,15.09,684.51,20.36,598.37Z"/><path d="M762.4,370.86c73.41-13.82,139.37-33.14,198.82-70.33,11.18-7,16.85-8.65,18.61,8.09,5.7,54.07-10.87,96.24-60.13,123.57a435.32,435.32,0,0,1-97,39.6c-7.41,2-17.42,7.33-18.69-5.47C800.52,430.81,787,399.48,762.4,370.86Z"/><path d="M803.63,599.11c0-53.78.1-53.46,50.68-69.32,37.35-11.72,73.55-26.46,106.43-48,14.53-9.53,17.41-5.48,19.21,10.36,6.12,53.8-13.42,93.5-60.38,120.58-28.83,16.62-59.51,28-90.89,38.69-21.26,7.22-27,1.31-25.21-19.23C804.44,621.24,803.64,610.14,803.63,599.11Z"/></svg>