<?xml version="1.0" encoding="UTF-8"?>
<svg id="_Слой_1" data-name="Слой 1" xmlns="http://www.w3.org/2000/svg" viewBox="0 0 1000 1000">
  <defs>
    <style>
      .cls-1 {
        fill: #000;
        stroke-width: 0px;
      }
    </style>
  </defs>
  <path class="cls-1" d="M499.2,890.14c-78.96,0-157.91.12-236.87-.05-41.55-.09-55.54-15.49-52.64-57.1,6.81-97.66,81.05-175.33,186.01-183.65,75.92-6.01,152.97-7.95,229.02,2.53,92.42,12.73,166.25,99.46,166.36,192.28.04,30.52-16.03,45.76-50.13,45.89-80.58.31-161.17.1-241.76.1Z"/>
  <path class="cls-1" d="M355.55,450.54c.24-79.05,65.99-145.31,144.25-145.36,77.91-.05,144.43,66.63,144.86,145.2.43,79.4-67.37,147.5-145.92,146.57-78.6-.93-143.42-67.22-143.18-146.42Z"/>
  <path class="cls-1" d="M634.49,596.95c47.34-50.4,67.46-105.11,61.2-168.62-.96-9.74,4.41-13.82,11.87-15.33,76.06-15.38,151.86-23.78,219.37,26.7,38.78,28.99,56.42,70.51,59.15,118.29,1.41,24.67-10.87,38.59-36.15,38.72-103.15.56-206.3.23-315.44.23Z"/>
  <path class="cls-1" d="M365.65,596.9c-109.73,0-213.58.38-317.42-.29-23.86-.15-34.57-13.72-34.41-37.9.45-69.7,52.3-135.49,120.8-149.92,47.24-9.95,95.2-8.99,142.82-.6,17.64,3.11,27.49,9.83,26.09,32.08-3.7,58.75,16.88,109.88,62.12,156.62Z"/>
  <path class="cls-1" d="M111.27,232.41c-.64-66.25,54.73-122.87,119.9-122.61,64.3.25,119.48,55.39,120.32,120.22.84,65.44-55.24,122.58-120.35,122.61-64.39.03-119.24-54.97-119.87-120.21Z"/>
  <path class="cls-1" d="M673.14,232.41c-.64-66.25,54.74-122.87,119.9-122.61,64.3.26,119.48,55.4,120.31,120.22.84,65.44-55.25,122.57-120.35,122.61-64.4.03-119.24-54.97-119.86-120.22Z"/>
</svg>