<svg id="Слой_1" data-name="Слой 1" xmlns="http://www.w3.org/2000/svg" viewBox="0 0 1000 1000"><path d="M110.51,984.36C80,981.66,39.89,999.07,20.07,978c-18.13-19.26-3.83-58.42-5.43-88.76-.32-6.1.82-12.38-.18-18.33-7.84-46.57,6.36-83.49,46.75-109.43,17.11-11,15.56-23.33,7-40.85C-3.4,574.81-3.6,428.08,67.53,282.08c9-18.57,11.28-31.14-7.12-43.59C22.35,212.75,8.59,177.3,13.91,131.35c3.61-31.18,1.44-63.15.41-94.72C13.74,19,17.76,10.94,37.78,11.56c45.83,1.43,91.79,1.78,137.59-.05,27-1.09,37.82,19.32,50.07,34.72C246.75,73,264.84,75.1,296.72,60.08c140.21-66,281.75-63,421,4.61C738.6,74.83,752.94,77,766.11,56.48c24.62-38.39,59.64-50,104.13-45.13,31.23,3.41,63.15,1.27,94.73.41,15.22-.42,22.09,3.56,21.8,20.28q-1.24,73.38-.06,146.79c.41,26.31-21.47,36.08-36.32,49.58-19.9,18.09-24.56,31.37-11.59,58.67,68.47,144.18,67.05,289.68-3.38,433.14-9.63,19.62-9.06,31.85,8,43.47,38.78,26.49,48.22,63.88,44.6,108.53-2.54,31.36-.44,63.16.66,94.73.6,17.12-5.63,23.26-23,22.72-45.83-1.43-91.72-2.16-137.56-1.46-25.81.39-38.58-17.91-51.37-33.87-20.11-25.1-37.18-28.69-68.51-13.83-142.14,67.41-285.28,63.6-426.89-4.5-12.28-5.9-25.49-18.29-37.17-.44C211.72,985.05,164.74,993.87,110.51,984.36ZM500.63,807.45c173.3.06,309.67-135.34,309.39-307.18C809.75,329.48,673.91,194,502.82,193.93c-173-.11-310.06,135.82-309.72,307.2C193.44,671.52,329.85,807.39,500.63,807.45ZM137.55,165c19.1-1.64,30.47-13.25,29.19-33.52-1.3-20.49-14.53-30.33-35.07-29-19.61,1.24-29.7,13.13-29.27,31.77C102.87,154.71,115.26,165,137.55,165ZM870,165c19.78-1.12,31.68-12.12,31-32.55s-13.34-30.89-34-30.15c-19.57.7-30.21,12.07-30.33,30.78C836.53,153.56,848.35,164.46,870,165ZM136.89,899.4c17.73-1.3,30.33-11.51,29.89-32.13S154,836.11,133.25,836.58c-19.5.44-30.48,11.5-30.85,30.28C102,887.25,113.53,898.44,136.89,899.4Zm730.92-63.07c-20.78,1.26-32,12.86-31.14,33.14.76,18.76,12,29.52,31.54,29.6,20.86.09,32.84-11,32.81-31.4S888.5,836.77,867.81,836.33Z"/></svg>