<svg id="Слой_1" data-name="Слой 1" xmlns="http://www.w3.org/2000/svg" viewBox="0 0 1000 1000"><path d="M560.31,556.41c14.4-5.8,17.29-17.1,22.7-25.76q132.5-211.92,264.48-424.19c5.23-8.39,10.19-17.15,16.63-24.56,12.11-14,27.63-16.53,44.06-8.68,15.28,7.31,22.5,20.06,21.34,37.28-.94,13.94-8,25.71-13.51,37.95Q811,382.65,705.85,616.8c-4,9-14.58,18.79-3.91,29.34,11.26,11.13,20-1.2,28.4-5.8q67.44-37.07,134-75.71c21.16-12.25,41.56-15.43,57.49,6.14,15.64,21.16,7.79,40.58-9.44,57.71Q847.26,693.3,782.56,758.55c-7.6,7.7-15.52,11.37-26.22,10.63a172.73,172.73,0,0,0-27,0c-43.11,3.74-73.35-3.82-103.22-46.32-69.29-98.61-217.59-79.93-272.51,28.48-6.72,13.26-13.68,20.18-28.42,17.74a7.37,7.37,0,0,0-2.69,0c-98.4,21.41-166.86-37.21-237.38-89.45C67.87,666.86,63.6,647.84,74.52,629c10-17.21,26.09-23.76,46.3-17.44q70.77,22.13,141.71,43.69c10.69,3.23,21.2,8.94,31.76-3.4,11.26-13.17,1.62-21.63-4-31-29.15-48.68-58.36-97.34-88.17-145.62-12.86-20.81-16.34-40.9,3.62-58.27,20.44-17.79,39.43-9.66,57.6,6.2Q337.66,488,412.73,552c5.91,5.07,11.38,13.94,20.33,11,11.11-3.7,7.46-15.11,8.25-23.46,6-62.77,11.54-125.57,17.28-188.36.73-8.07,1.45-16.16,2.62-24.18,3.92-26.82,20.23-44.94,40.32-42.09,23.68,3.37,35.33,19,37.4,42.73,5.22,60.12,10.85,120.2,16.41,180.29C556.79,523.61,558.55,539.29,560.31,556.41Z"/><path d="M500.26,931.31H84.3c-12.59,0-25.1.43-37.16-4.74-21.66-9.3-31.62-26.32-31.5-48.91s10-40.19,32.18-48.18a78.91,78.91,0,0,1,26.25-4.68q425.42-.36,850.83-.07c43.13,0,67.06,29.39,57.29,68.23-6.33,25.18-26.55,38.26-60.57,38.29q-175.57.21-351.14.06Z"/><path d="M537.49,147.66c0,15.2,1.42,30.57-.33,45.56C534.6,215,519.7,227.64,498.76,227s-35.35-13.8-36.18-36c-1.07-28.6-1-57.3-.05-85.91.76-22.22,15.12-35.62,35.9-36.33,22.33-.76,36.9,13.07,39.2,36,1.42,14.18.27,28.61.27,42.93Z"/></svg>