<svg id="Слой_1" data-name="Слой 1" xmlns="http://www.w3.org/2000/svg" viewBox="0 0 1000 1000"><path d="M502.67,360.41c151.15,0,302.3.56,453.44-.55,25.18-.19,34.25,4.91,34,32.37-1.41,148.79-.28,297.6-.81,446.4C989,933.48,930.37,991.27,834.75,991.4q-335.7.47-671.38,0C69.49,991.22,11,933.65,10.68,840.86c-.57-148.8.55-297.61-.78-446.4-.25-28.27,8.76-34.88,35.82-34.65C198,361.06,350.35,360.41,502.67,360.41ZM651.42,757.34c.12-52.73-32.41-90.85-100.77-116.27-29.55-11-59.91-19.8-89.63-30.38-8.55-3.05-18.5-7.25-19-18.41-.64-13,9.92-17.43,19.8-21.45,32.32-13.16,64.45-5.53,96.63,1,35.67,7.22,57.77-3.28,64.39-30.19,6.9-28-9-51.05-45.29-58.22-23-4.56-33.43-11.65-32.8-37.76.65-27-19-43.48-45.65-43.33-24.83.14-44.59,15.55-44,41.06.59,26.29-11.52,35-32.79,44-44.17,18.64-73.32,51.28-73.71,101.74-.41,51.66,27,85.93,74,104.56,28.21,11.17,57.31,20.07,85.62,31,19.57,7.55,52.14,8.2,47.51,36.28-4.9,29.7-36.67,27.08-61.13,26.37-11.51-.34-23.08-3.63-34.32-6.69-18-4.91-35.61-11.43-53.69-16-26.65-6.75-47.34,2.55-55.93,28.73-8.65,26.4,4.07,46.05,28.11,57.06,15.85,7.26,32.88,12.41,49.85,16.59s26.51,10.76,25.36,30.58c-1.77,30.53,14.42,51.14,44.67,51.85s47.78-19.19,46.8-49.69c-.61-19.09,7.84-25.3,23.76-31.55C623.46,846.84,651.31,808,651.42,757.34Z"/><path d="M10.25,288.1C52.4,206.31,90.49,129,132,53.51c17.59-32,51.06-44,86.75-44.45,72.54-.86,145.1.33,217.63-.7,19.9-.28,26.2,6,25.95,25.83-.94,76-.34,152.11-.41,228.17,0,12.66,2.52,26-18.11,26C301.49,287.9,159.19,288.1,10.25,288.1Z"/><path d="M988.89,288.15c-147.85,0-288.23-.21-428.61.28-17,.06-22.47-6.29-22.37-22.57q.69-117.63,0-235.26c-.1-16.74,6.4-22.22,22.85-22.08,74.9.63,149.84-.9,224.71.89,35.4.84,67.34,15.43,84.77,48.15C909.72,131.7,947.25,206.89,988.89,288.15Z"/></svg>