<svg id="Слой_1" data-name="Слой 1" xmlns="http://www.w3.org/2000/svg" viewBox="0 0 1000 1000"><path d="M366.78,533.41c106.05,0,212.11.39,318.16-.39,17.67-.13,24,3.45,23.85,22.71-1,104.4-.19,208.82-.57,313.23-.24,66.55-41.34,107.09-108.44,107.19q-235.53.33-471.08,0C62.83,976,21.81,935.63,21.56,870.52,21.17,766.11,22,661.7,21,557.3c-.18-19.84,6.14-24.47,25.13-24.32C153,533.86,259.9,533.41,366.78,533.41ZM471.15,811.92c.09-37-22.74-63.75-70.7-81.58-20.74-7.71-42.05-13.9-62.9-21.32-6-2.14-13-5.09-13.36-12.92-.45-9.14,7-12.23,13.89-15.05,22.68-9.23,45.22-3.88,67.8.69,25,5.06,40.54-2.31,45.18-21.18,4.84-19.69-6.35-35.82-31.78-40.86-16.14-3.19-23.46-8.17-23-26.49.46-19-13.32-30.51-32-30.4-17.43.09-31.29,10.91-30.88,28.8.41,18.45-8.08,24.57-23,30.87-31,13.07-51.45,36-51.72,71.38-.28,36.25,18.92,60.29,51.94,73.37,19.79,7.83,40.21,14.08,60.08,21.74,13.73,5.3,36.58,5.76,33.33,25.46-3.44,20.84-25.73,19-42.89,18.5-8.08-.23-16.2-2.55-24.08-4.69-12.65-3.45-25-8-37.68-11.24-18.69-4.74-33.21,1.78-39.24,20.15-6.07,18.53,2.85,32.32,19.73,40.05,11.11,5.09,23.06,8.7,35,11.63s18.6,7.55,17.79,21.46c-1.24,21.42,10.12,35.89,31.35,36.38s33.52-13.46,32.84-34.86c-.43-13.4,5.5-17.76,16.67-22.14C451.53,874.72,471.07,847.49,471.15,811.92Z"/><path d="M21.26,482.67C50.84,425.28,77.57,371,106.68,318.06c12.34-22.45,35.82-30.89,60.87-31.18,50.89-.61,101.81.23,152.7-.49,14-.2,18.39,4.17,18.21,18.12-.66,53.36-.24,106.73-.29,160.1,0,8.88,1.77,18.26-12.71,18.22C225.62,482.53,125.77,482.67,21.26,482.67Z"/><path d="M707.94,482.7c-103.74,0-202.24-.14-300.74.2-11.9,0-15.76-4.41-15.7-15.84q.5-82.53,0-165.07c-.08-11.74,4.49-15.59,16-15.49,52.55.44,105.14-.63,157.67.62,24.84.59,47.25,10.82,59.48,33.78C652.39,372.93,678.72,425.69,707.94,482.7Z"/><path d="M928.59,220.49c.57-8-4.07-11.93-9.56-15.07-9.69-5.54-20.25-8.87-31-11.58-15.53-3.91-31.07-8-45.85-14.15-30.06-12.55-43.1-37.9-33.84-66.7,7.64-23.75,27-34.28,49.57-39.32,7.43-1.66,10.75-4,9.72-11.77a48.09,48.09,0,0,1,.21-12.22,16.57,16.57,0,0,1,16.8-14.74c8.61.17,15.21,6.35,16.23,15.3.24,2,.17,4.08.21,6.12.39,18.62-3.13,14.77,16.83,18.71,4,.79,8.07,1.16,12.06,2,9.91,2,16.6,11.32,14.8,20.43S934.55,112,924.27,110.59c-18.67-2.53-37.08-8.2-56.28-4.34-7.83,1.58-15.23,4.11-21.56,9-10.4,8-9.89,21.52,1.18,28.5,12.74,8,27.16,11.84,41.6,15.38s28.75,7.53,42.1,14.23c18.89,9.48,30.87,23.94,31,45.91.1,22.29-9.48,39.27-29.34,50.06a72.29,72.29,0,0,1-25.57,8.46c-4.93.61-6.49,2.71-6.32,7.31a109,109,0,0,1-.2,14c-.81,9-7.4,15.21-16,15.49s-16.15-6.19-17.08-15.41a70.34,70.34,0,0,1-.12-14c.56-5.59-2-7.75-7-8.63a206.08,206.08,0,0,1-40.26-11.4c-12-4.73-16.64-13.76-12.58-23.88,3.67-9.16,13.52-12.27,25.12-8,20.34,7.57,41,13.34,63,11.75,7.69-.55,15-2.14,21.71-5.92C925.14,234.93,929.11,228.6,928.59,220.49Z"/></svg>