<svg id="Слой_1" data-name="Слой 1" xmlns="http://www.w3.org/2000/svg" viewBox="0 0 1000 1000"><path d="M501.13,60c69.47,0,139,.42,208.42-.2,30-.26,51.72,10.41,69.76,35.59,62.46,87.18,127,172.84,190.15,259.57,31.77,43.65,31.06,57.08-4.19,96.13q-151.9,168.3-304.49,336Q606.27,847.23,552,907.59c-38.41,42.49-63.21,43.76-101.19,2.07q-212.52-233.28-424-467.54c-24.33-26.91-25.6-48.12-4.42-77,67.61-92.3,136-184,203.49-276.41,15.48-21.19,35.56-28.9,60.7-28.78C358.1,60.23,429.61,60,501.13,60ZM832.89,451.2H169.63c4,6.2,5.69,9.84,8.26,12.68,99.34,109.66,199.24,218.8,297.75,329.2,20,22.43,32,19.21,50.32-1.35,80.84-90.61,163-180,244.6-270C790.78,499.47,810.43,476.66,832.89,451.2ZM345.16,160.91c46.29,59.26,98,105.38,143.07,157.5,11.53,13.33,19.71,2.18,27.42-5.73,27-27.72,55.08-54.56,80.4-83.77,18.73-21.6,42.14-39.67,58.53-68Zm43.43,192.22c-44.26-46.92-83-88.13-121.95-129.19-6.68-7-14.27-8.35-20.64.36Q204.48,281,163.39,338c-6.75,9.39-4.37,15.11,7.93,15.11Zm226.26-2.36H847.5c-32.59-44.17-62.06-84.06-91.46-124-8.39-11.38-16.5-9.17-25-.08C693.63,266.74,656.14,306.69,614.85,350.77Z"/></svg>