<svg id="Слой_1" data-name="Слой 1" xmlns="http://www.w3.org/2000/svg" viewBox="0 0 1000 1000"><path d="M822.64,951.24c-23-2-54.41,9.15-77.77-4.46s-20-47.92-30-72.55C661.11,741.6,566.7,643.92,451,564.56c-41.15-28.21-84.07-53.82-130.59-72.61-13.29-5.37-20.79-13.56-21.27-28.92-2.48-77.68-22.85-149.55-70.78-212.16-3.56-4.66-9.12-10.11-5.51-15.89,4.75-7.61,12.58-2.79,19-1.35C298.92,246.33,351.37,270.82,402,299,597.73,407.94,752.9,557.65,857,757.39c26.78,51.41,44.47,106.63,58.74,163,6.37,25.17-1.09,32.68-25.46,31.11C869.35,950.18,848.33,951.24,822.64,951.24Z"/><path d="M13.4,948.88c95.56-27,164-83.77,201.42-174.27,39.46-95.49,11.61-179.1-54.77-251.79,6.79-9.85,14.5-6.88,20.49-5.31,185.55,48.91,348.8,135.27,473.14,285.37,29.44,35.53,49.58,77,65.61,120.3,6.82,18.44,4,28.2-18.36,28.16q-338-.6-676-.61C21.07,950.72,17.24,949.52,13.4,948.88Z"/><path d="M845.16,314.58q-53.34,0-106.67,0c-22.66,0-33.67-14-28.2-36Q728.52,205.15,747,131.76c4.23-16.79,12.76-23.27,30.11-23.33H778c6-.13,13.54,1.89,17.57-1s-.86-10.21-.86-15.77c0-28.77,23.72-52.85,51.84-52.07a51.13,51.13,0,0,1,50.05,53.56,50.05,50.05,0,0,1-1.27,10.22c-1,3.87.19,5.18,4,5.09q9-.22,18.06,0c13.36.3,22.87,6.88,26.1,19.53,13.08,51.39,26,102.81,38.5,154.35,4.41,18.22-7.57,32.12-26.74,32.2C918.56,314.68,881.86,314.58,845.16,314.58Zm.67-206.16c10.67,0,17.92-7.24,17.78-17.71-.13-10.1-7.2-17-17.46-17.17-10.76-.13-18.15,6.88-18.24,17.28S835.15,108.44,845.83,108.42Z"/></svg>