<svg id="Слой_1" data-name="Слой 1" xmlns="http://www.w3.org/2000/svg" viewBox="0 0 1000 1000"><path d="M938.35,47.8c6.78,1,13.66,3.33,17.59,10.63,4.22,7.8,4.2,15.74-.43,23.29-1.91,3.11-4.65,5.76-7.26,8.38Q841.53,196.9,734.76,303.68c-6.49,6.5-13.23,12.32-23.2,10.64-16.12-2.71-23.53-20.78-14.17-34.44a54.58,54.58,0,0,1,6.73-7.39Q810.86,165.69,917.6,58.9C923.25,53.24,929.07,48.33,938.35,47.8Z"/><path d="M780.49,93.05c-.53,23.38-20.74,43.41-43.69,43.28-23.33-.13-43.76-21.12-43.5-44.7s21.37-44.46,44.37-43.83C761.45,48.46,781,69.14,780.49,93.05Z"/><path d="M958.9,270.66c-.1,23.82-20.72,44.48-44,44.09-23.46-.41-43.64-21.44-43.19-45,.44-23.22,20.69-43.45,43.55-43.53C938.73,226.13,959,246.79,958.9,270.66Z"/><path d="M723.43,390.57c-.68,18.27-7.59,33.68-20.55,46.61q-114.2,114-228.34,228c-28.77,28.59-64.83,47.1-98.68,68.53-69,43.68-141.21,83.1-195.24,146.67-7.77,9.14-13.92,8.58-22,0-16.07-17.11-32.85-33.57-49.75-49.86-6.62-6.38-8.87-11.44-.78-18.32,78-66.28,121.28-157.91,175.82-241.29C301,544.75,319.81,520.42,342,498.41c68.85-68.28,137.16-137.08,205.81-205.55,36-35.86,68.23-35.9,104-.44,17.22,17.07,34.23,34.33,51.44,51.41C716.27,356.74,722.89,372.32,723.43,390.57Z"/><path d="M723.37,878.68c.24,60.78-52.7,114-112.7,113.32-60.17-.69-110.56-52-110.74-112.65-.18-61.53,51.91-114.09,112.33-113.35C671.92,766.73,723.14,818.67,723.37,878.68Z"/><path d="M165.81,947.74c-.71,12.19-5.69,22.06-16.78,27.7-11.7,5.94-24.55,6.34-34-2.76-32.7-31.44-65.13-63.23-96.27-96.2-12.5-13.23-10.84-30.07,2.22-43s29.78-13.77,42.94-1.37c31.93,30.06,62.53,61.54,93.4,92.72C163.3,930.93,165.88,939,165.81,947.74Z"/></svg>