<svg id="Слой_1" data-name="Слой 1" xmlns="http://www.w3.org/2000/svg" viewBox="0 0 1000 1000"><path d="M830,950.18c-23-1.95-54.41,9.15-77.76-4.46s-20.06-47.92-30-72.55C668.52,740.54,574.11,642.86,458.36,563.5c-41.15-28.21-84.06-53.82-130.58-72.6C314.48,485.53,307,477.33,306.5,462,304,384.3,283.66,312.42,235.73,249.81c-3.57-4.66-9.12-10.11-5.52-15.89,4.75-7.61,12.58-2.78,19-1.35,57.1,12.7,109.55,37.19,160.19,65.38C605.14,406.89,760.31,556.59,864.36,756.34c26.78,51.41,44.47,106.63,58.73,163,6.37,25.17-1.09,32.68-25.46,31.12C876.76,949.12,855.73,950.18,830,950.18Z"/><path d="M20.81,947.83c95.55-27,164-83.77,201.42-174.28,39.45-95.48,11.61-179.1-54.78-251.79,6.79-9.85,14.51-6.88,20.49-5.3,185.55,48.9,348.81,135.26,473.15,285.36,29.43,35.54,49.57,77,65.61,120.3,6.82,18.44,4,28.2-18.37,28.16q-338-.6-676-.61C28.48,949.67,24.64,948.47,20.81,947.83Z"/><path d="M828.41,48q42.8,0,85.59,0c4.32,0,8.61.07,12.2,3,3.85,3.08,5.74,7.1,5.07,12-.77,5.63-4,9.88-9.48,10.89-5.64,1.05-7.57,3.51-7.42,9.12.65,25.54-9.62,46.46-27.69,64-11.27,10.91-22.35,22-33.84,32.7-4.61,4.27-4.92,7.18-.21,11.71,12.34,11.86,24.12,24.29,36.3,36.32,16.62,16.44,25.86,36,25.43,59.6-.11,5.67,1.23,8.7,7.46,10,6.52,1.35,10,6.59,9.45,13.43-.6,7.23-5.14,11.15-12.19,12.19a35.05,35.05,0,0,1-5.13.19q-85.59,0-171.18,0a41,41,0,0,1-6-.26c-6.77-1-11-4.87-11.61-11.71s2.19-12.19,8.93-13.75c5.7-1.32,7.12-4.29,7.27-9.56.71-25.59,10.89-46.65,29.89-64,11.15-10.16,21-21.76,31.77-32.34,4.56-4.48,4.42-7.59-.12-11.92-10.32-9.84-19.94-20.42-30.39-30.11-19.35-18-30.44-39.62-31.19-66.21-.13-4.65-.86-8-6.47-9.24-7.52-1.7-10.68-7.42-9.55-14.9,1.09-7.29,6.13-10.83,13.21-11C752,47.91,765.36,48,778.77,48Q803.58,48,828.41,48Zm-.16,26.72c-16.53,0-33.08.43-49.59-.17-8.31-.31-10.55,3-9.85,10.48A77.68,77.68,0,0,0,774,107.41c2.69,6.61,6.72,9.43,14.26,9.28,24.5-.47,49-.17,73.53-.17,16.65,0,21.21-3.69,24.19-20.24.76-4.17.46-8.52.84-12.77.61-6.7-2.33-9-9-8.88C861.32,75,844.78,74.74,828.25,74.73Zm48.29,178.5c-16.43-16.36-31.08-30.93-45.72-45.53-2.49-2.49-4.5-1.42-6.53.64-12.79,12.95-25.64,25.85-38.33,38.9-1.4,1.43-3.76,2.87-2.65,6Z"/></svg>