<svg id="Слой_1" data-name="Слой 1" xmlns="http://www.w3.org/2000/svg" viewBox="0 0 1000 1000"><path d="M656.7,660.07c2-27.94-14.25-41.78-33.48-52.78-33.91-19.39-70.88-31-108.55-40.52-54.39-13.71-108.78-27.94-160.55-49.55C248.9,473.28,203.22,384.53,235.66,283.69,262.4,200.55,330,163.66,409.19,146c26-5.8,37.64-14,34.05-41.21-1.84-14-1.1-28.69.72-42.78,4-30.73,29.23-52.19,58.82-51.6C532.92,11,556,32.65,559.63,64c.81,7.08.59,14.28.73,21.42,1.35,65.2-11,51.7,58.92,65.49,14,2.76,28.25,4.07,42.22,6.9,34.69,7,58.11,39.65,51.81,71.53-6.38,32.27-35.74,50.84-71.73,46-65.37-8.88-129.85-28.73-197.05-15.2-27.41,5.51-53.33,14.39-75.49,31.55-36.39,28.17-34.64,75.32,4.14,99.78,44.6,28.13,95.1,41.44,145.64,53.84s100.65,26.37,147.41,49.83c66.12,33.18,108,83.79,108.39,160.74.33,78-33.19,137.48-102.72,175.25-28.09,15.26-58,25.67-89.52,29.61-17.26,2.16-22.74,9.51-22.13,25.62.62,16.31.77,32.76-.69,49-2.86,31.62-25.92,53.26-56.12,54.25-30.62,1-56.52-21.66-59.78-54a245.66,245.66,0,0,1-.43-49c2-19.59-6.9-27.13-24.69-30.23a722.24,722.24,0,0,1-141-39.91c-42.12-16.57-58.26-48.18-44-83.61,12.87-32.07,47.35-43,88-27.86,71.19,26.48,143.46,46.7,220.74,41.15,26.9-1.94,52.43-7.51,76-20.75C644.6,710.6,658.54,688.45,656.7,660.07Z"/></svg>