<svg id="Слой_1" data-name="Слой 1" xmlns="http://www.w3.org/2000/svg" viewBox="0 0 1000 1000"><path d="M550.88,516.9c0,125.36-.53,250.73.5,376.08.19,22.92-5.67,29.7-29.36,29.51-144.78-1.18-289.57-.52-434.36-.64-34.79,0-54.3-13.07-60.54-39.59C19.06,848,41.25,819.78,78,817.4c53.38-3.45,53.38-3.45,53.39-57.18q0-258.24,0-516.47c0-58.53,17.59-80.77,74.45-95,91.36-22.84,182.62-46,274.09-68.46,44-10.78,70.63,10,70.77,55.21C551.11,262.64,550.87,389.77,550.88,516.9ZM365.72,499.68c.4,31.45,18.72,53.63,43.46,52.65,24.18-1,40.93-24.35,40.05-55.93-.85-30.44-18.1-51.52-42-51.34C382.83,445.25,365.32,468.3,365.72,499.68Z"/><path d="M767.28,583.46c0-90.9-.56-181.8.43-272.69.22-19.84-5.49-26-25.31-25.17-37,1.51-74.16-.62-111.17.86-19.29.78-24.52-6.24-23.21-24.21a369.2,369.2,0,0,0,0-55.55c-1.49-19,3.6-26.6,24.45-25.72,40.52,1.72,81.17.27,121.76.56,70.26.49,114.27,43.75,114.46,114,.43,161.49.07,323,.19,484.49,0,44.42-2.18,36.55,36.13,37.34,7.94.17,16-.54,23.8.51,28.62,3.84,46,24,45.73,52.35-.25,27.21-16.73,48.93-44.26,50.52a943,943,0,0,1-119-.22c-29.49-2-43.81-23.86-43.91-59C767.13,768.78,767.29,676.12,767.28,583.46Z"/></svg>