<svg id="Слой_1" data-name="Слой 1" xmlns="http://www.w3.org/2000/svg" viewBox="0 0 1000 1000"><path d="M772.58,253.3c2.09-12.6,4.14-25.93,6.59-39.19.79-4.34,0-7.35-3.31-10.46C766.71,195.06,758,186,749,177.27c-3.4-3.3-5.53-6.87-4.21-11.76,1.4-5.18,5.71-6.43,10.15-7.16,12.59-2.08,25.17-4.28,37.83-5.81,4.43-.54,6.42-2.53,8.15-6.19,5.27-11.14,10.88-22.11,16.21-33.22,2.15-4.49,5.06-8.08,10.3-8.17,5.41-.1,8,3.87,10.15,8.26,5.21,10.65,10.75,21.15,15.79,31.88,2.16,4.6,4.72,7.1,10.2,7.67,11.29,1.18,22.48,3.33,33.7,5.12,5.32.84,10.9,1.49,13,7.65,2,6-2,9.55-5.69,13.18-8.45,8.33-16.74,16.82-25.41,24.91-3.32,3.09-4.12,6.1-3.31,10.44,2.29,12.35,4.09,24.78,6.23,37.15.82,4.72.23,8.72-3.86,11.8s-7.78,1.64-11.66-.43c-11.48-6.12-23.07-12-34.5-18.26a8.49,8.49,0,0,0-9.07,0c-11.83,6.44-23.74,12.76-35.76,18.85C779.46,267.09,772.35,262.47,772.58,253.3Z"/><path d="M890.36,111.26a4.36,4.36,0,0,1-4-4.18C884.84,91,876,82.42,860.08,80.83a4.16,4.16,0,0,1,0-8.29C876,70.94,884.84,62.4,886.33,46.3c.19-2.07,1.48-4.17,4-4.13s3.78,2,4,4.17c1.46,16.12,10.43,24.56,26.3,26.2,2.28.24,3.93,1.62,3.93,4.13s-1.63,3.9-3.91,4.14c-15.84,1.67-24.77,10-26.38,26.18C893.94,110,892,111.24,890.36,111.26Z"/><path d="M938.9,167.23a8.53,8.53,0,0,1-2.07-1.74,7.77,7.77,0,0,1-1.17-3.24c-1.09-11.43-7.1-17.79-18.72-18.85-2.18-.2-4.87-1-4.73-4.1.13-2.65,2.54-3.39,4.5-3.59,11.37-1.18,17.92-7,18.91-18.67.19-2.22.84-5.08,3.87-4.89,2.46.16,2.82,2.74,3.37,4.75a8.34,8.34,0,0,1,.34,1.35c.92,10.44,6.55,16.08,17,17.17,2.59.27,6.21.57,6.06,4.33-.12,3.2-3.41,3.63-5.83,3.85-10.88,1-16.26,7.08-17.42,17.64C942.77,163.68,942.19,166.34,938.9,167.23Z"/><path d="M437.52,180.78C559,186.42,682.81,235.12,766.31,358.92c90.16,133.68,61.91,316.2-64.38,417.8-24.59,19.78-36.8,39.61-33.64,71.21,2.37,23.67,2.8,48.06-2.67,71.88-7.24,31.58-27.44,51.47-58.41,58.68-26.25,6.12-53.5,2.47-80.32,2-12.38-.2-14.38-9.58-14.57-19.28-.35-17.42-.1-34.86-.6-52.27-.44-15-6.53-26.88-23.53-26.19-15.58.64-20.59,12.19-20.7,26.19-.14,16.59-.45,33.19-.28,49.79.15,15.17-5.8,23.07-22.42,22.45-21-.78-42-.59-63-.1-15.29.36-21-7-20.92-21.23.13-17.43.05-34.86-.53-52.27-.47-14.08-6.91-25-22.3-24.91s-21.55,10.85-21.75,25.14c-.22,16.6-.63,33.2-.28,49.79s-6.23,24.5-23.87,23.62c-18.43-.91-37,.37-55.39-.45-45.06-2-75.22-31.47-77.24-76-1.09-24-1.53-48.2,0-72.17,1.32-20.53-7-33.23-22.85-45.92C56.07,722.13,9.22,638.64,8.72,535.29,8.09,405,73.38,309.85,183.4,243.27,253.68,200.74,331,180.64,437.52,180.78ZM165,580.66c-.14,54,43.14,98.15,96.4,98.28,54.08.13,99.7-45.35,99.19-98.88-.51-52.55-45.35-96.71-98.54-97S165.18,526.73,165,580.66Zm302.4-1.21c-.67,53.7,42.21,98.49,95.23,99.47,53.25,1,100.28-44.74,100.44-97.66.16-52.07-44.42-97.05-97.36-98.22C513.26,481.87,468.1,526.16,467.44,579.45Z"/></svg>