<svg id="Слой_1" data-name="Слой 1" xmlns="http://www.w3.org/2000/svg" viewBox="0 0 1000 1000"><path d="M931.25,205.86c.53-7.35-3.75-11-8.81-13.89-8.92-5.1-18.65-8.16-28.56-10.66-14.31-3.61-28.62-7.35-42.24-13-27.68-11.56-39.7-34.91-31.17-61.44,7-21.87,24.83-31.58,45.66-36.22,6.85-1.53,9.9-3.69,9-10.84a43.78,43.78,0,0,1,.19-11.26,15.26,15.26,0,0,1,15.47-13.57c7.93.15,14,5.85,15,14.1.21,1.86.15,3.75.19,5.63.36,17.16-2.88,13.6,15.5,17.23,3.68.73,7.43,1.07,11.11,1.82,9.13,1.84,15.29,10.43,13.63,18.82s-9.4,13.37-18.87,12.09c-17.2-2.34-34.16-7.56-51.84-4-7.22,1.45-14,3.78-19.87,8.3-9.57,7.41-9.11,19.81,1.09,26.25,11.74,7.4,25,10.9,38.32,14.16s26.48,6.94,38.78,13.11c17.4,8.73,28.43,22.05,28.52,42.29.09,20.53-8.73,36.17-27,46.11a66.54,66.54,0,0,1-23.56,7.79c-4.54.57-6,2.5-5.82,6.74a99,99,0,0,1-.18,12.89c-.75,8.32-6.82,14-14.76,14.27s-14.87-5.7-15.73-14.2a65.22,65.22,0,0,1-.12-12.88c.52-5.15-1.81-7.14-6.49-7.95A190.37,190.37,0,0,1,831.5,247c-11.08-4.36-15.32-12.67-11.58-22,3.38-8.43,12.46-11.3,23.14-7.33,18.73,7,37.75,12.29,58.08,10.83,7.08-.51,13.79-2,20-5.46C928.06,219.15,931.73,213.32,931.25,205.86Z"/><path d="M437.52,180.78C559,186.42,682.81,235.12,766.31,358.92c90.16,133.68,61.91,316.2-64.38,417.8-24.59,19.78-36.8,39.61-33.64,71.21,2.37,23.67,2.8,48.06-2.67,71.88-7.24,31.58-27.44,51.47-58.41,58.68-26.25,6.12-53.5,2.47-80.32,2-12.38-.2-14.38-9.58-14.57-19.28-.35-17.42-.1-34.86-.6-52.27-.44-15-6.53-26.88-23.53-26.19-15.58.64-20.59,12.19-20.7,26.19-.14,16.59-.45,33.19-.28,49.79.15,15.17-5.8,23.07-22.42,22.45-21-.78-42-.59-63-.1-15.29.36-21-7-20.92-21.23.13-17.43.05-34.86-.53-52.27-.47-14.08-6.91-25-22.3-24.91s-21.55,10.85-21.75,25.14c-.22,16.6-.63,33.2-.28,49.79s-6.23,24.5-23.87,23.62c-18.43-.91-37,.37-55.39-.45-45.06-2-75.22-31.47-77.24-76-1.09-24-1.53-48.2,0-72.17,1.32-20.53-7-33.23-22.85-45.92C56.07,722.13,9.22,638.64,8.72,535.29,8.09,405,73.38,309.85,183.4,243.27,253.68,200.74,331,180.64,437.52,180.78ZM165,580.66c-.14,54,43.14,98.15,96.4,98.28,54.08.13,99.7-45.35,99.19-98.88-.51-52.55-45.35-96.71-98.54-97S165.18,526.73,165,580.66Zm302.4-1.21c-.67,53.7,42.21,98.49,95.23,99.47,53.25,1,100.28-44.74,100.44-97.66.16-52.07-44.42-97.05-97.36-98.22C513.26,481.87,468.1,526.16,467.44,579.45Z"/></svg>