<svg id="Слой_1" data-name="Слой 1" xmlns="http://www.w3.org/2000/svg" viewBox="0 0 1000 1000"><path d="M437.52,180.78C559,186.42,682.81,235.12,766.31,358.92c90.16,133.68,61.91,316.2-64.38,417.8-24.59,19.78-36.8,39.61-33.64,71.21,2.37,23.67,2.8,48.06-2.67,71.88-7.24,31.58-27.44,51.47-58.41,58.68-26.25,6.12-53.5,2.47-80.32,2-12.38-.2-14.38-9.58-14.57-19.28-.35-17.42-.1-34.86-.6-52.27-.44-15-6.53-26.88-23.53-26.19-15.58.64-20.59,12.19-20.7,26.19-.14,16.59-.45,33.19-.28,49.79.15,15.17-5.8,23.07-22.42,22.45-21-.78-42-.59-63-.1-15.29.36-21-7-20.92-21.23.13-17.43.05-34.86-.53-52.27-.47-14.08-6.91-25-22.3-24.91s-21.55,10.85-21.75,25.14c-.22,16.6-.63,33.2-.28,49.79s-6.23,24.5-23.87,23.62c-18.43-.91-37,.37-55.39-.45-45.06-2-75.22-31.47-77.24-76-1.09-24-1.53-48.2,0-72.17,1.32-20.53-7-33.23-22.85-45.92C56.07,722.13,9.22,638.64,8.72,535.29,8.09,405,73.38,309.85,183.4,243.27,253.68,200.74,331,180.64,437.52,180.78ZM165,580.66c-.14,54,43.14,98.15,96.4,98.28,54.08.13,99.7-45.35,99.19-98.88-.51-52.55-45.35-96.71-98.54-97S165.18,526.73,165,580.66Zm302.4-1.21c-.67,53.7,42.21,98.49,95.23,99.47,53.25,1,100.28-44.74,100.44-97.66.16-52.07-44.42-97.05-97.36-98.22C513.26,481.87,468.1,526.16,467.44,579.45Z"/><path d="M809.07,115c25.77.92,49.29,3.91,71.69,12.93,7.51,3,14.48,7,19.85,13.25,8.19,9.53,8,19.68-.8,28.69-6.86,7-15.34,11.7-24.57,14.75q-63.32,20.9-126.92.73A68.7,68.7,0,0,1,725,173c-13.37-11.09-13.45-24.93.17-35.86,10.44-8.38,22.76-12.86,35.68-15.71,7.82-1.73,15.69-3.44,23.62-4.46C793.24,115.89,802.09,115.56,809.07,115Z"/><path d="M897.2,113.29c-3.89.29-6.69.28-9.59-.9C861.4,101.72,834,98.09,805.88,98.68c-10.74.22-22.1-8.1-25.53-18.35-2.84-8.46.91-17.41,10.69-24.73,12.76-9.55,27.62-13.87,43-16.73,33.13-6.16,66-5.27,98.52,3.94,10.11,2.87,19.71,7,27.94,13.71,13.87,11.32,13.88,25.3-.13,36.4-14.32,11.35-31.52,15.51-49,18.58C906.39,112.38,901.43,114,897.2,113.29Z"/><path d="M715.48,237.9c63.86,30.39,127,30.2,190.29.27,3.41,17.87-1.26,28.13-17.65,37.35-15.2,8.55-32,12.2-49,14.32-29,3.6-57.72,2.13-85.86-6.17a105.26,105.26,0,0,1-17.82-7.19C717.51,267.34,712.88,257.93,715.48,237.9Z"/><path d="M715.18,189.54c63.7,30.3,126.8,30.48,190.18.45,4.11,12.48,1.13,23.47-9.53,31.81-13.46,10.52-29.45,15.14-45.84,18-32,5.69-63.93,4.93-95.36-4.23a114.26,114.26,0,0,1-15.07-5.45C718.59,220.69,713.78,212.51,715.18,189.54Z"/><path d="M913.05,128.87c19.58-3.68,37.17-8.83,53-18.75,3-1.87,4.49-2.31,5,2.16,1.52,14.41-2.9,25.66-16,32.95a116.28,116.28,0,0,1-25.86,10.56c-2,.54-4.64,2-5-1.46A44.85,44.85,0,0,0,913.05,128.87Z"/><path d="M924.05,189.74c0-14.34,0-14.26,13.51-18.49,10-3.12,19.61-7.05,28.38-12.8,3.87-2.54,4.64-1.46,5.12,2.76,1.63,14.35-3.58,24.94-16.1,32.16-7.69,4.43-15.87,7.47-24.23,10.31-5.67,1.93-7.22.35-6.73-5.12C924.26,195.64,924.05,192.68,924.05,189.74Z"/></svg>