<svg id="Слой_1" data-name="Слой 1" xmlns="http://www.w3.org/2000/svg" viewBox="0 0 1000 1000"><path d="M132.65,943.15c9.28-55.95,18.4-115.13,29.25-174,3.55-19.23,0-32.63-14.67-46.43C106.59,684.59,67.8,644.47,27.81,605.63,12.72,591,3.23,575.1,9.1,553.4c6.21-23,25.35-28.52,45.06-31.78,55.9-9.24,111.76-19,168-25.8,19.67-2.38,28.53-11.21,36.21-27.47,23.36-49.46,48.27-98.19,71.93-147.51,9.56-19.93,22.46-35.87,45.74-36.27,24-.41,35.5,17.18,45.05,36.68,23.15,47.29,47.76,93.88,70.12,141.53,9.58,20.41,21,31.55,45.27,34.08,50.13,5.22,99.81,14.77,149.64,22.7,23.62,3.76,48.4,6.62,57.65,34,9,26.49-8.86,42.41-25.24,58.54C681,649,644.18,686.74,605.68,722.62,590.92,736.38,587.39,749.73,591,769c10.18,54.8,18.15,110,27.67,164.92,3.64,21,1,38.72-17.15,52.4s-34.55,7.27-51.77-1.91c-51-27.2-102.41-53.49-153.15-81.09-14.29-7.78-25.94-7.82-40.28,0C303.75,931.89,250.9,960,197.53,987,163.22,1004.37,131.66,983.88,132.65,943.15Z"/><path d="M655.59,312.54c-11.22-1.11-17.05-9.32-17.9-18.57-6.62-71.4-45.74-109.48-116.53-116.54-10.26-1-17.12-7-17.15-18.36s6.77-17.4,17-18.43c70.7-7.12,110-45,116.6-116.47.85-9.23,6.6-18.53,17.84-18.36,11,.18,16.76,8.9,17.63,18.51,6.47,71.59,46.28,109.05,116.75,116.34,10.1,1.05,17.42,7.16,17.45,18.31s-7.24,17.32-17.36,18.39c-70.32,7.4-110,44.58-117.14,116.24C671.48,307.13,662.78,312.45,655.59,312.54Z"/><path d="M871.09,561c-3.22-2.58-7.24-4.51-9.2-7.7a35,35,0,0,1-5.22-14.38c-4.8-50.77-31.52-79-83.09-83.72-9.66-.88-21.64-4.29-21-18.16.55-11.78,11.25-15.06,19.95-16,50.49-5.23,79.56-30.93,84-82.88.83-9.86,3.74-22.57,17.2-21.7,10.9.7,12.53,12.13,15,21.09a35.55,35.55,0,0,1,1.52,6c4.09,46.34,29,71.37,75.55,76.21,11.47,1.19,27.57,2.52,26.91,19.25-.56,14.19-15.13,16.1-25.88,17.07-48.3,4.35-72.22,31.44-77.34,78.33C888.24,545.28,885.69,557.1,871.09,561Z"/></svg>