<svg id="Слой_1" data-name="Слой 1" xmlns="http://www.w3.org/2000/svg" viewBox="0 0 1000 1000"><path d="M765,139.62C696.89,54.13,655,55,583.89,137.12c-14,16.2-22.2,16.15-35.2-.38-24.69-31.39-50.43-62-76.92-91.9C427.6-5,378.92-6.85,330.67,38.72c-60.76,57.41-111.34,123.21-154.16,194.6C108.84,346.18,56.81,462.8,68.72,600.77c18,208.2,196.83,384.44,405.49,392.89,256.87,10.41,457.45-182,458.78-471.58C925.93,395.85,861.4,260.6,765,139.62ZM524.32,809.06c-8.17.52-16.4.06-24.6.06-134.39.7-236.37-99-213.86-238.8,10.58-65.68,53.08-116.93,96.84-165,18.28-20.06,37.74-11,52.47,7,34.38,42,67.84,84.85,101.91,127.17,30.64,38.06,44.95,37.94,76.69.1,6.59-7.85,13.23-15.68,20.26-23.14,31-32.91,52-28.47,69,14.43C755.43,663.25,667.71,799.88,524.32,809.06Z"/></svg>