<svg id="Слой_1" data-name="Слой 1" xmlns="http://www.w3.org/2000/svg" viewBox="0 0 1000 1000"><path d="M799.32,62.54c-51,0-92.87,31.47-107.25,80.74-1.35,4.61-3,8-7.91,10.19-10.17,4.62-15,13.43-14.94,24.47,0,11.5,5.64,20.38,16,24.86,5.8,2.52,8.2,6.17,10.33,11.51,12.56,31.48,35.12,52.74,67,63.9,5.14,1.8,8.66,3.87,11.32,9.2,5,9.94,13.48,15.39,25.26,15.28s20-5.82,25-15.78c2.3-4.62,5.2-6.73,9.76-8.39,45.3-16.54,71-48.63,75.68-96.87.6-6.26,2.3-8.77,8.7-8.12,4.86.49,9.81.1,14.72.1,12.81,0,12.81,0,11.8,13.18-5.27,68.42-60.92,124.46-129.55,132.37C737,328.19,667,272.62,654.34,198.43,641.43,122.6,688.77,49.27,763.58,31c44.23-10.8,85.19-2.47,122,24.38,5.57,4.06,8.93,4.62,13.6-.84,5.37-6.28,11.51-11.92,17.5-17.64,7-6.72,14.84-7.25,20.29-1.66,5.71,5.87,5.36,13.17-1.74,20.31q-47.71,48-95.74,95.71c-4.62,4.58-6.91,8.52-5.51,15.75,4.15,21.37-10.93,40.3-32.84,42.74-18.16,2-36.36-13.95-38.24-33.56-1.91-20,14.66-38.44,35.36-39.34,1.82-.08,3.89-.22,5.45.51,7.88,3.69,12.73-.19,18.29-5.49,6.81-6.49,3.54-8.29-2.89-10.73-30-11.4-64,4.69-73.56,35-10,31.83,8.2,63.61,41,71.51,31.12,7.48,62.5-13.22,67.21-45.29,1.17-7.93,4.1-9.55,11-8.89a65.9,65.9,0,0,0,15.63,0c9.21-1.34,10.1,3.25,9.09,10.6-5,36.48-25,61.08-58.76,75-4,1.66-6.74,1.63-10.17-2.26-12.31-13.92-31.14-14-43.43-.16-3.36,3.77-6,4.14-10.16,2.56-24.87-9.46-42.27-26.55-52.68-51-1.71-4-1.05-6.3,2.14-9.43,13-12.79,12.58-31.06-1.38-42.71-4.53-3.79-4.61-6.82-3-11.74C730.21,89.11,795.44,64.85,846,94.76c6.88,4.07,17.29.21,20-7.5,1.35-3.86-2.37-4.51-4.29-5.81A107.92,107.92,0,0,0,799.32,62.54Z"/><path d="M485.06,954.49c-83.75,0-167.51.58-251.26-.14C110,953.3,19,855,31.35,734.59c7.42-72.54,45.14-126,110.63-158.35,14.87-7.35,21.64-14.72,22.57-32.51,6.17-118,98.95-209.18,217-210.37,75.72-.76,137.67,31.81,182.34,93.71,9.5,13.16,15.73,16,31.37,8.29,46.65-22.88,92.67-17.13,134,13.21,41.78,30.64,59.87,74.18,51.18,124.79-4.31,25.08,1.43,32.61,24.73,40.74C877.36,639.28,923.37,717.26,915.21,794c-8.8,82.79-66.22,144.31-145.8,156.95A291.39,291.39,0,0,1,723,954.55Q604,954.36,485.06,954.49Zm23-297.21,8.22-6c12.63,15,24.4,30.9,38.08,44.91,18.18,18.61,39.88,19.63,54.73,4.49s13.54-34.34-4.66-52.92Q554.67,597,503.89,547.2c-22.15-21.73-39.6-21.79-61.53-.26q-49.94,49-99,99c-19.71,20-21.79,39-6.85,54.52,15.15,15.77,36.39,13.65,56.61-5.16,13.74-12.77,25-28.35,44.47-40.34,0,35.63-.06,68.08,0,100.53.06,25.92-.69,51.9.74,77.75,1.19,21.49,14.52,33.22,34.15,33.42,20.63.21,33.5-12.2,35.26-34.72.69-8.84.29-17.77.3-26.66Q508.07,731.26,508.05,657.28Z"/></svg>