<svg id="Слой_1" data-name="Слой 1" xmlns="http://www.w3.org/2000/svg" viewBox="0 0 1000 1000"><path d="M485.06,954.49c-83.75,0-167.51.58-251.26-.14C110,953.3,19,855,31.35,734.59c7.42-72.54,45.14-126,110.63-158.35,14.87-7.35,21.64-14.72,22.57-32.51,6.17-118,98.95-209.18,217-210.37,75.72-.76,137.67,31.81,182.34,93.71,9.5,13.16,15.73,16,31.37,8.29,46.65-22.88,92.67-17.13,134,13.21,41.78,30.64,59.87,74.18,51.18,124.79-4.31,25.08,1.43,32.61,24.73,40.74C877.36,639.28,923.37,717.26,915.21,794c-8.8,82.79-66.22,144.31-145.8,156.95A291.39,291.39,0,0,1,723,954.55Q604,954.36,485.06,954.49Zm23-297.21,8.22-6c12.63,15,24.4,30.9,38.08,44.91,18.18,18.61,39.88,19.63,54.73,4.49s13.54-34.34-4.66-52.92Q554.67,597,503.89,547.2c-22.15-21.73-39.6-21.79-61.53-.26q-49.94,49-99,99c-19.71,20-21.79,39-6.85,54.52,15.15,15.77,36.39,13.65,56.61-5.16,13.74-12.77,25-28.35,44.47-40.34,0,35.63-.06,68.08,0,100.53.06,25.92-.69,51.9.74,77.75,1.19,21.49,14.52,33.22,34.15,33.42,20.63.21,33.5-12.2,35.26-34.72.69-8.84.29-17.77.3-26.66Q508.07,731.26,508.05,657.28Z"/><path d="M800,119.51c27.21,1,52,4.13,75.7,13.66,7.93,3.19,15.3,7.39,21,14,8.64,10.07,8.42,20.79-.85,30.3-7.24,7.44-16.19,12.36-25.95,15.58q-66.84,22-134,.77a72.34,72.34,0,0,1-24.59-13c-14.13-11.71-14.2-26.32.17-37.86,11-8.85,24-13.58,37.68-16.59,8.26-1.82,16.56-3.63,24.94-4.71C783.28,120.42,792.62,120.07,800,119.51Z"/><path d="M893.05,117.67c-4.1.31-7.06.3-10.13-1-27.67-11.26-56.6-15.1-86.29-14.48-11.34.24-23.34-8.55-27-19.37-3-8.93,1-18.39,11.3-26.11,13.47-10.08,29.16-14.65,45.39-17.67,35-6.51,69.7-5.56,104,4.17,10.68,3,20.81,7.37,29.5,14.47,14.65,12,14.66,26.72-.13,38.44-15.12,12-33.28,16.37-51.74,19.62C902.76,116.71,897.52,118.4,893.05,117.67Z"/><path d="M701.17,249.25c67.43,32.1,134.09,31.89,200.93.29,3.6,18.86-1.33,29.7-18.63,39.44-16.06,9-33.75,12.87-51.75,15.11-30.59,3.81-60.94,2.25-90.65-6.51A111.06,111.06,0,0,1,722.25,290C703.32,280.33,698.42,270.41,701.17,249.25Z"/><path d="M700.86,198.19c67.25,32,133.88,32.18,200.81.47,4.34,13.17,1.2,24.79-10.06,33.59-14.22,11.11-31.1,16-48.41,19.06-33.83,6-67.51,5.2-100.69-4.47a119.45,119.45,0,0,1-15.92-5.75C704.45,231.08,699.37,222.44,700.86,198.19Z"/><path d="M909.79,134.13c20.67-3.89,39.24-9.33,56-19.81,3.15-2,4.75-2.43,5.24,2.28,1.61,15.23-3.06,27.1-16.93,34.79a122.53,122.53,0,0,1-27.3,11.16c-2.09.57-4.9,2.06-5.26-1.54A47.35,47.35,0,0,0,909.79,134.13Z"/><path d="M921.4,198.4c0-15.15,0-15.06,14.27-19.52,10.52-3.3,20.71-7.45,30-13.52,4.09-2.68,4.9-1.55,5.41,2.92,1.72,15.14-3.78,26.32-17,33.95-8.12,4.68-16.76,7.89-25.6,10.89-6,2-7.61.37-7.1-5.41C921.63,204.63,921.4,201.5,921.4,198.4Z"/></svg>