<svg id="Слой_1" data-name="Слой 1" xmlns="http://www.w3.org/2000/svg" viewBox="0 0 1000 1000"><path d="M485.06,954.49c-83.75,0-167.51.58-251.26-.14C110,953.3,19,855,31.35,734.59c7.42-72.54,45.14-126,110.63-158.35,14.87-7.35,21.64-14.72,22.57-32.51,6.17-118,98.95-209.18,217-210.37,75.72-.76,137.67,31.81,182.34,93.71,9.5,13.16,15.73,16,31.37,8.29,46.65-22.88,92.67-17.13,134,13.21,41.78,30.64,59.87,74.18,51.18,124.79-4.31,25.08,1.43,32.61,24.73,40.74C877.36,639.28,923.37,717.26,915.21,794c-8.8,82.79-66.22,144.31-145.8,156.95A291.39,291.39,0,0,1,723,954.55Q604,954.36,485.06,954.49Zm23-297.21,8.22-6c12.63,15,24.4,30.9,38.08,44.91,18.18,18.61,39.88,19.63,54.73,4.49s13.54-34.34-4.66-52.92Q554.67,597,503.89,547.2c-22.15-21.73-39.6-21.79-61.53-.26q-49.94,49-99,99c-19.71,20-21.79,39-6.85,54.52,15.15,15.77,36.39,13.65,56.61-5.16,13.74-12.77,25-28.35,44.47-40.34,0,35.63-.06,68.08,0,100.53.06,25.92-.69,51.9.74,77.75,1.19,21.49,14.52,33.22,34.15,33.42,20.63.21,33.5-12.2,35.26-34.72.69-8.84.29-17.77.3-26.66Q508.07,731.26,508.05,657.28Z"/><path d="M971.23,40.4c-2.58,14-5.34,30.54-8.8,46.95-1.78,8.43-7.3,14.94-13.35,21Q892.8,164.15,836.72,220.19c-4.46,4.47-7,5.09-11.68.21q-23.28-24.21-47.47-47.5c-4.42-4.29-4.28-6.77,0-11.05q57.15-57,113.84-114.36c10.37-10.54,23.39-13.39,37-15.66q15.15-2.53,30.27-5.12C967.25,25.25,971.77,29.21,971.23,40.4Z"/><path d="M693.6,250.26a39.69,39.69,0,0,0,4.27,1.34c7.2,1.26,14.79,8.52,21,4.46,9.43-6.17,17-15.25,25-23.53,3.32-3.46,0-6.95-2-10-8.54-13-17.2-25.85-25.68-38.85-5.68-8.7,2.87-26,13.17-26.79,3.42-.24,5.71,2.1,7.91,4.31q49.75,49.71,99.5,99.43c5.21,5.2,5.47,10.09.08,15.2a42.58,42.58,0,0,0-4.58,4.63c-5.17,6.65-10.49,7.07-17.45,2-12.32-8.9-25.33-16.84-37.72-25.65-6.15-4.38-11.1-4.9-15.93,1.46A23.6,23.6,0,0,1,756.6,263c-13.4,10-19.13,21.46-10.29,37.91,3.46,6.43-3,15.84-12.41,21.37-7,4.16-10.19-1.82-13.92-5.47-12.66-12.37-25.1-25-37.6-37.49-10.27-10.29-10.27-11.88.41-22.38C686,253.76,688.73,249.49,693.6,250.26Z"/></svg>