<svg id="Слой_1" data-name="Слой 1" xmlns="http://www.w3.org/2000/svg" viewBox="0 0 1000 1000"><path d="M485.06,954.49c-83.75,0-167.51.58-251.26-.14C110,953.3,19,855,31.35,734.59c7.42-72.54,45.14-126,110.63-158.35,14.87-7.35,21.64-14.72,22.57-32.51,6.17-118,98.95-209.18,217-210.37,75.72-.76,137.67,31.81,182.34,93.71,9.5,13.16,15.73,16,31.37,8.29,46.65-22.88,92.67-17.13,134,13.21,41.78,30.64,59.87,74.18,51.18,124.79-4.31,25.08,1.43,32.61,24.73,40.74C877.36,639.28,923.37,717.26,915.21,794c-8.8,82.79-66.22,144.31-145.8,156.95A291.39,291.39,0,0,1,723,954.55Q604,954.36,485.06,954.49Zm23-297.21,8.22-6c12.63,15,24.4,30.9,38.08,44.91,18.18,18.61,39.88,19.63,54.73,4.49s13.54-34.34-4.66-52.92Q554.67,597,503.89,547.2c-22.15-21.73-39.6-21.79-61.53-.26q-49.94,49-99,99c-19.71,20-21.79,39-6.85,54.52,15.15,15.77,36.39,13.65,56.61-5.16,13.74-12.77,25-28.35,44.47-40.34,0,35.63-.06,68.08,0,100.53.06,25.92-.69,51.9.74,77.75,1.19,21.49,14.52,33.22,34.15,33.42,20.63.21,33.5-12.2,35.26-34.72.69-8.84.29-17.77.3-26.66Q508.07,731.26,508.05,657.28Z"/><path d="M974.82,108.12c-1.83,62.67-20.25,119.14-63,166.41-19,21-41.92,36.32-67.23,48.57-7,3.38-12.8,2.55-19.41-.51-47.76-22.06-82.1-57.63-104.4-104.79A259,259,0,0,1,695.92,89.28c.37-5.84,2.43-8.79,7.87-10.88q63.44-24.3,126.65-49.12c3.82-1.49,7.11-.94,10.78.49,40.45,15.76,80.85,31.64,121.5,46.85,8.89,3.33,13.58,7.57,12.21,17.46C974.29,98.67,974.82,103.44,974.82,108.12Zm-35.29,6.79c2-5.86-2.33-9.18-10.07-12-28.4-10.47-56.52-21.72-84.75-32.66C834.6,66.3,834.5,66.34,834.5,77.3q0,99.45,0,198.89c0,1.26.08,2.51,0,3.76-.33,5.42,1.59,6.77,6.51,4,8.47-4.74,16.81-9.69,24.4-15.74C913.75,229.7,933.21,177,939.53,114.91Z"/></svg>