<svg id="Слой_1" data-name="Слой 1" xmlns="http://www.w3.org/2000/svg" viewBox="0 0 1000 1000"><path d="M770.92,888.66c-14.39,1.36-25.26-6.76-34.46-16C711,847.29,684,840.86,652.59,861.58c-5.76,3.8-12.91,5.81-19.69,7.67-24.67,6.77-35.35,22.63-37.74,48.2C590,972.31,584.24,977,528.84,982.84c-27.29,2.88-54.3.08-81.5-2.8-26.78-2.84-39-16.82-43-42.13-9.09-56.35-34.79-82.3-88.93-91.7-18.35-3.19-30.25,8.54-43,18.31-41.84,32.09-50.85,31.89-91.05-2.87C160.62,843.77,142.1,823.8,125,802.47s-16.6-41.4-.14-63.25c31.1-41.28,29.75-88.32-2.55-127-12.43-14.88-31-13.3-47.54-15.39-40.16-5.07-49.66-14-54.21-54.82-3.38-30.25-2.33-60.41.51-90.7,2.81-30,18.22-45.06,48.1-48,45.24-4.45,83-46,84.25-91.4.5-18-12.59-29.22-21.86-42.08-28.15-39-28.35-51.47,4.41-86.56,18.55-19.87,39.1-37.92,59.15-56.34,21.09-19.36,42.09-19.13,65.15-1.39,40.77,31.37,88.67,29.14,126.46-3.7,14.75-12.82,13.39-30.95,16-47.54,6.94-44.69,11.71-50,56.27-56,29.17-3.94,58.16-2.43,87.49.84s42.41,18.48,46.43,46.24c6.75,46.67,51.69,86.24,97.42,86.59,18.81.14,30.84-13.65,44.39-23.85,31.67-23.86,48.19-24.28,77,2.45,22.16,20.53,42.67,42.91,63.14,65.18,18.67,20.3,16.89,41,.7,62.87-32.48,43.82-30.73,85.41,4,129.42C890.9,402.4,907.29,402.39,923.5,404c47.21,4.59,57.3,15.59,57.87,63,.33,27.26.28,54.56-.76,81.79-1.08,28.38-16.3,44-45,47.5-49.08,6-85.69,45.38-88.93,94.57-1.19,18.13,11,29.67,20.76,42.35,28.77,37.48,28.4,51.55-4.75,85.79-18.94,19.56-38.89,38.18-58.8,56.79C794.91,884.23,784.22,889.92,770.92,888.66ZM500.6,347.53C415.42,347.65,346.07,417,347,501.13c.88,84.59,70,151.55,156.05,151.19,83.46-.36,151.74-68.69,151.94-152.08C655.15,415.73,586.11,347.42,500.6,347.53Z"/></svg>