<svg id="Слой_1" data-name="Слой 1" xmlns="http://www.w3.org/2000/svg" viewBox="0 0 1000 1000"><path d="M497.33,985.68q-188.38,0-376.78,0C40.48,985.57,1.6,936.33,20.91,858.56q64.41-259.45,129.7-518.69c14.92-59.31,45-82.21,106.33-82.42,1,0,2,0,3,0,21.21-.46,47.84,6.67,62.1-3.52,14.09-10.07-3-36.09-3.06-55.71-.08-101.66,83.81-186.7,183.12-183.95,102.35,2.82,180.65,86.46,176.8,189.21-.45,12.09-1.52,24.42-4.46,36.09-3.45,13.68.66,18.32,14.27,18,21.26-.52,42.55-.48,63.81,0,47.18,1.05,80.79,24.31,92.17,69,46.21,181.53,92,363.17,136,545.23,15.57,64.38-26.74,113.49-94.48,113.75C756.63,986,627,985.68,497.33,985.68Zm2.38-728.25c37.69-.07,63.31-25.58,62.82-62.57-.47-35.69-25.43-60.23-61.69-60.66-38-.45-64.12,24.31-64.43,61.05S462,257.49,499.71,257.43Z"/></svg>