<svg id="Слой_1" data-name="Слой 1" xmlns="http://www.w3.org/2000/svg" viewBox="0 0 1000 1000"><path d="M820.48,176.71c-10.73-24-20.46-45.55-30.05-67.19-3.52-8-7.26-15.19-17.76-15-10.34.16-14.25,7.1-17.56,15.27-5.24,13-11.07,25.66-16.11,38.69-2.46,6.33-5.68,9.33-13,9.15-19.9-.51-39.83-.39-59.74-.05-5.9.1-8.51-1.75-10.21-7.53-11.67-39.58,5.33-84.92,40.57-107.15,35.46-22.36,81.1-18,112.32,10.81a24.93,24.93,0,0,1,3.74,3.66c5.07,7.23,9.07,5.23,14.61-.24C857.76,27,899.66,19.85,936,39.09c43.71,23.13,58,67.75,47.29,112.46-1.09,4.52-3.44,6-8.08,6q-37.72-.3-75.46,0c-5,0-7.67-2.22-9.71-6.31-4.2-8.44-8.57-16.8-12.87-25.19-3.25-6.36-7.94-10.49-15.53-10.51-8,0-13,4.27-16.37,11C837.36,142.42,829.53,158.39,820.48,176.71Z"/><path d="M960.64,189.44c-1,5.17-4.28,6.88-6.73,9.16Q897.66,251.24,841.3,303.74c-15.48,14.44-27.49,14.5-42.82.17Q739.94,249.16,681.4,194.36c-1-.9-1.65-2.1-3.81-4.92,13.94,0,26.36-.93,38.6.19,27.85,2.53,48.5-5.53,55.42-35.35,5,1.8,5.18,5.68,6.49,8.55q11.92,26.23,23.44,52.64c3.63,8.3,7.63,15.83,18.41,15.92,10.29.08,14.33-7,18.13-14.83,7.46-15.31,15.12-30.52,23.85-48.09,11.33,21.33,29.65,21.73,48.72,21.08C927,189,943.46,189.44,960.64,189.44Z"/><path d="M672.55,513.16c-36-5.48-36.13-5.47-37.65-40.46-3.28-75.12-25.42-143.67-71.12-204.94,43.71,15.05,82.21,37.94,113.79,71,37.09,38.85,66.9,82.72,83.12,134.61,7.53,24.08,4.2,31-19.46,36.6-9.51,2.24-14.42,8.3-20,14.37-58.71,64.36-117.1,129-176,193.14-9.16,10-10.49,18.81-9.15,32.62,5.26,54.48,5.1,109.42.65,163.9-2.93,35.8-30.88,57.87-68.95,58.83q-65.9,1.67-131.85,0c-43.71-1.14-71.12-28.43-70.6-72.09.64-53.8-5.67-107.86,4.18-161.39,1.57-8.56-3.86-12.76-8.39-17.76Q170.2,621.43,79.27,521.23a34.47,34.47,0,0,0-21.38-11.71c-14.26-2.39-20.53-11.45-18.16-26.75,12.51-80.61,118.21-194.86,201.15-215.3-15.34,23.42-30.43,45.35-41.5,69.7-21.11,46.44-31.78,95.22-30.19,145.93.69,21.91-4.39,31.74-27.25,27.55-2.62-.48-5.56.77-12,1.81,10.2,11.7,18.39,21.43,26.92,30.84,44,48.56,88.28,96.89,132,145.68,8.47,9.45,16.08,13.68,29.8,10.46,14.71-3.45,30.59-2.76,45.92-2.42,12.17.27,16.16-4.44,16.08-16.2-.36-50.89-.56-101.79.12-152.67.2-14.65-5.6-18.14-19.14-17.92-41.62.69-83.27.07-124.91.37-10.31.07-18-.64-18-14.09.3-75.3,15.47-146,67.13-203.9,69.6-77.91,163-77.5,232.39.95,51.4,58.12,65.42,129.28,66.85,204.27.25,13-7.4,12.73-16.43,12.7-41.64-.13-83.29.6-124.91-.38-15.89-.37-21.39,4-21.06,20.55,1,49.33.82,98.71.08,148-.21,14.27,4.46,18.93,18.52,18.33,16.83-.71,33.93-2.08,50.46,3.56,7.74,2.64,13-1.45,18-7q75.35-83.1,150.93-166C664.27,523.71,667.46,519.41,672.55,513.16Z"/></svg>