<svg id="Слой_1" data-name="Слой 1" xmlns="http://www.w3.org/2000/svg" viewBox="0 0 1000 1000"><path d="M974.85,102.53C973.14,160.8,956,213.3,916.26,257.26c-17.67,19.52-39,33.76-62.51,45.15-6.5,3.15-11.9,2.37-18-.47-44.41-20.51-76.34-53.59-97.07-97.43A240.63,240.63,0,0,1,715.53,85c.33-5.43,2.25-8.18,7.31-10.12q59-22.61,117.76-45.67c3.55-1.38,6.61-.87,10,.46,37.61,14.65,75.18,29.41,113,43.56,8.27,3.09,12.63,7,11.36,16.23C974.35,93.74,974.85,98.17,974.85,102.53ZM942,108.84c1.83-5.45-2.16-8.54-9.36-11.19-26.41-9.73-52.55-20.2-78.8-30.36-9.41-3.65-9.49-3.62-9.5,6.58q0,92.46,0,184.93c0,1.16.08,2.33,0,3.49-.31,5,1.47,6.29,6,3.73a167.15,167.15,0,0,0,22.69-14.63C918.06,215.57,936.15,166.6,942,108.84Z"/><path d="M671.81,513.16c-36.06-5.48-36.13-5.47-37.66-40.46C630.87,397.58,608.74,329,563,267.76c43.71,15.05,82.22,37.94,113.79,71,37.09,38.85,66.9,82.72,83.12,134.61,7.53,24.08,4.21,31-19.45,36.6-9.51,2.24-14.42,8.3-20,14.37-58.7,64.36-117.09,129-176,193.14-9.15,10-10.48,18.81-9.15,32.62,5.27,54.48,5.11,109.42.65,163.9-2.93,35.8-30.88,57.87-68.95,58.83q-65.88,1.67-131.84,0c-43.72-1.14-71.13-28.43-70.61-72.09.64-53.8-5.67-107.86,4.18-161.39,1.58-8.56-3.85-12.76-8.38-17.76Q169.46,621.43,78.53,521.23a34.47,34.47,0,0,0-21.39-11.71C42.88,507.13,36.61,498.07,39,482.77c12.5-80.61,118.21-194.86,201.15-215.3-15.34,23.42-30.43,45.35-41.5,69.7-21.11,46.44-31.78,95.22-30.19,145.93.68,21.91-4.4,31.74-27.25,27.55-2.63-.48-5.57.77-12,1.81,10.19,11.7,18.38,21.43,26.92,30.84,44,48.56,88.27,96.89,132,145.68,8.48,9.45,16.08,13.68,29.8,10.46,14.71-3.45,30.59-2.76,45.93-2.42,12.17.27,16.15-4.44,16.07-16.2-.36-50.89-.55-101.79.13-152.67.19-14.65-5.61-18.14-19.14-17.92-41.63.69-83.28.07-124.92.37-10.31.07-18-.64-18-14.09.3-75.3,15.46-146,67.13-203.9,69.59-77.91,163-77.5,232.39.95,51.4,58.12,65.42,129.28,66.84,204.27.25,13-7.39,12.73-16.42,12.7-41.64-.13-83.3.6-124.91-.38-15.89-.37-21.39,4-21.06,20.55,1,49.33.82,98.71.08,148-.21,14.27,4.46,18.93,18.52,18.33,16.82-.71,33.93-2.08,50.46,3.56,7.74,2.64,12.94-1.45,18-7q75.35-83.1,150.92-166C663.52,523.71,666.71,519.41,671.81,513.16Z"/></svg>