<svg id="Слой_1" data-name="Слой 1" xmlns="http://www.w3.org/2000/svg" viewBox="0 0 1000 1000"><path d="M938.35,47.8c6.78,1,13.66,3.33,17.59,10.63,4.22,7.8,4.2,15.74-.43,23.29-1.91,3.11-4.65,5.76-7.26,8.38Q841.53,196.9,734.76,303.68c-6.49,6.5-13.23,12.32-23.2,10.64-16.12-2.71-23.53-20.78-14.17-34.44a54.58,54.58,0,0,1,6.73-7.39Q810.86,165.69,917.6,58.9C923.25,53.24,929.07,48.33,938.35,47.8Z"/><path d="M780.49,93.05c-.53,23.38-20.74,43.41-43.69,43.28-23.33-.13-43.76-21.12-43.5-44.7s21.37-44.46,44.37-43.83C761.45,48.46,781,69.14,780.49,93.05Z"/><path d="M958.9,270.66c-.1,23.82-20.72,44.48-44,44.09-23.46-.41-43.64-21.44-43.19-45,.44-23.22,20.69-43.45,43.55-43.53C938.73,226.13,959,246.79,958.9,270.66Z"/><path d="M665.17,513.16c-36.06-5.48-36.13-5.47-37.66-40.46C624.23,397.58,602.1,329,556.39,267.76c43.71,15.05,82.22,37.94,113.79,71,37.09,38.85,66.9,82.72,83.13,134.61,7.52,24.08,4.2,31-19.46,36.6-9.51,2.24-14.42,8.3-20,14.37-58.7,64.36-117.09,129-176,193.14-9.15,10-10.48,18.81-9.15,32.62,5.27,54.48,5.11,109.42.65,163.9-2.92,35.8-30.88,57.87-68.94,58.83q-65.9,1.67-131.85,0c-43.71-1.14-71.13-28.43-70.61-72.09.65-53.8-5.67-107.86,4.19-161.39,1.57-8.56-3.86-12.76-8.39-17.76Q162.82,621.43,71.89,521.23A34.47,34.47,0,0,0,50.5,509.52C36.25,507.13,30,498.07,32.35,482.77c12.5-80.61,118.21-194.86,201.15-215.3-15.34,23.42-30.43,45.35-41.5,69.7-21.11,46.44-31.78,95.22-30.19,145.93.69,21.91-4.4,31.74-27.25,27.55-2.62-.48-5.57.77-12,1.81,10.19,11.7,18.39,21.43,26.92,30.84,44,48.56,88.27,96.89,132,145.68,8.48,9.45,16.08,13.68,29.8,10.46C326,696,341.87,696.68,357.21,697c12.17.27,16.16-4.44,16.07-16.2-.36-50.89-.55-101.79.13-152.67.2-14.65-5.6-18.14-19.14-17.92-41.63.69-83.28.07-124.91.37-10.31.07-18-.64-18-14.09.3-75.3,15.46-146,67.13-203.9,69.59-77.91,163-77.5,232.39.95,51.4,58.12,65.42,129.28,66.85,204.27.24,13-7.4,12.73-16.43,12.7-41.64-.13-83.3.6-124.91-.38-15.89-.37-21.39,4-21.06,20.55,1,49.33.82,98.71.08,148-.21,14.27,4.46,18.93,18.52,18.33,16.83-.71,33.93-2.08,50.46,3.56,7.74,2.64,13-1.45,18-7q75.35-83.1,150.92-166C656.89,523.71,660.07,519.41,665.17,513.16Z"/></svg>