<svg id="Слой_1" data-name="Слой 1" xmlns="http://www.w3.org/2000/svg" viewBox="0 0 1000 1000"><path d="M499.59,991.48c-94.89,0-189.78-.3-284.67.16-55.26.27-100.79-18.63-128.11-68.09C59.27,873.69,64.3,824,94.54,775.71c65-103.75,128.82-208.21,193.79-312,16.26-26,24.36-52.9,24-83.72-.95-79.58-.77-159.18,0-238.76.2-21.51-2.4-36.42-28-42.06-22.8-5-31.49-25.09-29.68-47.58,1.84-23,15.28-37.53,38.09-41.73,9.93-1.83,20.32-1.56,30.49-1.57q177.54-.13,355.08,0c7.14,0,14.32-.18,21.42.43,25.38,2.2,42.78,15.15,46.32,40.77,3.77,27.27-10.16,46.68-36.31,52-20.1,4.12-23.73,14.22-23.63,31.69.48,83.67.35,167.34.21,251-.05,28.88,12.14,53.29,26.68,77q94.41,153.93,188.84,307.85c14,22.79,26,46.29,28.69,73.44,7.94,81.6-50.77,147.79-134,148.7C697.55,992.27,598.56,991.44,499.59,991.48Zm.48-371c55.06,0,110.15-1,165.19.41,26.74.66,27-7.78,14.22-26.75-12.49-18.61-22.58-38.88-35.6-57.08-42-58.76-59-123.88-56.81-195.84,2.09-69.28.09-138.68.59-208,.15-20-6.06-30.22-28.06-29.66-40.76,1-81.59.94-122.35,0-20.23-.46-26.91,8.22-26.63,27.41.67,45.88.56,91.78.1,137.66-1.9,187.14,17.74,153.61-88.34,323.75-1.08,1.73-2.05,3.54-3.18,5.23-10.7,15.85-8.3,23.31,12.61,23.07C387.89,620.05,444,620.47,500.07,620.49Z"/></svg>