<svg id="Слой_1" data-name="Слой 1" xmlns="http://www.w3.org/2000/svg" viewBox="0 0 1000 1000"><path d="M7.47,944.45c1.74-20.92,14.67-35.28,28.58-49.18Q176,755.43,315.88,615.46c29.65-29.66,17.5-84.55-23.08-99.36-41.28-15.06-83.31-28.05-125-41.9-18-6-36.23-13-36.18-35.82s18.3-29.76,36.32-35.72c17.47-5.77,34.66-12.62,52.44-17.18,54.6-14,99.79-34.61,125.35-93.26,19-43.66,61-73.87,106.78-92.71,19-7.81,29.06-19.85,34.91-38.91,12.29-40.06,26.1-79.66,39.51-119.38,5.82-17.22,14.24-33,35.4-32.77,20.87.21,29.62,15.63,35.48,32.94,13.76,40.67,27.81,81.26,40.79,122.19,5.3,16.72,14,27.54,30.9,34.79,61.88,26.55,106,72.17,133.51,133.21,7.44,16.55,17.54,26,34.42,31.3,40.94,12.91,81.52,26.94,122.19,40.69,17.2,5.81,33.14,13.94,32.93,35.2s-16.42,29-33.52,34.81c-39.7,13.43-79.29,27.24-119.28,39.71-17.82,5.56-29,14.81-37.05,32.61-27.47,61-71.84,106.43-133.78,132.94-15.6,6.68-24.53,16.37-29.57,32.19-13,40.92-26.92,81.55-40.67,122.24-6.13,18.14-14.46,35.42-37,35.16s-30-18.27-36-36.25C512.35,792.43,499,752.7,486,712.84c-4.59-14.1-11-24.91-25.72-31.92C411.36,657.59,411.64,657,373,695.61Q239.61,829,106.2,962.39c-9.38,9.38-18.32,19.29-30.83,24.9C43.72,1001.46,7.32,978.55,7.47,944.45Zm552.2-341.16c93.07,1,167.54-70.94,168.53-162.8,1-90.57-71.59-165.59-161.4-166.87-94.2-1.34-167.6,68.7-169,161.27C396.4,528.69,467.16,602.3,559.67,603.29Z"/><path d="M562.61,375.5c36.89-.08,63.5,26.8,63.11,63.75-.38,35.57-26.13,61.53-61.65,62.15-36.61.64-64.74-26.23-65.12-62.22S526.06,375.58,562.61,375.5Z"/></svg>