<svg id="Слой_1" data-name="Слой 1" xmlns="http://www.w3.org/2000/svg" viewBox="0 0 1000 1000"><path d="M829.35,650c.6,181.14-148.64,331.84-328.89,332.12-178.42.27-328.6-149.33-329.8-328.52C169.46,472.85,318.43,321.19,498.37,320S828.76,468.84,829.35,650ZM380,781.75c-.16,24.75,11.5,32.55,33.47,22.69,22.88-10.27,45.3-21.7,67.15-34,13.78-7.76,25.47-7.9,39.28,0,20.89,11.94,42.51,22.73,64.37,32.8,25.87,11.92,39.3,2.08,35.35-25.71-3.11-21.87-6.18-43.95-12.11-65.14-5.73-20.49.3-34.25,15.68-47.41,16.77-14.33,31.9-30.58,47.74-46,7.47-7.27,14.06-15.43,9.66-26.43-4.2-10.5-14-13.23-24.5-14.48-19.92-2.35-39.7-6.17-59.66-7.66-23.4-1.74-38.29-11.94-47-34.49-7.9-20.53-18.52-40.19-29.62-59.26-11.52-19.78-26.85-19.55-39.21-.38-4.87,7.56-9.42,15.68-12.18,24.18-15.8,48.57-45.06,78.23-99.94,74.24-6.8-.49-13.79,2.59-20.76,3.11-11.48.85-22.93,2.64-27.64,14.46C314.58,606.15,325,614.6,333.61,623c15.05,14.79,29.67,30.09,45.51,44,13.59,11.92,18.05,25.07,14.1,42.81C387.76,734.32,384.05,759.19,380,781.75Z"/><path d="M170.38,18.3q45.23,0,90.44,0c26.24,0,46.27,10.59,60,33.38q57.49,95.57,115.59,190.76c8.32,13.59,9.41,19.21-9.9,22.69-72.72,13.09-137.28,44.21-191.61,94.8-11.75,10.94-18.52,14.92-29.36-1.73C147.42,268.93,87.77,180.68,29.73,91.39,7.39,57,26.23,21.31,67.9,18.86c34.05-2,68.31-.41,102.48-.41Z"/><path d="M979.76,65.4c.07,10.52-4.31,19.42-10,27.94-58.3,88-116.84,175.8-174.55,264.16-9.55,14.63-15.43,16.1-28.68,3.54-53.9-51.1-118.58-82.37-191.25-95.68-21.05-3.86-19.46-9.86-10.53-24.42q57.53-93.83,114-188.28c12.93-21.52,31.3-34,56.49-34.18,64.34-.4,128.7-.78,193,.12C961.23,19.06,980.13,37.62,979.76,65.4Z"/></svg>