<svg id="Слой_1" data-name="Слой 1" xmlns="http://www.w3.org/2000/svg" viewBox="0 0 1000 1000"><path d="M971.23,40c-2.5,13.55-5.18,29.6-8.53,45.51-1.72,8.18-7.08,14.49-13,20.32Q895.2,159.95,840.82,214.28c-4.32,4.34-6.77,4.94-11.33.2-15-15.64-30.43-30.95-46-46-4.29-4.15-4.15-6.56,0-10.71Q838.9,102.51,893.86,46.85c10.06-10.22,22.68-13,35.83-15.18q14.68-2.46,29.35-5C967.37,25.29,971.76,29.13,971.23,40Z"/><path d="M702.06,243.44a40.83,40.83,0,0,0,4.14,1.29c7,1.23,14.35,8.27,20.38,4.32,9.15-6,16.53-14.77,24.22-22.8,3.22-3.36,0-6.74-2-9.69-8.28-12.58-16.68-25.07-24.9-37.67-5.51-8.43,2.78-25.24,12.77-26,3.31-.24,5.53,2,7.67,4.17q48.23,48.19,96.46,96.4c5,5,5.31,9.78.08,14.73a41.8,41.8,0,0,0-4.44,4.49c-5,6.45-10.17,6.86-16.92,2C807.62,266.08,795,258.37,783,249.83c-6-4.24-10.76-4.74-15.44,1.42a23,23,0,0,1-4.4,4.52c-13,9.65-18.55,20.8-10,36.75,3.36,6.24-2.95,15.36-12,20.72-6.83,4-9.88-1.77-13.5-5.3-12.27-12-24.33-24.2-36.45-36.35-10-10-10-11.52.39-21.69C694.7,246.83,697.35,242.69,702.06,243.44Z"/><path d="M470.57,922.18q-184.06,0-368.14,0c-72.58-.07-96.74-39.84-64-105.16q21.14-42.13,42.79-84c18-34.93,47.43-52.35,86.05-52.42q302.72-.55,605.45.08c38.52.1,67.79,18,85.51,53.24,15.49,30.79,31.73,61.22,46.82,92.21,26.29,54,.36,95.68-60.29,95.93C720.06,922.54,595.31,922.18,470.57,922.18Z"/><path d="M470.64,617.87c-72,0-143.93-.59-215.88.39-19.35.26-28.3-4.79-26.12-25.27,1.29-12-.22-24.33.47-36.46,2-35.09,22.39-57.95,57.44-58.26q182.43-1.57,364.87,0c38.19.33,58.16,24.88,59.36,66.27,1.54,53.33,1.54,53.33-51.62,53.33Z"/></svg>