<svg id="Слой_1" data-name="Слой 1" xmlns="http://www.w3.org/2000/svg" viewBox="0 0 1000 1000"><path d="M938.35,47.8c6.78,1,13.66,3.33,17.59,10.63,4.22,7.8,4.2,15.74-.43,23.29-1.91,3.11-4.65,5.76-7.26,8.38Q841.53,196.9,734.76,303.68c-6.49,6.5-13.23,12.32-23.2,10.64-16.12-2.71-23.53-20.78-14.17-34.44a54.58,54.58,0,0,1,6.73-7.39Q810.86,165.69,917.6,58.9C923.25,53.24,929.07,48.33,938.35,47.8Z"/><path d="M780.49,93.05c-.53,23.38-20.74,43.41-43.69,43.28-23.33-.13-43.76-21.12-43.5-44.7s21.37-44.46,44.37-43.83C761.45,48.46,781,69.14,780.49,93.05Z"/><path d="M958.9,270.66c-.1,23.82-20.72,44.48-44,44.09-23.46-.41-43.64-21.44-43.19-45,.44-23.22,20.69-43.45,43.55-43.53C938.73,226.13,959,246.79,958.9,270.66Z"/><path d="M470.57,922.18q-184.06,0-368.14,0c-72.58-.07-96.74-39.84-64-105.16q21.14-42.13,42.79-84c18-34.93,47.43-52.35,86.05-52.42q302.72-.55,605.45.08c38.52.1,67.79,18,85.51,53.24,15.49,30.79,31.73,61.22,46.82,92.21,26.29,54,.36,95.68-60.29,95.93C720.06,922.54,595.31,922.18,470.57,922.18Z"/><path d="M470.64,617.87c-72,0-143.93-.59-215.88.39-19.35.26-28.3-4.79-26.12-25.27,1.29-12-.22-24.33.47-36.46,2-35.09,22.39-57.95,57.44-58.26q182.43-1.57,364.87,0c38.19.33,58.16,24.88,59.36,66.27,1.54,53.33,1.54,53.33-51.62,53.33Z"/></svg>