<svg id="Слой_1" data-name="Слой 1" xmlns="http://www.w3.org/2000/svg" viewBox="0 0 1000 1000"><path d="M508.12,645.91c.27-3.77-1.45-12,1.65-17.65,21.93-39.67-3.07-61.88-28.61-86.36-49.57-47.5-97.83-96.41-145.74-145.6-12.92-13.26-25.94-19.06-44.83-19.22-119.65-1-85.53,16.21-160.81-79.53-32.45-41.27-64.32-83-96-124.87-23.68-31.3-22.41-48.93,4.84-76.76q31.78-32.48,64.31-64.23c19.47-19.09,40.54-20.89,62.43-4.11q96.16,73.71,192.21,147.59c14.15,10.86,21.09,26,17.8,42.62C360.59,292.34,394.9,343.26,449.32,389c41.6,35,78,76.15,116.14,115.12,11.55,11.8,21.26,16.82,39.35,10.77,57.93-19.37,109.62-5.25,152.81,37.44Q858.9,652.43,959,753.69c31.59,31.89,31.41,66.25,0,98.33-36.06,36.78-72.38,73.32-109.32,109.21-31.13,30.24-62.25,30.54-93,.19Q652.11,858.19,548.81,753.66C520.29,724.93,508.12,689.33,508.12,645.91Z"/><path d="M746.17,348.85c41.2,11.89,76-10.56,107.23-46.74,23.65-27.41,51.32-51.37,77.25-76.82,8-7.85,16.49-16.08,28.85-12.69,13.83,3.8,16.62,16.23,19.1,28.36,21.57,105.48-39.16,233.86-133.36,283.36-11.52,6-20,7.27-29.13-3.13C762,459.9,694.84,432.87,613.22,445.31c-11.75,1.79-18.88-3.64-26.26-11.08Q520.8,367.66,454.23,301.5c-8.37-8.29-12.66-16.52-12.18-29.06C448,115.73,598.18-6.77,752.51,19.52c14.08,2.4,28.81,2.75,33.66,20,4.71,16.77-6.92,26.12-16.87,36.08C735.8,109.21,702.69,143.2,668.48,176c-14.22,13.65-20.71,28.55-20,48.19,1,28.22.46,56.51.28,84.76-.18,27.36,12,41.45,40.49,40C705.33,348.18,721.52,348.85,746.17,348.85Z"/><path d="M17.08,857.58c.57-36.11,11.87-65.71,35.72-89.8,88.09-89,176.6-177.53,264.43-266.76,11.63-11.82,19-13.59,31.19-.58,27.62,29.44,56.52,57.7,85.52,85.81,9.59,9.3,13.86,18.61,11,32.1-6.27,29.27-3.4,58.4,5.2,86.77,4,13.29,1.14,22.48-8.72,32.24C370.31,807.64,300.51,879.23,228.7,948.74,189.23,987,141.42,993.79,91.54,971,42.79,948.67,20,908,17.08,857.58Zm196.84-24.74c-.17-25.12-20.79-45.82-46.38-46.56-26.62-.77-48.8,20.73-48.62,47.15.16,25.32,20.53,45.87,46.18,46.59C191.61,880.78,214.11,859,213.92,832.84Z"/></svg>