<svg id="Слой_1" data-name="Слой 1" xmlns="http://www.w3.org/2000/svg" viewBox="0 0 1000 1000"><path d="M560.31,556.41c14.4-5.8,17.29-17.1,22.7-25.76q132.5-211.92,264.48-424.19c5.23-8.39,10.19-17.15,16.63-24.56,12.11-14,27.63-16.53,44.06-8.68,15.28,7.31,22.5,20.06,21.34,37.28-.94,13.94-8,25.71-13.51,37.95Q811,382.65,705.85,616.8c-4,9-14.58,18.79-3.91,29.34,11.26,11.13,20-1.2,28.4-5.8q67.44-37.07,134-75.71c21.16-12.25,41.56-15.43,57.49,6.14,15.64,21.16,7.79,40.58-9.44,57.71Q847.26,693.3,782.56,758.55c-7.6,7.7-15.52,11.37-26.22,10.63a172.73,172.73,0,0,0-27,0c-43.11,3.74-73.35-3.82-103.22-46.32-69.29-98.61-217.59-79.93-272.51,28.48-6.72,13.26-13.68,20.18-28.42,17.74a7.37,7.37,0,0,0-2.69,0c-98.4,21.41-166.86-37.21-237.38-89.45C67.87,666.86,63.6,647.84,74.52,629c10-17.21,26.09-23.76,46.3-17.44q70.77,22.13,141.71,43.69c10.69,3.23,21.2,8.94,31.76-3.4,11.26-13.17,1.62-21.63-4-31-29.15-48.68-58.36-97.34-88.17-145.62-12.86-20.81-16.34-40.9,3.62-58.27,20.44-17.79,39.43-9.66,57.6,6.2Q337.66,488,412.73,552c5.91,5.07,11.38,13.94,20.33,11,11.11-3.7,7.46-15.11,8.25-23.46,6-62.77,11.54-125.57,17.28-188.36.73-8.07,1.45-16.16,2.62-24.18,3.92-26.82,20.23-44.94,40.32-42.09,23.68,3.37,35.33,19,37.4,42.73,5.22,60.12,10.85,120.2,16.41,180.29C556.79,523.61,558.55,539.29,560.31,556.41Z"/><path d="M500.26,931.31H84.3c-12.59,0-25.1.43-37.16-4.74-21.66-9.3-31.62-26.32-31.5-48.91s10-40.19,32.18-48.18a78.91,78.91,0,0,1,26.25-4.68q425.42-.36,850.83-.07c43.13,0,67.06,29.39,57.29,68.23-6.33,25.18-26.55,38.26-60.57,38.29q-175.57.21-351.14.06Z"/><path d="M197.94,344c4.15-6.34,2.12-11.79,1.86-16.85q-6.56-123.74-13.4-247.48c-.26-4.89-.74-9.86-.25-14.68.93-9.09,6.44-14.41,15.25-15.69,8.19-1.18,14.69,2.09,19.08,9.51,3.55,6,4,12.79,5.27,19.35q23.85,125.37,47.66,250.76c.93,4.81-.56,11.74,6.7,13.16,7.66,1.5,7.71-6,9.77-10.19q16.64-33.81,32.47-68c5-10.86,12.34-17.78,24.82-13.27,12.25,4.43,14.57,14.59,12.48,26.38-5.26,29.74-10.49,59.49-15.47,89.28-.88,5.26-3,8.95-7.53,11.59a82.11,82.11,0,0,0-10.85,7.41c-16.26,13.39-30.53,18.58-54.51,9.27-55.63-21.61-109.91,26.83-101.4,86.6,1,7.3.2,12.07-6.41,15.11a3.5,3.5,0,0,0-1.08.75c-33.47,35.85-77.49,30.49-120.54,28.34-10.52-.53-17.6-7.19-18.52-17.95-.84-9.84,3.78-17,13.67-19.91q34.67-10.32,69.23-20.92c5.2-1.61,11-2.14,11.79-10.13.81-8.52-5.45-9.36-10.35-11.68-25.44-12.06-50.88-24.09-76.47-35.8-11-5-18.09-12.37-15-25,3.19-12.94,13.11-14.81,24.88-13.27,32.08,4.22,64.2,8.16,96.32,12.07,3.8.47,8.5,2.62,11.25-1.06,3.42-4.58-1.26-8.28-3.3-11.94-15.3-27.51-30.77-54.92-46.17-82.38-2-3.53-4-7.06-5.76-10.68-6-12.13-4.55-24.08,4.32-28.43,10.46-5.11,19.54-1.88,27.07,7.34q28.56,35,57.42,69.8C187.28,331.41,192.41,337.39,197.94,344Z"/><path d="M73.54,181.77C77.82,188,82.72,194,86.25,200.64c5.12,9.69,2.69,19-5.91,24.45s-18.09,4-24.68-4.9c-8.5-11.5-16.57-23.34-24.24-35.4-6-9.36-4-18.83,4.17-24.83,8.75-6.45,18.5-4.75,25.9,4.08,4.56,5.45,8.17,11.72,12.21,17.62Z"/><path d="M544,222.93c5.19-1,7-4.62,9.36-7.19q59-62.91,117.92-126a65.87,65.87,0,0,1,7.26-7.21c5-3.9,10.34-3.7,15.22.11,4.55,3.55,6,8.39,4.42,14.17-1.31,4.68-4.49,8.19-7.18,12Q639.5,181.21,588,253.59c-2,2.78-6.17,5.37-3.38,9.7,2.94,4.58,6.72,1,9.82,0q25-7.92,49.83-16.45c7.89-2.7,14.88-2.36,18.63,6.08,3.67,8.29-.32,14.35-7.25,19q-26.22,17.52-52.32,35.23c-3.07,2.09-6,2.79-9.45,1.8a57.19,57.19,0,0,0-9-1.88c-14.56-1.72-24-6.39-30.92-22.93-15.94-38.36-66.44-42.31-92.37-9.23-3.17,4-6,5.91-10.69,4.06a2.49,2.49,0,0,0-.89-.19c-34.15.46-52.66-24.25-72.32-46.92-4.8-5.54-4.86-12.31.1-18,4.53-5.16,10.34-6.27,16.59-2.72q21.89,12.45,43.87,24.71c3.31,1.85,6.39,4.52,10.77,1.05,4.67-3.7,2.08-7.24.88-10.83-6.19-18.59-12.41-37.17-18.85-55.67-2.78-8-2.5-15.05,5.35-19.58,8-4.63,13.76-.55,18.66,6.11q20,27.24,40.34,54.22c1.6,2.14,2.78,5.53,6,5.14,3.94-.48,3.55-4.62,4.4-7.41C512.24,188,518.56,167,524.94,146c.82-2.69,1.63-5.39,2.59-8,3.21-8.85,9.91-13.89,16.37-11.52,7.61,2.79,10.36,8.91,9.35,17.13-2.56,20.82-5,41.66-7.41,62.49C545.2,211.52,544.67,217,544,222.93Z"/><path d="M565.6,82.27c-1.08,5.17-1.71,10.5-3.36,15.48-2.4,7.24-8.24,10.49-15.13,8.81s-10.74-7.15-9.43-14.77c1.68-9.81,3.75-19.57,6.11-29.23,1.83-7.51,7.55-11.07,14.49-9.87,7.45,1.29,11.3,7,10.43,15-.54,4.92-2,9.75-3,14.62Z"/></svg>