<svg id="Слой_1" data-name="Слой 1" xmlns="http://www.w3.org/2000/svg" viewBox="0 0 1000 1000"><path d="M110.51,984.36C80,981.66,39.89,999.07,20.07,978c-18.13-19.26-3.83-58.42-5.43-88.76-.32-6.1.82-12.38-.18-18.33-7.84-46.57,6.36-83.49,46.75-109.43,17.11-11,15.56-23.33,7-40.85C-3.4,574.81-3.6,428.08,67.53,282.08c9-18.57,11.28-31.14-7.12-43.59C22.35,212.75,8.59,177.3,13.91,131.35c3.61-31.18,1.44-63.15.41-94.72C13.74,19,17.76,10.94,37.78,11.56c45.83,1.43,91.79,1.78,137.59-.05,27-1.09,37.82,19.32,50.07,34.72C246.75,73,264.84,75.1,296.72,60.08c140.21-66,281.75-63,421,4.61C738.6,74.83,752.94,77,766.11,56.48c24.62-38.39,59.64-50,104.13-45.13,31.23,3.41,63.15,1.27,94.73.41,15.22-.42,22.09,3.56,21.8,20.28q-1.24,73.38-.06,146.79c.41,26.31-21.47,36.08-36.32,49.58-19.9,18.09-24.56,31.37-11.59,58.67,68.47,144.18,67.05,289.68-3.38,433.14-9.63,19.62-9.06,31.85,8,43.47,38.78,26.49,48.22,63.88,44.6,108.53-2.54,31.36-.44,63.16.66,94.73.6,17.12-5.63,23.26-23,22.72-45.83-1.43-91.72-2.16-137.56-1.46-25.81.39-38.58-17.91-51.37-33.87-20.11-25.1-37.18-28.69-68.51-13.83-142.14,67.41-285.28,63.6-426.89-4.5-12.28-5.9-25.49-18.29-37.17-.44C211.72,985.05,164.74,993.87,110.51,984.36ZM500.63,807.45c173.3.06,309.67-135.34,309.39-307.18C809.75,329.48,673.91,194,502.82,193.93c-173-.11-310.06,135.82-309.72,307.2C193.44,671.52,329.85,807.39,500.63,807.45ZM137.55,165c19.1-1.64,30.47-13.25,29.19-33.52-1.3-20.49-14.53-30.33-35.07-29-19.61,1.24-29.7,13.13-29.27,31.77C102.87,154.71,115.26,165,137.55,165ZM870,165c19.78-1.12,31.68-12.12,31-32.55s-13.34-30.89-34-30.15c-19.57.7-30.21,12.07-30.33,30.78C836.53,153.56,848.35,164.46,870,165ZM136.89,899.4c17.73-1.3,30.33-11.51,29.89-32.13S154,836.11,133.25,836.58c-19.5.44-30.48,11.5-30.85,30.28C102,887.25,113.53,898.44,136.89,899.4Zm730.92-63.07c-20.78,1.26-32,12.86-31.14,33.14.76,18.76,12,29.52,31.54,29.6,20.86.09,32.84-11,32.81-31.4S888.5,836.77,867.81,836.33Z"/><path d="M328.69,713c-13.44-1.19-31.06,6.46-39.78-2.8-8-8.47-1.68-25.7-2.38-39-.15-2.68.35-5.44-.09-8.06C283,642.65,289.24,626.42,307,615c7.52-4.84,6.84-10.26,3.06-18-31.48-64.14-31.57-128.67-.28-192.89,4-8.16,5-13.69-3.14-19.17-16.74-11.32-22.79-26.91-20.45-47.12,1.59-13.72.64-27.78.18-41.66-.25-7.74,1.51-11.3,10.32-11,20.16.63,40.37.78,60.52,0,11.88-.48,16.63,8.5,22,15.27,9.37,11.78,17.33,12.69,31.35,6.09,61.67-29.05,123.93-27.73,185.17,2C605,313,611.25,314,617,304.93c10.83-16.89,26.23-22,45.8-19.86,13.74,1.51,27.78.57,41.67.19,6.69-.19,9.71,1.56,9.59,8.92q-.55,32.26,0,64.56c.18,11.57-9.44,15.87-16,21.81-8.75,7.95-10.8,13.79-5.09,25.8,30.11,63.41,29.49,127.41-1.49,190.51-4.24,8.63-4,14,3.5,19.12,17,11.65,21.21,28.09,19.62,47.73-1.12,13.8-.2,27.78.29,41.67.26,7.53-2.48,10.23-10.15,10-20.15-.63-40.34-1-60.5-.64-11.35.17-17-7.88-22.59-14.9-8.85-11-16.35-12.62-30.13-6.08-62.52,29.65-125.48,28-187.76-2-5.4-2.59-11.22-8-16.35-.19C373.21,713.34,352.54,717.22,328.69,713Zm171.59-77.81c76.22,0,136.2-59.53,136.08-135.11-.12-75.12-59.87-134.69-135.12-134.74-76.1-.05-136.37,59.74-136.22,135.12C365.17,575.44,425.16,635.2,500.28,635.23ZM340.58,352.64c8.4-.72,13.41-5.83,12.84-14.74S347,324.56,338,325.12c-8.63.55-13.07,5.78-12.88,14C325.33,348.13,330.78,352.65,340.58,352.64Zm322.16,0c8.7-.49,13.94-5.33,13.64-14.31s-5.87-13.59-15-13.26c-8.61.3-13.29,5.31-13.34,13.54C648,347.63,653.22,352.42,662.74,352.67Zm-322.45,323c7.8-.57,13.34-5.07,13.15-14.13s-5.62-13.71-14.75-13.5c-8.57.19-13.4,5.06-13.57,13.32C324.94,670.32,330,675.24,340.29,675.67Zm321.48-27.74c-9.14.55-14,5.65-13.69,14.58.33,8.25,5.29,13,13.87,13,9.17,0,14.44-4.84,14.43-13.81S670.87,648.12,661.77,647.93Z"/></svg>