<svg id="Слой_1" data-name="Слой 1" xmlns="http://www.w3.org/2000/svg" viewBox="0 0 1000 1000"><path d="M416.35,500.83c0,113.7.33,227.4-.09,341.1-.34,94.51-46.05,139.5-141,139.94-17.39.08-34.83.81-52.16-.23C149.81,977.21,102.64,931.5,102.25,858q-1.91-357.15,0-714.29C102.51,77,138.8,35.17,203.35,23A303.69,303.69,0,0,1,315.08,23c67.36,12.61,100.54,55.3,101,128.75C416.92,268.08,416.33,384.46,416.35,500.83Z"/><path d="M898.47,505.09c0,112.36.34,224.72-.08,337.08-.36,94.37-46.16,139.27-141.24,139.7-16,.07-32.13.55-48.15-.12-75.65-3.18-124.23-49-124.63-124q-1.92-357.14,0-714.29C584.66,76.81,621.14,35,685.72,23a303.42,303.42,0,0,1,111.72,0C864.78,35.79,897.77,78.36,898.25,152,899,269.66,898.46,387.38,898.47,505.09Z"/></svg>