<svg id="Слой_1" data-name="Слой 1" xmlns="http://www.w3.org/2000/svg" viewBox="0 0 1000 1000"><path d="M903.64,19.8c24.39,3.41,49.13,12,63.3,38.22,15.16,28.08,15.11,56.64-1.56,83.82C958.51,153,948.64,162.57,939.25,172q-384,384.29-768.1,768.45c-23.35,23.39-47.6,44.31-83.47,38.28-58-9.75-84.65-74.78-51-123.9,6.71-9.8,15.72-18.13,24.2-26.62Q445,444,829,59.73C849.31,39.37,870.26,21.7,903.64,19.8Z"/><path d="M335.66,182.6C333.77,266.71,261,338.76,178.49,338.31c-84-.46-157.46-76-156.5-160.82S98.86,17.53,181.6,19.8C267.16,22.15,337.59,96.57,335.66,182.6Z"/><path d="M977.57,821.61C977.21,907.32,903,981.67,819.3,980.23c-84.4-1.45-157-77.12-155.4-161.93,1.59-83.53,74.45-156.34,156.71-156.61C905,661.41,977.93,735.73,977.57,821.61Z"/></svg>