<svg id="Слой_1" data-name="Слой 1" xmlns="http://www.w3.org/2000/svg" viewBox="0 0 1000 1000"><path d="M502,151c-160.69.07-292.69,99.2-338,254.48-4.24,14.51-9.4,25.07-24.91,32.11-32.08,14.55-47.22,42.33-47.1,77.11.12,36.23,17.77,64.22,50.33,78.34,18.29,7.94,25.84,19.46,32.55,36.27,39.59,99.22,110.69,166.22,211.3,201.41,16.19,5.66,27.28,12.18,35.68,29,15.67,31.33,42.47,48.49,79.61,48.14s63-18.34,78.7-49.71c7.27-14.57,16.39-21.21,30.78-26.46,142.77-52.12,223.93-153.24,238.52-305.29,1.89-19.73,7.23-27.65,27.4-25.59,15.32,1.56,30.93.3,46.41.31,40.37,0,40.37,0,37.17,41.53-16.61,215.66-192,392.27-408.3,417.19C305.46,988.22,84.84,813.09,45,579.26c-40.68-239,108.53-470.08,344.3-527.65,139.39-34,268.5-7.76,384.58,76.86,17.55,12.8,28.14,14.55,42.87-2.66C833.71,106,853.06,88.25,872,70.21,894.11,49,918.71,47.36,935.87,65c18,18.5,16.91,41.5-5.47,64Q780,280.29,628.65,430.62c-14.56,14.44-21.77,26.88-17.36,49.64,13.07,67.36-34.46,127-103.51,134.73-57.23,6.38-114.58-44-120.5-105.79-6-62.92,46.2-121.13,111.44-124,5.73-.25,12.26-.67,17.18,1.63,24.84,11.62,40.13-.62,57.63-17.3,21.46-20.46,11.17-26.14-9.11-33.84-94.66-35.92-201.67,14.79-231.83,110.47C301,546.49,358.44,646.64,461.94,671.53c98.08,23.59,197-41.65,211.83-142.72,3.67-25,12.92-30.1,34.69-28,16.29,1.55,33.14,2.23,49.25-.11,29-4.23,31.83,10.24,28.64,33.39-15.8,115-78.93,192.5-185.18,236.53-12.62,5.23-21.22,5.13-32.06-7.13-38.77-43.86-98.14-44-136.87-.49-10.57,11.88-19,13-32,8.07-78.39-29.83-133.2-83.68-166-160.68-5.39-12.63-3.3-19.86,6.76-29.72,41.11-40.3,39.63-97.87-4.36-134.61-14.26-11.92-14.52-21.48-9.45-37,57-174.32,262.59-250.79,421.87-156.52,21.7,12.84,54.49.65,63-23.64,4.25-12.14-7.47-14.2-13.52-18.29Q609.53,150.48,502,151Z"/></svg>