<svg id="Слой_1" data-name="Слой 1" xmlns="http://www.w3.org/2000/svg" viewBox="0 0 1000 1000"><path d="M427.66,753.24c-.05-49.13-1.24-98.3.44-147.37.86-25.11-8-32.11-32.39-31.82-98.25,1.19-196.51.67-294.77.41C44.11,574.31,11.8,546.79,12,499.63s32.47-74.09,89.55-74.22c97-.24,194-1.17,291,.6,28.83.52,36.11-8.63,35.7-36.38Q426,238.51,428.09,87.31C429,25.93,483.76-8,535,19c29.39,15.46,37.61,41.88,37.55,72.86-.16,98.26,1.27,196.54-.73,294.76-.66,32.15,9.68,40.05,40.56,39.42,95.7-1.92,191.46-.87,287.2-.63,57.41.14,88.6,26.85,88.44,74.83s-31.34,74.1-89,74.23c-98.26.22-196.53.93-294.77-.52-25.51-.37-32.21,8.43-32,32.34.85,102,1.26,204.08-.16,306.1-.86,61.34-55.64,95.69-106.38,68.61-27.28-14.56-37.89-39.15-37.93-69Q427.63,832.59,427.66,753.24Z"/></svg>