<svg id="Слой_1" data-name="Слой 1" xmlns="http://www.w3.org/2000/svg" viewBox="0 0 1000 1000"><path d="M502.72,515.16c-31.23-69.76-59.54-132.56-87.45-195.54C405,296.5,394.14,275.43,363.6,275.91c-30.1.48-41.46,20.66-51.1,44.46C297.24,358,280.27,395,265.6,432.93c-7.13,18.44-16.52,27.17-37.81,26.62-57.92-1.48-115.9-1.13-173.84-.13-17.18.29-24.76-5.09-29.72-21.92C-9.72,322.33,39.76,190.39,142.29,125.72c103.18-65.08,236-52.31,326.85,31.45,3.74,3.44,8,6.57,10.87,10.65,14.77,21,26.39,15.23,42.52-.7C611.19,79.55,733.13,58.7,838.9,114.67,966.09,182,1007.71,311.82,976.49,441.93c-3.16,13.14-10,17.48-23.5,17.38q-109.79-.88-219.59,0c-14.6.12-22.31-6.45-28.25-18.37-12.23-24.56-24.95-48.88-37.45-73.3-9.45-18.49-23.11-30.51-45.18-30.58-23.26-.08-37.91,12.44-47.64,32C551.84,415.38,529,461.83,502.72,515.16Z"/><path d="M910.57,552.19c-2.8,15-12.48,20-19.59,26.66Q727.3,732,563.29,884.77c-45,42-80,42.21-124.59.51Q268.32,725.95,98,566.51c-2.8-2.62-4.79-6.12-11.09-14.32,40.55,0,76.71-2.7,112.33.54,81,7.37,141.11-16.08,161.26-102.86,14.43,5.23,15.06,16.52,18.87,24.9q34.71,76.32,68.22,153.17c10.57,24.16,22.2,46,53.56,46.3,29.95.25,41.71-20.43,52.77-43.15,21.7-44.54,44-88.78,69.39-139.94,33,62.07,86.29,63.24,141.78,61.37C812.79,550.91,860.58,552.19,910.57,552.19Z"/></svg>