<svg id="Слой_1" data-name="Слой 1" xmlns="http://www.w3.org/2000/svg" viewBox="0 0 1000 1000"><path d="M894,238.64c0,61.39-49.75,113.71-109,114.64-64.84,1-117-52-116.29-118.23.63-59.32,53.69-111.39,113.17-111C844.61,124.35,894,174.9,894,238.64Z"/><path d="M605,122.18c-.05,57.87-47.3,105.32-104.86,105.31S395.4,179.89,395.45,122,442.79,16.62,500.29,16.7,605,64.34,605,122.18Z"/><path d="M219.23,335.46c-54.15.44-96-41.42-96.31-96.44-.35-55.63,40.1-96.63,95.5-96.8C272.58,142,315.94,184.62,316,238,316,291.07,272.35,335,219.23,335.46Z"/><path d="M165.31,518.48c.76,37.45-26.21,66.39-62.31,66.85-35.54.46-64.29-28.78-64.26-65.34,0-35.31,26.52-63.55,61.11-65.17C135.46,453.15,164.56,481.45,165.31,518.48Z"/><path d="M961.24,521.67c-.76,37-29.88,65.31-65.49,63.63-34.59-1.64-61-29.88-61.08-65.2,0-36.56,28.74-65.79,64.28-65.31C935.05,455.27,962,484.21,961.24,521.67Z"/><path d="M563.27,917c.49,37.39-26.85,66.22-62.87,66.29-35.67.07-64-29.28-63.69-65.91.33-35.27,27.16-63.4,61.66-64.65C534.11,851.44,562.79,879.84,563.27,917Z"/><path d="M217.93,864.83c-34-.24-62.73-29.31-62.64-63.28.09-35.19,27.23-62.26,62.67-62.48,38.18-.25,64.89,26.5,64.08,64.16C281.3,837.86,253,865.07,217.93,864.83Z"/><path d="M780.88,864.82c-35.45-.45-62-27.68-61.82-63.34.22-38.16,26.65-63.38,65.39-62.4,34.37.86,62.35,30.16,61.35,64.25C844.84,836.32,814.3,865.25,780.88,864.82Z"/></svg>