<svg id="Слой_1" data-name="Слой 1" xmlns="http://www.w3.org/2000/svg" viewBox="0 0 1000 1000"><path d="M697.35,425.16c-2.59,88.63-28.64,168.5-89.12,235.36-26.87,29.7-59.28,51.36-95.09,68.69-9.88,4.78-18.09,3.6-27.44-.72C418.14,697.29,369.58,647,338,580.29,310.89,522.88,299,462.19,302.9,398.52c.51-8.27,3.43-12.45,11.13-15.4q89.7-34.37,179.12-69.46c5.4-2.11,10.05-1.33,15.25.69,57.2,22.28,114.34,44.74,171.83,66.26,12.58,4.7,19.21,10.71,17.27,24.68C696.6,411.8,697.35,418.53,697.35,425.16Zm-49.91,9.61c2.78-8.3-3.3-13-14.25-17C593,402.94,553.26,387,513.33,371.56c-14.31-5.54-14.44-5.5-14.44,10q-.06,140.64,0,281.3c0,1.77.11,3.54,0,5.3-.47,7.68,2.24,9.58,9.21,5.68,12-6.71,23.77-13.7,34.51-22.26C611,597.11,638.5,522.62,647.44,434.77Z"/><path d="M986.79,893.61c-44.92,13.25-88.53,10.55-130.42-9.67-34.47-16.64-64.24-40.88-95.94-62-7.56-5-14.85-10.47-23.29-14.46l105.73,93.79c-20.15,6.15-39.35,7-58.71,4.85-19.21-2.14-36.36-9.58-52-20.88-22.21-16-43.33-33.21-63-52.83-1,3.78,1.53,5.88,2.83,8.23,11.29,20.32,22.57,40.65,34.23,60.75,2.86,4.91,2,6.67-3.16,8.36-26.4,8.69-51.42,9.29-73.82-10.56-8.39-7.43-17.54-14-27.67-22,4.25,11.89,7.64,22.37,11.79,32.54,2.06,5,.66,7.21-3.91,9.2-4.72,2.06-9.4,4.07-14.5,5-9.92,1.82-16.52-1.13-22-9.74-6.49-10.16-13-20.29-20-31.21,0,12.58,0,23.75,0,34.93,0,1.74,1.32,4.06-.82,5.11-1.93,1-3.47-1-5-2-17.18-11.61-24.35-32.58-19.51-56.19,1.69-8.26,5.08-14,13.2-18.56,23.78-13.45,43.4-31.23,51.62-58.76,3.43-11.49,2.59-22.86.78-34.48-3.55-22.72.4-44.25,12.66-63.78,16.13-25.69,42.3-34.09,71.18-23.45a123.7,123.7,0,0,1,45.77,30c55.78,57,119.62,103.7,185.84,147.45q36.54,24.13,74.33,46.26C984.25,890.33,986,890.71,986.79,893.61Z"/><path d="M13.21,893.61c44.92,13.25,88.53,10.55,130.42-9.67,34.47-16.64,64.24-40.88,95.94-62,7.56-5,14.85-10.47,23.29-14.46L157.13,901.28c20.15,6.15,39.35,7,58.71,4.85,19.21-2.14,36.36-9.58,52-20.88,22.21-16,43.33-33.21,63-52.83,1,3.78-1.53,5.88-2.83,8.23C316.73,861,305.45,881.3,293.79,901.4c-2.86,4.91-2,6.67,3.16,8.36,26.4,8.69,51.42,9.29,73.82-10.56,8.39-7.43,17.54-14,27.67-22-4.25,11.89-7.64,22.37-11.79,32.54-2.06,5-.66,7.21,3.91,9.2s9.4,4.07,14.5,5c9.92,1.82,16.52-1.13,22-9.74,6.49-10.16,13-20.29,20-31.21,0,12.58,0,23.75,0,34.93,0,1.74-1.32,4.06.82,5.11,1.93,1,3.47-1,5-2,17.18-11.61,24.35-32.58,19.51-56.19-1.69-8.26-5.08-14-13.2-18.56-23.78-13.45-43.4-31.23-51.62-58.76-3.43-11.49-2.59-22.86-.78-34.48,3.55-22.72-.4-44.25-12.66-63.78-16.13-25.69-42.3-34.09-71.18-23.45a123.7,123.7,0,0,0-45.77,30c-55.78,57-119.62,103.7-185.84,147.45q-36.54,24.13-74.33,46.26C15.75,890.33,14,890.71,13.21,893.61Z"/><path d="M500,32.88c-138.15,0-250.14,57.55-250.14,128.54S361.85,290,500,290,750.14,232.4,750.14,161.42,638.14,32.88,500,32.88ZM500,245c-125.65,0-227.5-37.41-227.5-83.54S374.35,77.87,500,77.87s227.49,37.41,227.49,83.55S625.65,245,500,245Z"/></svg>