<svg id="Слой_1" data-name="Слой 1" xmlns="http://www.w3.org/2000/svg" viewBox="0 0 1000 1000"><path d="M974.85,102.53C973.14,160.8,956,213.3,916.26,257.26c-17.67,19.52-39,33.76-62.51,45.15-6.5,3.15-11.9,2.37-18-.47-44.41-20.51-76.34-53.59-97.07-97.43A240.63,240.63,0,0,1,715.53,85c.33-5.43,2.25-8.18,7.31-10.12q59-22.61,117.76-45.67c3.55-1.38,6.61-.87,10,.46,37.61,14.65,75.18,29.41,113,43.56,8.27,3.09,12.63,7,11.36,16.23C974.35,93.74,974.85,98.17,974.85,102.53ZM942,108.84c1.83-5.45-2.16-8.54-9.36-11.19-26.41-9.73-52.55-20.2-78.8-30.36-9.41-3.65-9.49-3.62-9.5,6.58q0,92.46,0,184.93c0,1.16.08,2.33,0,3.49-.31,5,1.47,6.29,6,3.73a167.15,167.15,0,0,0,22.69-14.63C918.06,215.57,936.15,166.6,942,108.84Z"/><path d="M616.48,524.83C614.2,603,591.23,673.41,537.89,732.37c-23.69,26.19-52.27,45.28-83.84,60.57-8.72,4.21-16,3.17-24.2-.64-59.57-27.51-102.39-71.88-130.21-130.68-23.94-50.62-34.46-104.14-31-160.29.45-7.29,3-11,9.81-13.57q79.09-30.31,158-61.26c4.76-1.85,8.87-1.17,13.44.62,50.45,19.65,100.83,39.45,151.53,58.42,11.09,4.15,16.94,9.44,15.23,21.77C615.82,513.05,616.48,519,616.48,524.83Zm-44,8.47c2.46-7.32-2.91-11.46-12.56-15-35.43-13-70.49-27.09-105.7-40.73-12.61-4.89-12.73-4.85-12.73,8.83q0,124,0,248.05c0,1.56.1,3.12,0,4.68-.41,6.76,2,8.44,8.12,5,10.56-5.92,21-12.08,30.43-19.63C540.32,676.45,564.59,610.76,572.47,533.3Z"/><path d="M871.71,937.91c-39.6,11.68-78.06,9.3-115-8.53-30.4-14.68-56.65-36-84.6-54.66-6.67-4.45-13.1-9.24-20.54-12.76l93.23,82.71C727,950.1,710.11,950.84,693,949s-32.06-8.45-45.9-18.42A448.29,448.29,0,0,1,591.61,884c-.89,3.33,1.35,5.18,2.51,7.26,10,17.91,19.89,35.84,30.18,53.57,2.51,4.33,1.75,5.87-2.79,7.37-23.28,7.66-45.34,8.19-65.1-9.31C549,936.29,541,930.48,532,923.41c3.75,10.48,6.74,19.72,10.39,28.69,1.82,4.46.58,6.36-3.44,8.11a58.35,58.35,0,0,1-12.79,4.42c-8.75,1.6-14.57-1-19.41-8.59-5.72-9-11.49-17.9-17.67-27.53,0,11.1,0,21,0,30.8,0,1.54,1.17,3.59-.72,4.51-1.7.84-3.06-.84-4.4-1.75-15.15-10.23-21.47-28.72-17.21-49.54,1.5-7.29,4.49-12.32,11.64-16.37,21-11.86,38.28-27.54,45.52-51.81,3-10.13,2.29-20.16.69-30.4-3.13-20,.35-39,11.17-56.25,14.22-22.65,37.3-30.06,62.76-20.68a109.06,109.06,0,0,1,40.36,26.49c49.19,50.24,105.48,91.44,163.88,130q32.21,21.29,65.54,40.79C869.47,935,871,935.35,871.71,937.91Z"/><path d="M13.21,937.91c39.61,11.68,78.06,9.3,115-8.53,30.4-14.68,56.65-36,84.6-54.66,6.67-4.45,13.1-9.24,20.54-12.76l-93.23,82.71c17.76,5.43,34.69,6.17,51.77,4.28s32.06-8.45,45.9-18.42A447.55,447.55,0,0,0,293.31,884c.89,3.33-1.35,5.18-2.5,7.26-10,17.91-19.9,35.84-30.19,53.57-2.51,4.33-1.75,5.87,2.79,7.37,23.29,7.66,45.34,8.19,65.1-9.31,7.4-6.55,15.46-12.36,24.4-19.43-3.75,10.48-6.74,19.72-10.4,28.69-1.82,4.46-.58,6.36,3.44,8.11a58.35,58.35,0,0,0,12.79,4.42c8.75,1.6,14.57-1,19.41-8.59,5.72-9,11.49-17.9,17.68-27.53,0,11.1,0,21,0,30.8,0,1.54-1.17,3.59.72,4.51,1.7.84,3.06-.84,4.4-1.75,15.15-10.23,21.47-28.72,17.21-49.54-1.5-7.29-4.49-12.32-11.64-16.37-21-11.86-38.28-27.54-45.52-51.81-3-10.13-2.29-20.16-.69-30.4,3.13-20-.35-39-11.16-56.25C335,735.05,311.87,727.64,286.41,737a109.06,109.06,0,0,0-40.36,26.49c-49.19,50.24-105.48,91.44-163.88,130Q50,914.82,16.63,934.32C15.45,935,13.89,935.35,13.21,937.91Z"/><path d="M442.46,178.92c-121.82,0-220.57,50.74-220.57,113.34S320.64,405.6,442.46,405.6,663,354.85,663,292.26,564.27,178.92,442.46,178.92Zm0,187c-110.79,0-200.61-33-200.61-73.67s89.82-73.67,200.61-73.67,200.6,33,200.6,73.67S553.25,365.93,442.46,365.93Z"/></svg>