<svg id="Слой_1" data-name="Слой 1" xmlns="http://www.w3.org/2000/svg" viewBox="0 0 1000 1000"><path d="M820.48,176.71c-10.73-24-20.46-45.55-30.05-67.19-3.52-8-7.26-15.19-17.76-15-10.34.16-14.25,7.1-17.56,15.27-5.24,13-11.07,25.66-16.11,38.69-2.46,6.33-5.68,9.33-13,9.15-19.9-.51-39.83-.39-59.74-.05-5.9.1-8.51-1.75-10.21-7.53-11.67-39.58,5.33-84.92,40.57-107.15,35.46-22.36,81.1-18,112.32,10.81a24.93,24.93,0,0,1,3.74,3.66c5.07,7.23,9.07,5.23,14.61-.24C857.76,27,899.66,19.85,936,39.09c43.71,23.13,58,67.75,47.29,112.46-1.09,4.52-3.44,6-8.08,6q-37.72-.3-75.46,0c-5,0-7.67-2.22-9.71-6.31-4.2-8.44-8.57-16.8-12.87-25.19-3.25-6.36-7.94-10.49-15.53-10.51-8,0-13,4.27-16.37,11C837.36,142.42,829.53,158.39,820.48,176.71Z"/><path d="M960.64,189.44c-1,5.17-4.28,6.88-6.73,9.16Q897.66,251.24,841.3,303.74c-15.48,14.44-27.49,14.5-42.82.17Q739.94,249.16,681.4,194.36c-1-.9-1.65-2.1-3.81-4.92,13.94,0,26.36-.93,38.6.19,27.85,2.53,48.5-5.53,55.42-35.35,5,1.8,5.18,5.68,6.49,8.55q11.92,26.23,23.44,52.64c3.63,8.3,7.63,15.83,18.41,15.92,10.29.08,14.33-7,18.13-14.83,7.46-15.31,15.12-30.52,23.85-48.09,11.33,21.33,29.65,21.73,48.72,21.08C927,189,943.46,189.44,960.64,189.44Z"/><path d="M616.48,524.83C614.2,603,591.23,673.41,537.89,732.37c-23.69,26.19-52.27,45.28-83.84,60.57-8.72,4.21-16,3.17-24.2-.64-59.57-27.51-102.39-71.88-130.21-130.68-23.94-50.62-34.46-104.14-31-160.29.45-7.29,3-11,9.81-13.57q79.09-30.31,158-61.26c4.76-1.85,8.87-1.17,13.44.62,50.45,19.65,100.83,39.45,151.53,58.42,11.09,4.15,16.94,9.44,15.23,21.77C615.82,513.05,616.48,519,616.48,524.83Zm-44,8.47c2.46-7.32-2.91-11.46-12.56-15-35.43-13-70.49-27.09-105.7-40.73-12.61-4.89-12.73-4.85-12.73,8.83q0,124,0,248.05c0,1.56.1,3.12,0,4.68-.41,6.76,2,8.44,8.12,5,10.56-5.92,21-12.08,30.43-19.63C540.32,676.45,564.59,610.76,572.47,533.3Z"/><path d="M871.71,937.91c-39.6,11.68-78.06,9.3-115-8.53-30.4-14.68-56.65-36-84.6-54.66-6.67-4.45-13.1-9.24-20.54-12.76l93.23,82.71C727,950.1,710.11,950.84,693,949s-32.06-8.45-45.9-18.42A448.29,448.29,0,0,1,591.61,884c-.89,3.33,1.35,5.18,2.51,7.26,10,17.91,19.89,35.84,30.18,53.57,2.51,4.33,1.75,5.87-2.79,7.37-23.28,7.66-45.34,8.19-65.1-9.31C549,936.29,541,930.48,532,923.41c3.75,10.48,6.74,19.72,10.39,28.69,1.82,4.46.58,6.36-3.44,8.11a58.35,58.35,0,0,1-12.79,4.42c-8.75,1.6-14.57-1-19.41-8.59-5.72-9-11.49-17.9-17.67-27.53,0,11.1,0,21,0,30.8,0,1.54,1.17,3.59-.72,4.51-1.7.84-3.06-.84-4.4-1.75-15.15-10.23-21.47-28.72-17.21-49.54,1.5-7.29,4.49-12.32,11.64-16.37,21-11.86,38.28-27.54,45.52-51.81,3-10.13,2.29-20.16.69-30.4-3.13-20,.35-39,11.17-56.25,14.22-22.65,37.3-30.06,62.76-20.68a109.06,109.06,0,0,1,40.36,26.49c49.19,50.24,105.48,91.44,163.88,130q32.21,21.29,65.54,40.79C869.47,935,871,935.35,871.71,937.91Z"/><path d="M13.21,937.91c39.61,11.68,78.06,9.3,115-8.53,30.4-14.68,56.65-36,84.6-54.66,6.67-4.45,13.1-9.24,20.54-12.76l-93.23,82.71c17.76,5.43,34.69,6.17,51.77,4.28s32.06-8.45,45.9-18.42A447.55,447.55,0,0,0,293.31,884c.89,3.33-1.35,5.18-2.5,7.26-10,17.91-19.9,35.84-30.19,53.57-2.51,4.33-1.75,5.87,2.79,7.37,23.29,7.66,45.34,8.19,65.1-9.31,7.4-6.55,15.46-12.36,24.4-19.43-3.75,10.48-6.74,19.72-10.4,28.69-1.82,4.46-.58,6.36,3.44,8.11a58.35,58.35,0,0,0,12.79,4.42c8.75,1.6,14.57-1,19.41-8.59,5.72-9,11.49-17.9,17.68-27.53,0,11.1,0,21,0,30.8,0,1.54-1.17,3.59.72,4.51,1.7.84,3.06-.84,4.4-1.75,15.15-10.23,21.47-28.72,17.21-49.54-1.5-7.29-4.49-12.32-11.64-16.37-21-11.86-38.28-27.54-45.52-51.81-3-10.13-2.29-20.16-.69-30.4,3.13-20-.35-39-11.16-56.25C335,735.05,311.87,727.64,286.41,737a109.06,109.06,0,0,0-40.36,26.49c-49.19,50.24-105.48,91.44-163.88,130Q50,914.82,16.63,934.32C15.45,935,13.89,935.35,13.21,937.91Z"/><path d="M442.46,178.92c-121.82,0-220.57,50.74-220.57,113.34S320.64,405.6,442.46,405.6,663,354.85,663,292.26,564.27,178.92,442.46,178.92Zm0,187c-110.79,0-200.61-33-200.61-73.67s89.82-73.67,200.61-73.67,200.6,33,200.6,73.67S553.25,365.93,442.46,365.93Z"/></svg>