<svg id="Слой_1" data-name="Слой 1" xmlns="http://www.w3.org/2000/svg" viewBox="0 0 1000 1000"><path d="M957.84,6.85c-49,10.34-99.4,20.39-149.45,31.9C794.2,42,784,53.51,773.71,63.8q-257.81,258-516.06,515.54c-14.34,14.26-18.41,22.56-1.45,38.55,44.2,41.69,86.76,85.17,129.1,128.77,11.9,12.26,19.13,13.22,31.86.44Q678.84,484.23,941.41,222.26c11.88-11.88,20.36-25.88,23.69-42.61,8.65-43.44,17.83-86.78,25.7-130.36C995.32,24.26,981.11,6.42,957.84,6.85Z"/><path d="M781.5,878.1c11-.13,15.69,7.47,21.41,13,30.3,29.44,60.62,58.88,90.41,88.83,16,16.13,29.9,17,47.58,1,65.85-59.6,66.2-59.17,3.12-123-18.11-18.32-35.26-37.7-54.4-54.86-13.33-12-13.51-22.62-6.07-37.68,14.6-29.54,27-60.18,41.2-89.9,13-27,2.33-37.4-36.53-72.79-19.86-18.09-33.64-.72-47.12,11.7-32.19,29.68-32.1,29.78-63.3-.57-.74-.72-1.44-1.48-2.22-2.15C753.19,592.41,735,553.48,710.4,556c-23.41,2.38-43.78,36.81-65,57.64-28,27.41-55,55.81-83.38,82.73-11.77,11.15-11.89,18.66-.26,29.8,22.33,21.36,42.39,45.15,65.36,65.74,16.07,14.4,13.9,24.85-.84,36.79a25.12,25.12,0,0,0-2.13,2.24c-35.58,38.07-26,80,22.27,99.5,10.19,4.12,18.06-.21,26.38-3.93,30.07-13.42,60-27.12,90-40.63C769.36,882.93,776.06,880.36,781.5,878.1Z"/><path d="M8.36,43.75c18,77.82,16.21,164,92.15,224.65,61.59,49.23,114.16,109.83,170,166.15,13,13.16,21.26,17.61,36.47,1.58,41.79-44.06,85.05-86.78,128.76-129,13.44-13,14.28-20.71.36-34.36C364,202.14,292.88,130.56,221.79,59c-14.48-14.58-31.87-22.42-51.28-26.4Q110.15,20.21,49.59,8.81C24.72,4.09,8.77,16.71,8.36,43.75Z"/><path d="M215.43,877.62c6.27,2.58,12,4.78,17.62,7.29q35.19,15.78,70.3,31.7c45.75,20.82,70.43,12.89,96-30,8.42-14.12,5-25.86-5.34-36.23Q271.89,727.87,149.45,605.67c-13.2-13.2-25.89-12.93-40.55-.83-44.45,36.68-46.05,43.62-23,96.21,12.73,29.06,40.82,59.54,33.73,86.88-7,26.89-40.66,46.85-62.64,69.83-2.14,2.24-4.36,4.38-6.55,6.56-53.5,53.5-49,83.12,17.84,124.17,16.53,10.15,27.1,2.1,37.75-8.44,29.26-29,58.25-58.25,87.51-87.23C199.9,886.49,205.35,878.36,215.43,877.62Z"/></svg>