<svg id="Слой_1" data-name="Слой 1" xmlns="http://www.w3.org/2000/svg" viewBox="0 0 1000 1000"><path d="M939.3,47.8c6.47.91,13,3.18,16.79,10.14,4,7.45,4,15-.42,22.22a45.59,45.59,0,0,1-6.93,8Q846.92,190.06,745.06,291.93c-6.19,6.2-12.62,11.75-22.13,10.15-15.38-2.59-22.45-19.83-13.52-32.86a51.49,51.49,0,0,1,6.42-7.05Q817.67,160.28,919.5,58.39C924.89,53,930.45,48.31,939.3,47.8Z"/><path d="M788.69,91c-.5,22.31-19.79,41.41-41.68,41.29-22.26-.12-41.76-20.15-41.5-42.64S725.9,47.2,747.83,47.8C770.52,48.43,789.2,68.16,788.69,91Z"/><path d="M958.9,260.42c-.09,22.73-19.76,42.44-42,42.06-22.39-.38-41.64-20.45-41.21-42.94.42-22.15,19.74-41.45,41.55-41.52C939.66,217.94,959,237.65,958.9,260.42Z"/><path d="M674.06,302.49c-33.23,7-67.39,13.83-101.32,21.64-9.62,2.21-16.54,10-23.51,17Q374.45,516,199.37,690.61c-9.72,9.67-12.48,15.29-1,26.14,30,28.26,58.82,57.74,87.52,87.3,8.07,8.31,13,9,21.6.29q177.4-178.2,355.42-355.8C671,440.48,676.72,431,679,419.65c5.86-29.45,12.09-58.84,17.42-88.38C699.47,314.3,689.83,302.2,674.06,302.49Z"/><path d="M554.51,893.16c7.43-.09,10.64,5.06,14.51,8.83,20.55,20,41.1,39.91,61.3,60.22,10.87,10.93,20.27,11.52,32.25.67,44.64-40.41,44.88-40.12,2.12-83.39-12.28-12.42-23.91-25.55-36.88-37.19-9-8.1-9.16-15.33-4.12-25.54,9.9-20,18.27-40.8,27.93-61,8.79-18.34,1.58-25.35-24.76-49.35-13.47-12.26-22.81-.48-31.94,7.94-21.83,20.12-21.77,20.18-42.92-.39-.5-.49-1-1-1.51-1.46-15.18-13.08-27.53-39.47-44.19-37.77-15.86,1.62-29.68,25-44.07,39.08C443.27,732.44,425,751.7,405.7,770c-8,7.55-8.07,12.64-.17,20.2,15.13,14.48,28.73,30.61,44.3,44.56,10.9,9.77,9.43,16.85-.57,24.95a17.32,17.32,0,0,0-1.44,1.52c-24.12,25.81-17.64,54.22,15.1,67.45,6.9,2.79,12.24-.14,17.88-2.66,20.38-9.1,40.69-18.39,61.05-27.54C546.28,896.43,550.82,894.69,554.51,893.16Z"/><path d="M30.36,327.51c12.21,52.76,11,111.16,62.47,152.31,41.76,33.37,77.4,74.45,115.23,112.63,8.84,8.93,14.42,11.94,24.73,1.08,28.33-29.88,57.66-58.84,87.29-87.44,9.11-8.79,9.68-14,.25-23.3-48.84-47.9-97.08-96.42-145.28-145-9.81-9.89-21.6-15.2-34.76-17.9q-40.92-8.37-82-16.1C41.45,300.62,30.64,309.18,30.36,327.51Z"/><path d="M170.74,892.83c4.25,1.75,8.15,3.24,11.95,4.94q23.85,10.69,47.66,21.5c31,14.11,47.75,8.73,65-20.33,5.71-9.58,3.39-17.53-3.61-24.56Q209,791.3,126,708.46c-9-9-17.55-8.77-27.49-.56-30.13,24.87-31.22,29.57-15.6,65.22,8.63,19.71,27.67,40.37,22.86,58.91-4.72,18.22-27.56,31.76-42.47,47.34-1.44,1.51-3,3-4.43,4.45C22.61,920.09,25.67,940.16,71,968c11.21,6.89,18.37,1.43,25.59-5.72,19.84-19.65,39.49-39.48,59.33-59.14C160.22,898.85,163.91,893.33,170.74,892.83Z"/></svg>