<svg id="Слой_1" data-name="Слой 1" xmlns="http://www.w3.org/2000/svg" viewBox="0 0 1000 1000"><path d="M799.41,47.83c15.89,0,31.79-.11,47.68,0,16.57.15,23.35,10,17.61,25.7C857,94.7,849,115.73,841.09,136.83c-3.86,10.35-3.83,10.38,7.63,10.39,23.85,0,47.69.16,71.53-.07,10.5-.1,19,3.15,23.92,12.74,4.74,9.29,2,17.75-3.64,26q-58.08,84.23-115.82,168.66C819.61,362,813.39,366.66,804,365c-11.4-2-16.56-10.68-13.52-23.07,8.52-34.72,17.31-69.38,25.78-104.11,2.9-11.93,5.15-11.59-9.12-11.61-24.5,0-49,0-73.51,0-18.28-.05-25.24-8.08-23-26.11q8.25-65,16.44-130.06c2-16.25,8.42-22.1,24.62-22.17C767.62,47.77,783.51,47.83,799.41,47.83Z"/><path d="M674.06,302.49c-33.23,7-67.39,13.83-101.32,21.64-9.62,2.21-16.54,10-23.51,17Q374.45,516,199.37,690.61c-9.72,9.67-12.48,15.29-1,26.14,30,28.26,58.82,57.74,87.52,87.3,8.07,8.31,13,9,21.6.29q177.4-178.2,355.42-355.8C671,440.48,676.72,431,679,419.65c5.86-29.45,12.09-58.84,17.42-88.38C699.47,314.3,689.83,302.2,674.06,302.49Z"/><path d="M554.51,893.16c7.43-.09,10.64,5.06,14.51,8.83,20.55,20,41.1,39.91,61.3,60.22,10.87,10.93,20.27,11.52,32.25.67,44.64-40.41,44.88-40.12,2.12-83.39-12.28-12.42-23.91-25.55-36.88-37.19-9-8.1-9.16-15.33-4.12-25.54,9.9-20,18.27-40.8,27.93-61,8.79-18.34,1.58-25.35-24.76-49.35-13.47-12.26-22.81-.48-31.94,7.94-21.83,20.12-21.77,20.18-42.92-.39-.5-.49-1-1-1.51-1.46-15.18-13.08-27.53-39.47-44.19-37.77-15.86,1.62-29.68,25-44.07,39.08C443.27,732.44,425,751.7,405.7,770c-8,7.55-8.07,12.64-.17,20.2,15.13,14.48,28.73,30.61,44.3,44.56,10.9,9.77,9.43,16.85-.57,24.95a17.32,17.32,0,0,0-1.44,1.52c-24.12,25.81-17.64,54.22,15.1,67.45,6.9,2.79,12.24-.14,17.88-2.66,20.38-9.1,40.69-18.39,61.05-27.54C546.28,896.43,550.82,894.69,554.51,893.16Z"/><path d="M30.36,327.51c12.21,52.76,11,111.16,62.47,152.31,41.76,33.37,77.4,74.45,115.23,112.63,8.84,8.93,14.42,11.94,24.73,1.08,28.33-29.88,57.66-58.84,87.29-87.44,9.11-8.79,9.68-14,.25-23.3-48.84-47.9-97.08-96.42-145.28-145-9.81-9.89-21.6-15.2-34.76-17.9q-40.92-8.37-82-16.1C41.45,300.62,30.64,309.18,30.36,327.51Z"/><path d="M170.74,892.83c4.25,1.75,8.15,3.24,11.95,4.94q23.85,10.69,47.66,21.5c31,14.11,47.75,8.73,65-20.33,5.71-9.58,3.39-17.53-3.61-24.56Q209,791.3,126,708.46c-9-9-17.55-8.77-27.49-.56-30.13,24.87-31.22,29.57-15.6,65.22,8.63,19.71,27.67,40.37,22.86,58.91-4.72,18.22-27.56,31.76-42.47,47.34-1.44,1.51-3,3-4.43,4.45C22.61,920.09,25.67,940.16,71,968c11.21,6.89,18.37,1.43,25.59-5.72,19.84-19.65,39.49-39.48,59.33-59.14C160.22,898.85,163.91,893.33,170.74,892.83Z"/></svg>