<?xml version="1.0" encoding="UTF-8"?>
<svg id="_Слой_1" data-name="Слой 1" xmlns="http://www.w3.org/2000/svg" viewBox="0 0 1000 1000">
  <defs>
    <style>
      .cls-1 {
        fill: #000;
        stroke-width: 0px;
      }
    </style>
  </defs>
  <path class="cls-1" d="M83.68,933.18c-44.77.24-78.94-40.82-70.52-83.59,2.28-11.6,7.16-23.06,12.73-33.58,39.92-75.39,80.66-150.36,120.39-225.85,11.97-22.75,29.67-32.95,54.82-35.86,101.53-11.72,202.96-24.36,304.34-37.33,10.88-1.39,27.2-.07,27.67-16.84.48-17.23-16.03-16.11-26.85-17.51-100.37-12.95-200.77-25.85-301.34-37.08-27.49-3.07-46.69-13.13-59.81-38.07-38.79-73.72-78.71-146.84-118.31-220.13-11.77-21.78-19.57-44.26-12.34-69.22,13.43-46.31,56.27-63.79,106.85-42.21,107.89,46.02,215.41,92.9,323.07,139.44,158.28,68.42,316.55,136.85,474.82,205.27,4.6,1.99,9.19,4,13.8,5.95,32.93,13.93,55.76,35.17,55.33,74.2-.41,37.62-22.82,58.1-54.46,71.78-74.53,32.23-149.08,64.43-223.61,96.66-192.31,83.16-384.6,166.37-576.96,249.41-16.49,7.12-32.74,15.65-49.62,14.56Z"/>
</svg>