<svg id="Слой_1" data-name="Слой 1" xmlns="http://www.w3.org/2000/svg" viewBox="0 0 1000 1000"><path d="M757.09,404.57c-4.56,155.8-50.35,296.2-156.67,413.73-47.24,52.21-104.21,90.28-167.15,120.75-17.38,8.41-31.81,6.33-48.25-1.26C266.26,882.94,180.9,794.5,125.45,677.26,77.72,576.34,56.75,469.65,63.68,357.73c.9-14.54,6-21.88,19.57-27.06q157.68-60.43,314.87-122.12c9.49-3.7,17.68-2.33,26.8,1.22,100.56,39.17,201,78.65,302.07,116.47,22.11,8.28,33.78,18.83,30.37,43.4C755.77,381.08,757.09,392.91,757.09,404.57Zm-87.74,16.88c4.89-14.58-5.8-22.84-25.05-29.93-70.62-26-140.51-54-210.7-81.19-25.15-9.74-25.38-9.66-25.39,17.6q-.1,247.26,0,494.5c0,3.11.2,6.23,0,9.33-.81,13.49,3.95,16.83,16.19,10,21.05-11.79,41.79-24.08,60.67-39.13C605.25,706.83,653.63,575.88,669.35,421.45Z"/><path d="M940.61,28c6.78.95,13.66,3.32,17.6,10.62,4.21,7.81,4.2,15.74-.44,23.3-1.9,3.11-4.65,5.76-7.26,8.37Q843.79,177.06,737,283.83c-6.49,6.5-13.23,12.31-23.2,10.64-16.13-2.71-23.53-20.79-14.18-34.44a54.66,54.66,0,0,1,6.73-7.4Q813.12,145.85,919.86,39.05C925.51,33.39,931.34,28.48,940.61,28Z"/><path d="M782.75,73.2c-.52,23.37-20.74,43.4-43.68,43.27-23.34-.12-43.77-21.12-43.5-44.69S716.93,27.32,739.93,28C763.71,28.6,783.29,49.29,782.75,73.2Z"/><path d="M961.16,250.8c-.1,23.83-20.72,44.49-44,44.09-23.46-.4-43.64-21.43-43.19-45,.44-23.21,20.69-43.45,43.56-43.52C941,206.28,961.26,226.93,961.16,250.8Z"/></svg>