<svg id="Слой_1" data-name="Слой 1" xmlns="http://www.w3.org/2000/svg" viewBox="0 0 1000 1000"><path d="M959.48,273.71c-6,206.36-66.68,392.31-207.5,548C689.42,890.84,614,941.26,530.6,981.61c-23,11.14-42.13,8.39-63.91-1.67C309.4,907.3,196.35,790.16,122.91,634.88c-63.21-133.66-91-275-81.81-423.2,1.19-19.25,8-29,25.91-35.85q208.85-80,417-161.73c12.57-4.91,23.41-3.09,35.5,1.62C652.73,67.6,785.77,119.89,919.63,170c29.28,11,44.73,24.93,40.21,57.47C957.74,242.6,959.48,258.28,959.48,273.71Zm-116.2,22.36c6.48-19.31-7.68-30.24-33.17-39.63C716.57,222,624,184.91,531,148.9c-33.3-12.9-33.61-12.79-33.62,23.31q-.14,327.48,0,654.94c0,4.12.26,8.26,0,12.36-1.07,17.87,5.24,22.29,21.45,13.21,27.88-15.62,55.34-31.9,80.35-51.82C758.39,674,822.46,500.61,843.28,296.07Z"/></svg>