<svg id="Слой_1" data-name="Слой 1" xmlns="http://www.w3.org/2000/svg" viewBox="0 0 1000 1000"><path d="M596.27,720.55q-114.6,0-229.18,0c-76.61-.07-122.72-38.12-137-112.71-27.85-145.5-56.23-290.91-83.16-436.58-4.33-23.41-12.86-33.86-37.6-31-18.17,2.09-36.81,1.15-55.17.16C27.4,139,10.39,122.65,10.35,100s17-40,43.68-40.28c30.23-.34,60.63-3.45,90.8,2.67,23.67,4.81,44,15.68,56.87,35.74,9.63,15,21.69,16.6,37.25,16.58q331.34-.49,662.69-.22c73.12,0,101,35.55,82.43,105.37q-30.89,116-62.31,231.91c-18.9,69.39-62.82,103-134.21,103-152.79.1-305.58.56-458.36-.5-24.55-.17-29.12,6.1-24.12,29.52,10.11,47.43,17.67,55.33,65.45,55.33q229.18,0,458.36.06c11,0,21.87-.62,32.71,3.28,18.06,6.48,26.74,19.42,26.63,37.68s-9.2,31-27.26,37.25c-10,3.44-19.93,3-30,3Q713.63,720.62,596.27,720.55Z"/><path d="M231.1,859.81c-.36-43.74,36-81.48,79.32-82.43,43.21-1,80.22,35.57,81.23,80.16,1,45.63-35.79,84.05-80.32,83.8C268.12,941.1,231.45,903.83,231.1,859.81Z"/><path d="M888.83,860.65c-.62,44.31-37.59,81.17-80.82,80.59-43.41-.58-79.88-37.9-79.93-81.79-.05-45,38.84-83.56,82.5-81.9C854.76,779.23,889.46,816.08,888.83,860.65Z"/></svg>