<svg id="Слой_1" data-name="Слой 1" xmlns="http://www.w3.org/2000/svg" viewBox="0 0 1000 1000"><path d="M982.44,222.08c0,48.53-.1,97.06.11,145.59.12,26.37-7.44,47.35-34.34,58.06-25.63,10.21-41.83-4.66-57.79-20.11-21.58-20.89-43.19-41.83-63.59-63.84-12.44-13.42-21.27-12.49-33.71.25Q722.86,413.94,651,484.23c-11.5,11.27-12.75,19.11-.59,31Q723.46,586.77,795,659.86c12.08,12.33,20.38,10.25,31.22-1.09q33.51-35.09,68.64-68.61c15.54-14.88,32.37-25.75,55.85-14.89,21.64,10,31.43,26.75,31.5,49.34.29,101.68.81,203.37-.26,305-.38,35.5-18.59,53.93-54.18,54.34-100.52,1.18-201,.74-301.58.19-22.31-.12-39.91-10.5-49.28-32-9.61-22.08-3-40.7,12.82-56.87,22.61-23.14,45-46.55,68.64-68.6,12.92-12.05,14.08-20,.57-33.12q-72.23-69.92-142.22-142.1c-13-13.31-21.14-12.24-33.54.48-46.8,48-94.05,95.53-142.26,142.07-14.15,13.66-10.63,21.64,1.51,33.08,22.68,21.4,44.15,44.08,66.31,66C426,910.21,432.85,930,423,952.94s-29.39,31.49-53.13,31.52c-98.22.12-196.44.69-294.65-.3-38.73-.4-57.12-19.56-57.42-58.74-.78-99.37-.35-198.75-.18-298.13.05-23.95,9.7-41.86,32.71-52.24,23.53-10.62,40.23.7,55.72,15.58,23.32,22.41,46.36,45.17,68.63,68.62,11.43,12,19.82,11.63,31.36-.12q71.63-73,144.65-144.57c13-12.72,8.73-20.38-2-30.91-47.73-47-95.31-94.26-142.06-142.27-13.32-13.68-22.08-11.21-33.88,1.27-22.21,23.5-45.2,46.32-68.69,68.55-14.68,13.91-31,23.83-53,14.1C29.48,415.8,18,399.68,17.88,377c-.49-102.83-.74-205.68.11-308.51.27-33.24,21-52,52.91-52.37,101.67-1.25,203.37-.92,305-.16,22.24.17,39.93,11.53,48,33.58,7.51,20.44,2.74,38.76-12.4,54.17-23.49,23.9-46.77,48-71.06,71.09-11.81,11.22-12.34,18.69-.12,30.59q73.29,71.3,144.67,144.56c12.14,12.43,19.92,10.36,31-.9,47.8-48.61,95.82-97,144.74-144.5,13.27-12.88,8.75-20.29-1.94-30.55-22.5-21.6-44.19-44-66.23-66.12-16.66-16.7-26.1-35.35-16-59.25,9.76-23.06,28.45-32.87,52.21-32.94,99.37-.31,198.76-.85,298.12.31,37.15.43,54.29,19,55.16,57C983.24,122.68,982.39,172.39,982.44,222.08Z"/></svg>