<svg id="Слой_1" data-name="Слой 1" xmlns="http://www.w3.org/2000/svg" viewBox="0 0 1000 1000"><path d="M528.68,9C675.79,15.91,825.85,75.6,927,227.34c109.23,163.83,75,387.54-78,512.06-29.79,24.25-44.57,48.55-40.75,87.28,2.87,29,3.39,58.9-3.23,88.1-8.78,38.7-33.25,63.08-70.77,71.92-31.8,7.5-64.82,3-97.3,2.48-15-.26-17.43-11.75-17.66-23.64-.42-21.35-.11-42.72-.73-64.06-.53-18.36-7.9-32.94-28.5-32.09-18.87.77-25,14.93-25.09,32.09-.16,20.34-.54,40.68-.33,61,.18,18.6-7,28.28-27.16,27.52-25.39-.95-50.85-.72-76.27-.12-18.52.43-25.48-8.63-25.34-26,.16-21.35.06-42.72-.64-64.06-.57-17.25-8.37-30.6-27-30.53s-26.11,13.31-26.35,30.82c-.28,20.34-.77,40.69-.34,61s-7.56,30-28.93,29c-22.32-1.12-44.77.46-67.11-.55-54.58-2.46-91.13-38.57-93.57-93.13-1.32-29.44-1.85-59.08,0-88.45,1.6-25.16-8.47-40.72-27.68-56.28C66.56,672.5,9.79,570.17,9.19,443.5,8.43,283.75,87.53,167.19,220.81,85.59,306,33.46,399.63,8.83,528.68,9ZM198.57,499.1c-.16,66.22,52.27,120.3,116.78,120.46,65.53.16,120.8-55.58,120.18-121.19-.62-64.41-54.94-118.54-119.38-118.94S198.74,433,198.57,499.1Zm366.36-1.47c-.82,65.81,51.13,120.7,115.37,121.91,64.51,1.2,121.49-54.84,121.68-119.7.19-63.82-53.82-118.94-118-120.39C620.44,378,565.73,432.3,564.93,497.63Z"/></svg>