<svg id="Слой_1" data-name="Слой 1" xmlns="http://www.w3.org/2000/svg" viewBox="0 0 1000 1000"><path d="M413.48,26.73c47.39,0,94.78-.32,142.17.1,49.4.43,69.62,29.74,52.49,76.61-23,63-46.94,125.75-70.39,188.63-11.5,30.86-11.42,31,22.77,31,71.08.05,142.17.49,213.25-.2,31.3-.3,56.74,9.39,71.33,38,14.14,27.69,6.09,52.93-10.87,77.52Q661.1,689.47,488.91,941.23c-15.19,22.2-33.73,36.1-61.76,31.16-34-6-49.37-31.82-40.31-68.77,25.39-103.52,51.6-206.85,76.85-310.41,8.66-35.55,15.36-34.55-27.17-34.62-73.06-.1-146.12.12-219.18-.07-54.5-.14-75.27-24.09-68.45-77.86q24.6-193.87,49-387.77C204,44.43,223,27,271.31,26.78,318.7,26.55,366.09,26.73,413.48,26.73Z"/></svg>