<svg id="Слой_1" data-name="Слой 1" xmlns="http://www.w3.org/2000/svg" viewBox="0 0 1000 1000"><path d="M808.67,109.38c9.54,0,19.1-.36,28.62.12,6.44.32,8.11-2.17,8-8.23-.34-15.58-.21-31.17-.08-46.75.11-13.13,7-21.22,18-21.49,11.26-.27,18.44,8,18.57,21.75.13,15.26.39,30.54-.11,45.79-.24,7.28,2.25,9.14,9.27,9,18.75-.47,37.53-.44,56.29-.07,19.65.38,32.37,14.87,29.48,32.82-2,12.17-9.53,19.9-22.46,22.93A25.77,25.77,0,0,1,927,153.68c-3.07-5-6.31-6.8-12.12-6.75-34.35.27-68.7.21-103,0-5.24,0-8.51,1.22-11.51,6.09-6.93,11.25-19.3,15.17-31.44,11.13a27.86,27.86,0,0,1-19.16-26.86c.25-12.65,8.31-22.83,20.93-26.4a22.28,22.28,0,0,1,5.55-1.32c10.81-.13,21.63-.06,32.44-.06Z"/><path d="M826.06,227.09c0-17.79.15-35.58-.08-53.36-.07-5.24,1.42-7.24,7-7.17q30.49.42,61,0c5.67-.08,7,2.25,7,7.31-.13,35.89-.06,71.78-.13,107.67a30.28,30.28,0,0,1-4.54,16.33c-6.94,11-13.76,22.11-21.12,32.85-6.73,9.82-16.64,9.78-23.17-.06-7.38-11.1-14.27-22.53-21.25-33.9-3.6-5.85-4.7-12.35-4.65-19.17C826.13,260.75,826.06,243.92,826.06,227.09Z"/><path d="M304.05,605.78c0-57.36,0-111.7,0-166,0-7.36-.06-14.73.22-22.09.35-9.52,3.62-17.56,13.59-20.49,10.53-3.1,18.4.89,24.44,10,19.13,28.84,38.56,57.49,57.82,86.25,24.88,37.16,49.7,74.36,74.79,111.92,9.28-6.76,5.71-14.74,5.75-21.35.35-52.3.17-104.6.22-156.9,0-11.84-1-24.78,13.26-29.71,15.41-5.33,22.45,5.84,29.63,16.62q57.57,86.41,115.47,172.62c4,6,8.27,11.86,13,18.55,8.58-6.22,5.26-14.14,5.3-20.6.3-51.57.06-103.13.25-154.7,0-13-2.6-27.92,14.79-32.85,16-4.53,21.94,8,28.89,18.38q82.42,123,165,245.84c11.78,17.45,19.52,34.67,8.62,55.36s-29.84,23.81-50.71,23.8q-337-.18-674,.34c-18.22,0-23.66-4.51-23.48-23.1.91-96.49.39-193,.47-289.49,0-12.44-1.64-26.28,14.34-31s22.11,7.41,29.11,17.87q57.72,86.32,115.58,172.56C290.28,593.4,292.66,600.86,304.05,605.78Z"/><path d="M477.21,872.91q-192.09,0-384.19.08c-11.16,0-22.11-.3-32.2-5.65C45.61,859.27,39,846.1,39,829.3s6.59-30,21.83-38c9.35-4.92,19.5-5.69,30-5.68q387.5.18,775,.1a119.23,119.23,0,0,1,13.24.22c24.52,2.77,40.69,20.81,40.1,44.49-.57,22.83-16.36,39.82-40.12,42.18-9.47.95-19.12.31-28.68.31Z"/></svg>