<svg id="Слой_1" data-name="Слой 1" xmlns="http://www.w3.org/2000/svg" viewBox="0 0 1000 1000"><path d="M828.41,48q42.8,0,85.59,0c4.32,0,8.61.07,12.2,3,3.85,3.08,5.74,7.1,5.07,12-.77,5.63-4,9.88-9.48,10.89-5.64,1.05-7.57,3.51-7.42,9.12.65,25.54-9.62,46.46-27.69,64-11.27,10.91-22.35,22-33.84,32.7-4.61,4.27-4.92,7.18-.21,11.71,12.34,11.86,24.12,24.29,36.3,36.32,16.62,16.44,25.86,36,25.43,59.6-.11,5.67,1.23,8.7,7.46,10,6.52,1.35,10,6.59,9.45,13.43-.6,7.23-5.14,11.15-12.19,12.19a35.05,35.05,0,0,1-5.13.19q-85.59,0-171.18,0a41,41,0,0,1-6-.26c-6.77-1-11-4.87-11.61-11.71s2.19-12.19,8.93-13.75c5.7-1.32,7.12-4.29,7.27-9.56.71-25.59,10.89-46.65,29.89-64,11.15-10.16,21-21.76,31.77-32.34,4.56-4.48,4.42-7.59-.12-11.92-10.32-9.84-19.94-20.42-30.39-30.11-19.35-18-30.44-39.62-31.19-66.21-.13-4.65-.86-8-6.47-9.24-7.52-1.7-10.68-7.42-9.55-14.9,1.09-7.29,6.13-10.83,13.21-11C752,47.91,765.36,48,778.77,48Q803.58,48,828.41,48Zm-.16,26.72c-16.53,0-33.08.43-49.59-.17-8.31-.31-10.55,3-9.85,10.48A77.68,77.68,0,0,0,774,107.41c2.69,6.61,6.72,9.43,14.26,9.28,24.5-.47,49-.17,73.53-.17,16.65,0,21.21-3.69,24.19-20.24.76-4.17.46-8.52.84-12.77.61-6.7-2.33-9-9-8.88C861.32,75,844.78,74.74,828.25,74.73Zm48.29,178.5c-16.43-16.36-31.08-30.93-45.72-45.53-2.49-2.49-4.5-1.42-6.53.64-12.79,12.95-25.64,25.85-38.33,38.9-1.4,1.43-3.76,2.87-2.65,6Z"/><path d="M304.05,605.78c0-57.36,0-111.7,0-166,0-7.36-.06-14.73.22-22.09.35-9.52,3.62-17.56,13.59-20.49,10.53-3.1,18.4.89,24.44,10,19.13,28.84,38.56,57.49,57.82,86.25,24.88,37.16,49.7,74.36,74.79,111.92,9.28-6.76,5.71-14.74,5.75-21.35.35-52.3.17-104.6.22-156.9,0-11.84-1-24.78,13.26-29.71,15.41-5.33,22.45,5.84,29.63,16.62q57.57,86.41,115.47,172.62c4,6,8.27,11.86,13,18.55,8.58-6.22,5.26-14.14,5.3-20.6.3-51.57.06-103.13.25-154.7,0-13-2.6-27.92,14.79-32.85,16-4.53,21.94,8,28.89,18.38q82.42,123,165,245.84c11.78,17.45,19.52,34.67,8.62,55.36s-29.84,23.81-50.71,23.8q-337-.18-674,.34c-18.22,0-23.66-4.51-23.48-23.1.91-96.49.39-193,.47-289.49,0-12.44-1.64-26.28,14.34-31s22.11,7.41,29.11,17.87q57.72,86.32,115.58,172.56C290.28,593.4,292.66,600.86,304.05,605.78Z"/><path d="M477.21,872.91q-192.09,0-384.19.08c-11.16,0-22.11-.3-32.2-5.65C45.61,859.27,39,846.1,39,829.3s6.59-30,21.83-38c9.35-4.92,19.5-5.69,30-5.68q387.5.18,775,.1a119.23,119.23,0,0,1,13.24.22c24.52,2.77,40.69,20.81,40.1,44.49-.57,22.83-16.36,39.82-40.12,42.18-9.47.95-19.12.31-28.68.31Z"/></svg>