<svg id="Слой_1" data-name="Слой 1" xmlns="http://www.w3.org/2000/svg" viewBox="0 0 1000 1000"><path d="M775.37,165.44c0,12.05-.2,24.1.09,36.13.13,5.39-1.43,8.57-6.71,10.88-25.06,11-40.33,30.87-49.57,56-1.54,4.18-2.64,9-7.67,10.06-5.69,1.26-8.54-3.33-11.29-7.1-49.37-67.62-49.13-143.72-1.3-211.16,2.92-4.12,5.65-10,12.45-8.38,6.53,1.55,6.58,7.54,8.08,12.71,7.42,25.51,22.66,44.45,47.84,54.1,6.53,2.51,8.48,6,8.21,12.56C775,142.61,775.37,154,775.37,165.44Z"/><path d="M963.39,139.55c.93,4.92-2.25,6.71-6,8.3-8.74,3.71-17.43,7.55-26.12,11.37-2.64,1.17-5.5,2.48-5.43,5.87s2.93,4.61,5.57,5.77c8.7,3.81,17.32,7.83,26.15,11.31,5,2,6.72,4.6,5.74,10.06-5.38,29.89-16.89,57.06-35.76,80.9-6.88,8.69-13.65,7.53-17.26-2.81-9.34-26.69-25.61-47.13-52-58.66-3.61-1.58-5.32-3.68-5.3-7.86q.24-38,0-76.08c0-4.12,1.31-6.35,5.16-7.74C886.54,109.79,902.9,89.16,910,60.35c2.35-9.46,9.51-12.22,15.05-5.54C945.56,79.49,958,108,963.39,139.55Z"/><path d="M832.45,213.63c0,40.22.13,80.44-.07,120.66-.08,16.18-13.51,25.28-26.63,18.46-7.71-4-9.81-11-9.78-19.13.08-26.92,0-53.84,0-80.76,0-53.83-.09-107.67,0-161.51C796.1,74.28,810.66,65,824,73.1c7.56,4.59,8.46,12,8.45,19.87Q832.39,153.3,832.45,213.63Z"/><path d="M304.05,605.78c0-57.36,0-111.7,0-166,0-7.36-.06-14.73.22-22.09.35-9.52,3.62-17.56,13.59-20.49,10.53-3.1,18.4.89,24.44,10,19.13,28.84,38.56,57.49,57.82,86.25,24.88,37.16,49.7,74.36,74.79,111.92,9.28-6.76,5.71-14.74,5.75-21.35.35-52.3.17-104.6.22-156.9,0-11.84-1-24.78,13.26-29.71,15.41-5.33,22.45,5.84,29.63,16.62q57.57,86.41,115.47,172.62c4,6,8.27,11.86,13,18.55,8.58-6.22,5.26-14.14,5.3-20.6.3-51.57.06-103.13.25-154.7,0-13-2.6-27.92,14.79-32.85,16-4.53,21.94,8,28.89,18.38q82.42,123,165,245.84c11.78,17.45,19.52,34.67,8.62,55.36s-29.84,23.81-50.71,23.8q-337-.18-674,.34c-18.22,0-23.66-4.51-23.48-23.1.91-96.49.39-193,.47-289.49,0-12.44-1.64-26.28,14.34-31s22.11,7.41,29.11,17.87q57.72,86.32,115.58,172.56C290.28,593.4,292.66,600.86,304.05,605.78Z"/><path d="M477.21,872.91q-192.09,0-384.19.08c-11.16,0-22.11-.3-32.2-5.65C45.61,859.27,39,846.1,39,829.3s6.59-30,21.83-38c9.35-4.92,19.5-5.69,30-5.68q387.5.18,775,.1a119.23,119.23,0,0,1,13.24.22c24.52,2.77,40.69,20.81,40.1,44.49-.57,22.83-16.36,39.82-40.12,42.18-9.47.95-19.12.31-28.68.31Z"/></svg>