<svg id="Слой_1" data-name="Слой 1" xmlns="http://www.w3.org/2000/svg" viewBox="0 0 1000 1000"><path d="M993.35,402.63c1.21,22.11-12.05,39.2-28,54.84-53.9,52.8-107.57,105.83-162,158-14.32,13.73-19,27.21-15.4,47.41,13.71,76.19,24.88,152.82,38,229.12,5.07,29.47,3.19,55.29-23.46,74.3-25.7,18.33-50.15,11.81-75.36-1.6C660.49,929.29,593.05,895.37,527,858.9c-20-11.06-35.51-10.76-55,0-66.12,36.33-133.18,71-199.68,106.58-25.3,13.55-50.36,19.38-75.3.34-23.88-18.24-29.44-42-24-71.46,14.27-77.1,25.8-154.7,40.17-231.78,3.8-20.35-1.48-33.66-15.73-47.27-50.24-48-99.67-96.86-149.38-145.43-6.39-6.24-12.59-12.67-18.83-19.07-19.49-20-28.12-42.89-19-70.63s31.73-36.75,57.26-40.74c69.59-10.85,139.14-22.18,209-31.12,31.64-4.06,53.44-13,67.29-46.3,26.22-63.16,58.7-123.73,88.59-185.36,1.74-3.58,3.59-7.09,5.35-10.65,12.78-25.83,31.84-43.64,62-43.93,30.67-.29,48.88,18.54,61.4,44.33C593.2,132.47,626.87,197.86,656.6,265c12.74,28.76,31.65,38.95,60.71,42.71,70.82,9.18,141.4,20.31,211.93,31.59C972.84,346.28,993,366.48,993.35,402.63Z"/></svg>