<svg id="Слой_1" data-name="Слой 1" xmlns="http://www.w3.org/2000/svg" viewBox="0 0 1000 1000"><path d="M411.76,338.83c0,64.29.62,128.59-.34,192.87-.28,19,5.29,32.7,18.94,46.16,86,84.85,171.17,170.47,256.49,256,29,29.07,27.63,40.56-6.62,63.3C501.88,1015.51,257,979.7,113.88,814.32-31,647-27.32,401.34,122.11,235.05c66.27-73.75,149-117.51,245.41-136.84,31.49-6.32,43.76,3.51,44,36.06C412.13,202.45,411.73,270.64,411.76,338.83Z"/><path d="M504.43,257.44c0-61.36-.33-122.72.15-184.07.24-30.86,11.34-41.12,40.48-40.05C757,41.12,927.72,210.69,937.42,422.94c1.73,37.81-6.67,47-44.81,47-120.76.16-241.52-.39-362.28.5-20.29.14-26.77-5.39-26.36-26C505.22,382.11,504.42,319.77,504.43,257.44Z"/><path d="M537.53,559.37c144.44,0,282.56-.34,420.69.29,28.2.13,37.89,13.64,32.95,42C975.17,693.53,935.24,773,868.58,839c-18.91,18.71-33.82,21-53.76.77C727.32,751,638.8,663.2,550.71,575,547.4,571.7,544.63,567.85,537.53,559.37Z"/></svg>