<svg id="Слой_1" data-name="Слой 1" xmlns="http://www.w3.org/2000/svg" viewBox="0 0 1000 1000"><path d="M985.5,59C977,104.78,968,159,956.66,212.77c-5.81,27.61-23.9,49-43.74,68.63q-184.3,182.91-368,366.44c-14.6,14.65-22.88,16.69-38.26.69C455.86,595.69,403.86,544,351.2,493c-14.48-14-14-22.17.06-36.19Q538.45,270.26,724.12,82.23c34-34.53,76.61-43.86,121-51.3q49.59-8.31,99.14-16.77C972.44,9.39,987.27,22.35,985.5,59Z"/><path d="M76.17,746.35c6.23,2,10,3.66,14,4.36,23.58,4.14,48.45,27.93,68.84,14.61,30.9-20.18,55.83-49.93,81.8-77,10.88-11.36-.05-22.76-6.62-32.75-28-42.47-56.33-84.66-84.12-127.24-18.6-28.49,9.41-85.26,43.16-87.71,11.19-.82,18.69,6.87,25.91,14.08Q382.06,617.52,545,780.35c17,17,17.91,33,.25,49.76-5.16,4.89-10.67,9.59-15,15.17-16.94,21.78-34.35,23.17-57.14,6.7-40.37-29.15-83-55.19-123.56-84-20.14-14.32-36.34-16-52.17,4.79A76.89,76.89,0,0,1,282.53,788c-43.89,32.6-62.66,70.28-33.7,124.15,11.33,21.07-10,51.88-40.64,70-23.08,13.63-33.4-6-45.62-17.9-41.45-40.52-82.2-81.77-123.15-122.8-33.63-33.71-33.63-38.93,1.34-73.29C51.31,757.8,60.23,743.81,76.17,746.35Z"/></svg>