<svg id="Слой_1" data-name="Слой 1" xmlns="http://www.w3.org/2000/svg" viewBox="0 0 1000 1000"><path d="M993.15,624c.32-23.33-9.28-39.89-30.51-50-31.43-14.89-50.13-39.58-49.93-74.63.19-33.82,18.11-58.34,48.6-72.67,23.61-11.09,32.65-29.35,32-54.63-.78-28.08.13-56.2-.25-84.29-.93-69.16-47.23-115.26-116.75-115.88-50.75-.46-101.51-.11-152.27-.11q-297.73,0-595.47.12C62,172.05,18.72,209.31,10.21,274.9c-3.36,25.9-1.33,52.46-3,78.64-2.4,37,9,62.41,45,80.8,50.58,25.85,51.57,104.25,1.39,130.4C15.67,584.47,4.26,611.52,7.12,650.4c1.46,19.84-.53,39.93.91,59.77,5.66,78,48.84,117.89,127.12,118q182.18.21,364.35,0c126,0,252,.36,377.94-.17,68-.28,114.44-46.79,115.54-114.28C993.47,683.82,992.74,653.9,993.15,624ZM775.26,602.06c-.3,43.15-20.21,62.66-64,62.74q-209.32.41-418.66,0c-43.2-.07-65.19-18.59-66.43-61.63q-3-103.2,0-206.55c1.27-43,23.26-61.24,66.62-61.43,69.77-.3,139.55-.08,209.33-.08s139.55-.26,209.32.1c43.67.23,63.5,19.69,63.79,62.95Q776,500.11,775.26,602.06Z"/><path d="M687.75,445.11c-.67,37.13-.57,74.28-.08,111.42.23,17.63-7.7,23.81-24.79,23.63-54.35-.57-108.71-.21-163.06-.21-53.44,0-106.9-.62-160.33.36-20.06.37-27.51-6.71-26.92-26.76,1.05-36.2.93-72.47.05-108.69-.46-19,7.23-25.18,25.76-25.09q161.69.86,323.39,0C680.33,419.72,688.09,426.39,687.75,445.11Z"/></svg>