<svg id="Слой_1" data-name="Слой 1" xmlns="http://www.w3.org/2000/svg" viewBox="0 0 1000 1000"><path d="M500.55,13.9q151.24,0,302.49,0c15.28,0,30.44.26,43.14,10.44,13.6,10.9,20.27,25.11,17.91,42.52-2.7,19.92-14.23,34.93-33.49,38.51-19.93,3.72-26.76,12.39-26.25,32.22,2.32,90.26-34,164.22-97.86,226.07-39.83,38.56-79,77.85-119.61,115.56-16.27,15.11-17.37,25.38-.72,41.39,43.6,41.91,85.26,85.84,128.28,128.37,58.76,58.09,91.4,127.24,89.88,210.67-.37,20,4.37,30.72,26.38,35.28,23,4.76,35.44,23.29,33.41,47.48-2.14,25.54-18.18,39.42-43.1,43.08-6,.88-12.08.65-18.12.65q-302.5,0-605,0c-7,0-14.19.08-21.13-.92-23.93-3.47-38.79-17.23-41-41.41-2.2-23.69,7.74-43.07,31.54-48.59,20.17-4.68,25.2-15.18,25.71-33.77,2.52-90.47,38.48-164.91,105.64-226.11C338,599.41,372.8,558.43,410.91,521c16.12-15.82,15.64-26.81-.4-42.12C374,444.11,340,406.73,303.08,372.46c-68.39-63.48-107.58-140-110.22-234-.47-16.45-3-28.18-22.87-32.67-26.59-6-37.74-26.23-33.77-52.67,3.87-25.77,21.67-38.27,46.71-38.72,47.38-.85,94.78-.47,142.17-.51Q412.82,13.83,500.55,13.9ZM500,108.36c-58.43,0-116.92,1.5-175.27-.63-29.38-1.08-37.29,10.49-34.8,37.06,2.56,27.3,7.91,53.51,18.32,79.05,9.52,23.38,23.75,33.33,50.39,32.82C445.24,255,531.9,256,618.54,256c58.84,0,74.94-13,85.5-71.52,2.66-14.74,1.6-30.12,3-45.15,2.15-23.66-8.22-31.86-31.72-31.39C616.87,109.17,558.42,108.37,500,108.36ZM670.67,739.23C612.6,681.42,560.8,629.91,509.09,578.31c-8.82-8.8-15.93-5-23.11,2.25-45.19,45.79-90.6,91.37-135.47,137.48-4.94,5.08-13.28,10.15-9.37,21.19Z"/></svg>