<svg id="Слой_1" data-name="Слой 1" xmlns="http://www.w3.org/2000/svg" viewBox="0 0 1000 1000"><path d="M525.2,78.85c78.46-.7,141.14,21.52,192.9,72.39,18.79,18.46,38.35,36.15,57.77,54,38.67,35.46,58.49,78.55,52.64,131.58C827.14,349.2,830,358.13,839,367.17c10.26,10.28,17,14,30,2.34,20.48-18.24,37.24-16.14,58,2.71,59.83,54.24,60.13,64.07,3.65,120.55-35.41,35.4-70.6,71-106.32,106.13-25.2,24.75-42.32,24.49-67.81-.11-10.73-10.37-21.4-20.87-31.28-32-14.88-16.82-15-34.27-1.62-52.64,4.39-6,18.14-10.76,8.69-20.9-9.08-9.74-15.89-25.34-32.72-23.37-55.83,6.53-98.32-17.78-135.37-56.24-15.22-15.81-31.33-30.78-47.1-46.06-26.53-25.72-41.26-57-40.65-94,.27-16.54-5.94-25.3-20-32.63-35-18.21-69.33-37.87-104-56.8C341.2,178,331,171.26,331.79,156.49c.74-14.52,11-20.79,22.72-26.11C411.21,104.72,466.65,74.85,525.2,78.85Z"/><path d="M153.71,921.5c-51.12.54-98.53-31.64-116.91-78.08C17.52,794.69,28.55,737.67,69,703.57c123.59-104.08,248.6-206.47,372.64-310,11.19-9.34,16.63-6.21,25.38,2.67,28.95,29.38,58.3,58.42,88.7,86.26,9.46,8.67,7.15,13.11.61,21Q399.52,691.67,242.86,880.05C219.54,907.93,187.05,918.34,153.71,921.5Z"/></svg>