<svg id="Слой_1" data-name="Слой 1" xmlns="http://www.w3.org/2000/svg" xmlns:xlink="http://www.w3.org/1999/xlink" viewBox="0 0 1000 1000"><defs><style>.cls-1{fill:#000111;}.cls-2{fill:url(#Безымянный_градиент_10);}.cls-3{fill:#2272ff;}</style><radialGradient id="Безымянный_градиент_10" cx="500" cy="500" r="486.28" gradientUnits="userSpaceOnUse"><stop offset="0.82" stop-color="#2272ff"/><stop offset="0.86" stop-color="#2473ff" stop-opacity="0.99"/><stop offset="0.88" stop-color="#2c78ff" stop-opacity="0.96"/><stop offset="0.9" stop-color="#3880ff" stop-opacity="0.9"/><stop offset="0.92" stop-color="#4b8cff" stop-opacity="0.82"/><stop offset="0.94" stop-color="#629bff" stop-opacity="0.71"/><stop offset="0.95" stop-color="#7fadff" stop-opacity="0.58"/><stop offset="0.97" stop-color="#a1c3ff" stop-opacity="0.43"/><stop offset="0.98" stop-color="#c8dcff" stop-opacity="0.25"/><stop offset="1" stop-color="#f4f8ff" stop-opacity="0.05"/><stop offset="1" stop-color="#fff" stop-opacity="0"/></radialGradient></defs><circle class="cls-1" cx="507.55" cy="494.02" r="388.09"/><path class="cls-2" d="M500,13.72C231.43,13.72,13.72,231.43,13.72,500S231.43,986.28,500,986.28,986.28,768.57,986.28,500,768.57,13.72,500,13.72Zm0,881C282,894.72,105.28,718,105.28,500S282,105.28,500,105.28,894.72,282,894.72,500,718,894.72,500,894.72Z"/><path class="cls-3" d="M500,59.25C256.58,59.25,59.25,256.58,59.25,500S256.58,940.75,500,940.75,940.75,743.42,940.75,500,743.42,59.25,500,59.25Zm0,798.52c-197.59,0-357.77-160.18-357.77-357.77S302.41,142.23,500,142.23,857.77,302.41,857.77,500,697.59,857.77,500,857.77Z"/></svg>