<svg id="Слой_1" data-name="Слой 1" xmlns="http://www.w3.org/2000/svg" viewBox="0 0 1000 1000"><path d="M500.94,364.58c158.51,3.52,218.63-148.9,191.72-257.7-2.9-11.73-17.19-28.92-1.11-36.07,14.86-6.6,23,13.42,30.86,24.15,61.86,84.83,77.26,177.16,40.2,276.22-6.89,18.45-5.23,22.53,15,27,88,19.37,156.73,66.56,198.47,148.53,4.62,9.07,14.66,20.58,4.13,29.36-10.29,8.57-17.13-5.43-24.27-10.75-55.47-41.39-117.84-60.74-185.65-47.48-84.9,16.6-133.21,75.28-155.53,155.58C593,751.72,625.94,812.3,683.69,862.53c22.71,19.75,49.37,33,77.8,42.55,6.84,2.31,15.06,3.51,14.83,12.88-.26,10.48-10,9.26-16.31,10.23-65.18,10-125.07-6.06-181.21-38.5-22.75-13.14-43.86-29.16-60.24-49.7-13.3-16.69-20.94-17.74-36.22-.5-56.58,63.8-129.88,91.31-214.16,91.91-4.5,0-9.27.52-13.46-.74-10.41-3.12-27.21,2.23-29.35-12.45s14.91-13.06,23.93-16.67c27.09-10.82,52.32-24.52,73.7-44.35,54.68-50.71,84.38-110.72,62-186.44C361.76,591.81,313.92,534,230.12,517.81c-67.82-13.06-130.29,5.81-185.26,48.34C37.73,571.67,31,585,20.28,576.58c-11.59-9.15-.63-20.07,3.79-28.94,41.52-83.4,110.48-131.28,200.15-149.76,19.45-4,20.35-8.22,14-25.55-38.52-105.39-21.05-202.06,49.31-289.07,5.29-6.55,10.45-20.13,22.89-12.53,10.37,6.33,3,16.4.74,24.54-9.41,33.49-12,67.18-6.37,101.71C321.75,301.67,395.17,364.65,500.94,364.58ZM498.6,608.13c47.82.5,85-35.61,84.72-82.26-.28-45.79-36.48-81.44-82.79-81.54-46.51-.1-82.91,35.19-83.45,80.91S452.61,607.65,498.6,608.13Z"/><path d="M501.36,174.73c39.24,2.59,78.13,8.3,115.84,21.76,14.36,5.12,18.3,11.83,12,25.69C621.25,239.47,612.53,256,599.21,270c-14.91,15.68-31,21.39-53.06,15.95-29.92-7.36-60.8-6.21-91.1-.57-37,6.9-88.95-37.62-87.51-75.33.4-10.24,8.61-10.5,14.65-12.87C420.31,182.12,460.32,176.91,501.36,174.73Z"/><path d="M810.31,570.51c33.53-1,38,4.08,29.87,36.63-18.46,73.61-56.25,135.32-112.81,186.27-16,14.39-24.24,11.81-35-4.25-10.15-15.15-18.8-30.61-22.5-48.54-4-19.4-2.37-36.24,13.91-51.32,18.57-17.21,30.73-39.72,41.06-62.86C744.51,582.35,760.15,572,810.31,570.51Z"/><path d="M194.31,570.47c9.21,1.6,24.45,3.36,39.21,7,18.31,4.55,31.17,14.28,36.88,34.6,7.61,27,21,53,41.69,71.63,28.11,25.33,22.66,51.73,10.68,80.49a104.88,104.88,0,0,1-9,16.54c-19.33,29.77-21.23,30.17-47.1,6.35Q186,712.8,160.18,606.07C152.55,574.37,156.39,569.92,194.31,570.47Z"/></svg>