<svg id="Слой_1" data-name="Слой 1" xmlns="http://www.w3.org/2000/svg" viewBox="0 0 1000 1000"><path d="M903.53,846.92c-.77,31-16.5,40.62-45.14,27.14-24.41-11.5-48.23-24.25-72.53-36-26.92-13-34.26-10.41-49.37,15.45-10.31,17.65-20.55,35.35-31.33,52.73-17.15,27.66-32.9,29.32-56.68,6.22-12.91-12.54-25.24-25.66-38.31-38-21.24-20.08-32.33-19.27-50.07,3.61-23,29.73-45.51,59.9-68.67,89.54-22.86,29.3-39.6,29.4-62.27.55-24.26-30.85-47.65-62.39-72.29-92.93-16-19.87-26.37-20-44.58-2.49-14.71,14.19-28.42,29.42-43.24,43.49-19.21,18.2-35.77,16.19-50.49-6.21-13.46-20.5-26.14-41.53-38.91-62.48-10.4-17.08-23.83-20.43-41.58-11.26-26.14,13.48-52.34,27-79.11,39.12-25.73,11.68-42.89,2-44.18-25.32-5.51-117.5,11.27-230.17,76-331.55a448.37,448.37,0,0,1,39.29-53.17c24-27.6,47.42-32.56,81.41-18,29.31,12.57,58.21,26.12,86.72,40.38,15.89,8,23.49,5.7,26.46-12.88,5-31.47,11.23-62.78,17.69-94,6-29.21,22.38-35.75,48-19.58,15.9,10,31.39,20.73,47.06,31.13,15.26,10.14,30.21,10.36,45.65-.22,16.19-11.08,32.75-21.65,49.48-31.9,23.15-14.16,38.92-8,44.9,18.9,6.77,30.3,12.44,60.9,17.22,91.59,3.29,21.1,11.16,26,30.84,15.52,25.95-13.8,53.07-25.45,79.89-37.58,36.48-16.51,64-10,89,21.3,75.3,94.44,112,202,109.27,322.89C903.6,810.94,904,828.94,903.53,846.92Z"/><path d="M938.35,47.8c6.78,1,13.66,3.33,17.59,10.63,4.22,7.8,4.2,15.74-.43,23.29-1.91,3.11-4.65,5.76-7.26,8.38Q841.53,196.9,734.76,303.68c-6.49,6.5-13.23,12.32-23.2,10.64-16.12-2.71-23.53-20.78-14.17-34.44a54.58,54.58,0,0,1,6.73-7.39Q810.86,165.69,917.6,58.9C923.25,53.24,929.07,48.33,938.35,47.8Z"/><path d="M780.49,93.05c-.53,23.38-20.74,43.41-43.69,43.28-23.33-.13-43.76-21.12-43.5-44.7s21.37-44.46,44.37-43.83C761.45,48.46,781,69.14,780.49,93.05Z"/><path d="M958.9,270.66c-.1,23.82-20.72,44.48-44,44.09-23.46-.41-43.64-21.44-43.19-45,.44-23.22,20.69-43.45,43.55-43.53C938.73,226.13,959,246.79,958.9,270.66Z"/></svg>