<svg id="Слой_1" data-name="Слой 1" xmlns="http://www.w3.org/2000/svg" viewBox="0 0 1000 1000"><path d="M402.83,651c1.15,39.84,10.27,75.61,29.86,108.23,5.7,9.5,7.8,14.76-4,22.46-75.17,49.21-174.74,49.51-245.81-4.24-21.46-16.23-36.37-17.15-59.64-5.2-50.63,26-104.94-7.13-105.33-62-.23-32,16.43-54.25,44.86-65.94,22.42-9.23,28.73-22,29.54-46.94C95.37,503.93,141,436,227.51,399.14c124.89-53.25,253.67-96.37,381.37-142.26,64.59-23.22,129.29-46.18,194.28-68.25,55.82-19,97.63-1.13,124.7,51.54,14.06,27.35,28.44,54.54,41.77,82.23C995,375,981.12,422.79,932.06,455c-33.79,22.22-68,43.87-100.88,67.38-14.44,10.33-20.92,8.93-32.15-5.27-100.84-127.56-295.56-112.26-370,28.39C411.29,579.1,403.24,615.1,402.83,651Z"/><path d="M455.49,649.2c.12-93.14,75.85-169.37,168-169.07,91.87.29,168.12,77.25,168,169.53S714.78,818.78,623,818.73C530.79,818.68,455.37,742.34,455.49,649.2Zm167.39,49.43c30.06.11,51-20.28,50.89-49.46-.15-28.26-20.33-48.42-49-48.94-30.62-.55-51.33,18.74-51.8,48.24C572.52,678.2,592.73,698.51,622.88,698.63Z"/></svg>