<svg id="Слой_1" data-name="Слой 1" xmlns="http://www.w3.org/2000/svg" viewBox="0 0 1000 1000"><path d="M940.61,28c6.78.95,13.66,3.32,17.6,10.62,4.21,7.81,4.2,15.74-.44,23.3-1.9,3.11-4.65,5.76-7.26,8.37Q843.79,177.06,737,283.83c-6.49,6.5-13.23,12.31-23.2,10.64-16.13-2.71-23.53-20.79-14.18-34.44a54.66,54.66,0,0,1,6.73-7.4Q813.12,145.85,919.86,39.05C925.51,33.39,931.34,28.48,940.61,28Z"/><path d="M782.75,73.2c-.52,23.37-20.74,43.4-43.68,43.27-23.34-.12-43.77-21.12-43.5-44.69S716.93,27.32,739.93,28C763.71,28.6,783.29,49.29,782.75,73.2Z"/><path d="M961.16,250.8c-.1,23.83-20.72,44.49-44,44.09-23.46-.4-43.64-21.43-43.19-45,.44-23.21,20.69-43.45,43.56-43.52C941,206.28,961.26,226.93,961.16,250.8Z"/><path d="M341.69,783.13c1,33.49,8.63,63.54,25.09,91,4.8,8,6.55,12.41-3.33,18.87-63.17,41.36-146.84,41.61-206.56-3.56-18-13.64-30.56-14.41-50.11-4.37-42.55,21.84-88.18-6-88.51-52.1-.2-26.86,13.8-45.58,37.69-55.41,18.84-7.75,24.15-18.46,24.83-39.44,2.54-78.55,40.86-135.61,113.58-166.61,105-44.75,213.16-81,320.46-119.54,54.28-19.51,108.65-38.81,163.26-57.35,46.91-15.93,82-.95,104.79,43.31,11.81,23,23.89,45.82,35.1,69.09,21.3,44.24,9.65,84.37-31.57,111.46-28.4,18.66-57.15,36.86-84.77,56.62-12.13,8.68-17.58,7.5-27-4.43-84.74-107.2-248.36-94.34-310.89,23.86C348.8,722.68,342,752.94,341.69,783.13Z"/><path d="M385.94,781.58c.1-78.26,63.74-142.31,141.14-142.07,77.2.25,141.27,64.92,141.13,142.46S603.82,924.09,526.7,924C449.22,924,385.84,859.86,385.94,781.58ZM526.6,823.12c25.26.1,42.89-17,42.76-41.56-.12-23.74-17.08-40.69-41.15-41.12-25.73-.46-43.14,15.74-43.53,40.54C484.28,806,501.26,823,526.6,823.12Z"/></svg>