<svg id="Слой_1" data-name="Слой 1" xmlns="http://www.w3.org/2000/svg" viewBox="0 0 1000 1000"><path d="M796.13,354.65c-23,0-46,.1-69,0-25.47-.13-47.62-7.45-60.08-31.62-5.31-10.31-13-12.64-23.34-12.59-41.22.2-82.46.68-123.66-.23-18-.4-23.11,6.82-22.64,23.81q1.42,51.74.06,103.53c-1.25,48.37-40,73.83-83,52.77C301.79,435.1,189.87,378.41,77.71,322.21,55.39,311,41.58,293.53,42.12,267.73c.52-24.51,14.19-41.07,35.43-51.72,112.17-56.19,224.09-112.87,336.73-168.1,43-21.07,81.85,4.26,83.16,52.52.91,33.53,1.09,67.14-.12,100.65-.7,19.23,4.51,27.7,25.4,27,39.27-1.34,78.61-.66,117.91-.24,12.52.13,21.32-2.6,27.85-15,11.46-21.73,32.32-29,55.57-29.22,47.94-.4,95.89-1,143.8.11C920.8,185,958,221,958.08,269S920.92,352.65,868,354.5C844.09,355.34,820.1,354.64,796.13,354.65Z"/><path d="M673.33,730.53c71.87,0,143.73-.12,215.59,0,49.7.11,69.08,19.71,69.37,69.93.19,32.58.61,65.17-.15,97.73-.92,39.3-21.79,60.75-60.86,60.88q-224.22.71-448.43,0c-40.9-.11-60.94-21.06-61.56-62.62-.5-32.57-.3-65.16-.08-97.74.32-48.63,19.54-68.1,67.66-68.22C527.69,730.39,600.51,730.53,673.33,730.53Z"/><path d="M758.21,442.61c45,0,90-.29,135,.08,43.14.34,64.18,20.52,64.93,62.67.62,35.42.8,70.88-.1,106.3-1,37.63-21.9,59.19-59.23,59.47q-140.79,1.05-281.57-.06c-36.08-.32-56.28-21.69-57.09-58.13q-1.26-56,0-112c.87-37.34,21.85-57.57,60.11-58.13C666.27,442.1,712.24,442.61,758.21,442.61Z"/><path d="M182.51,959.28c-27.75,0-55.54.76-83.27-.19-36.14-1.22-56.47-21.67-57.31-58q-1.29-56,0-112c.79-36.51,20.87-57.66,56.88-58.31q84.68-1.55,169.41.06c34.26.7,55.19,22,56.3,56.37,1.22,38.25,1.21,76.6,0,114.85-1.11,35.6-22.59,55.92-58.73,57C238.05,959.94,210.27,959.28,182.51,959.28Z"/></svg>