<svg id="Слой_1" data-name="Слой 1" xmlns="http://www.w3.org/2000/svg" viewBox="0 0 1000 1000"><path d="M504.3,533.63c75.35,0,150.7.7,226-.45,21.55-.33,31.31,3.68,30.32,28.13-1.9,46.88-1.17,93.9-.25,140.83.36,18.32-2.68,27.23-24.56,27.1q-235.85-1.38-471.7-.11c-19.22.08-24.31-6.92-24-24.76.82-48,1.26-96.11-.17-144.11-.67-22.24,7.89-27.3,28.51-27C347.06,534.23,425.69,533.63,504.3,533.63Z"/><path d="M501.55,203.69c-76.42,0-152.88-1.22-229.26.66-26.75.66-33.66-8.38-32.38-33.3,1.8-34.85,1-69.87.25-104.79-.38-17.17,3.6-25.36,23.47-25.27q237.47,1.08,474.93.06c18-.07,22.1,7,21.77,23.12-.8,38.19-1.37,76.46.2,114.61.86,20.93-7,25.55-26.43,25.3C656.6,203.11,579.07,203.68,501.55,203.69Z"/><path d="M254.9,466.22c-62.22,0-124.45-.54-186.65.33-17.92.25-25.44-4.65-25.07-23.69,1-49.1.85-98.25,0-147.36-.29-17.79,4.7-24.9,24-24.78q186.65,1.13,373.32,0c18.06-.1,25,4.66,24.59,23.69-1.12,49.1-1.42,98.27.11,147.35.67,21.59-8.2,25.06-26.92,24.77C377.17,465.63,316,466.22,254.9,466.22Z"/><path d="M750.48,271.1c60,0,120.09.6,180.11-.36,18.79-.3,27.54,3.3,26.87,24.83-1.52,49.07-1.23,98.24-.11,147.34.44,19.09-6.63,23.74-24.63,23.65q-186.66-1-373.32,0c-19.33.11-24.21-7.12-23.92-24.84.79-49.11.92-98.25,0-147.35-.38-19.1,7.26-23.88,25.11-23.64C623.85,271.62,687.17,271.1,750.48,271.1Z"/><path d="M254,796.17c62.28,0,124.57.62,186.83-.37,18.56-.3,24.8,5.49,24.25,24.1-1.17,39.3-.87,78.67-.14,118,.28,15.43-5,20.93-20.69,20.83-90.68-.59-181.42,1.55-272-1C96.32,955.64,44,898,43.13,823.83c-.25-20.67,5-28.7,27.32-28.17C131.6,797.12,192.81,796.17,254,796.17Z"/><path d="M750.6,796.17c60,0,120.11,1,180.1-.53,22.68-.59,27.16,7.93,26.62,28.26C955.27,899.76,901.64,956.44,824.6,958c-88.38,1.8-176.84-.07-265.25.85-19.39.2-24.26-7.23-23.86-24.89.87-38.19,1-76.43,0-114.61-.55-19.25,7.51-23.74,25.22-23.51C624,796.68,687.29,796.17,750.6,796.17Z"/><path d="M169.32,640.05c-2.18,24.31,13,64-5.48,82.33-19.94,19.78-60,3.37-91.12,6.61C50,731.36,42.25,723.21,43,700.12c1.56-47.89.89-95.86.29-143.78-.2-16.24,4.59-23.73,22.25-23,28.28,1.17,56.65.86,85,.1,14.22-.38,19.32,5.07,19,19C168.88,579.67,169.32,606.92,169.32,640.05Z"/><path d="M957,632.27c0,21.78-1.87,43.78.5,65.31,3,27.29-8.74,34.17-33.21,31.38-29.94-3.41-68.64,13-87.86-6.9-17.59-18.23-3.74-56.19-5.32-85.4-.12-2.18,0-4.36,0-6.54,0-103.54,0-103.2,105.2-96.85,15.12.91,21.46,4.81,20.93,20.57C956.3,580,956.94,606.12,957,632.27Z"/><path d="M169.38,123c0,80.74,0,80.74-81.49,80.71-48,0-49.65-1.91-43-49.42C52.49,100.39,92.4,58.39,145.1,45.94c18-4.27,26.19-3,24.59,18.12C168.21,83.6,169.37,103.33,169.38,123Z"/><path d="M831.07,121c0-16.32,1.55-32.81-.33-48.91-3.59-30.57,11.22-30.77,34-23.95,57.35,17.22,98.35,78.69,92.55,138.49-1.19,12.26-4.8,17.9-17.38,17.13-8.67-.52-17.39,0-26.09,0C831.06,203.72,831.06,203.72,831.07,121Z"/></svg>