<svg id="Слой_1" data-name="Слой 1" xmlns="http://www.w3.org/2000/svg" viewBox="0 0 1000 1000"><path d="M889.44,891.61c-25.14-2.13-59.36,10-84.83-4.86s-21.88-52.28-32.76-79.14C713.24,662.93,610.26,556.38,484,469.81c-44.89-30.77-91.7-58.7-142.45-79.2-14.5-5.85-22.67-14.8-23.21-31.55-2.7-84.73-24.92-163.13-77.2-231.43-3.89-5.08-9.95-11-6-17.33,5.18-8.3,13.72-3,20.75-1.48,62.27,13.85,119.49,40.57,174.73,71.32C644.1,299,813.37,462.28,926.87,680.16c29.21,56.08,48.51,116.32,64.07,177.81,6.94,27.46-1.19,35.65-27.78,33.94C940.4,890.46,917.46,891.61,889.44,891.61Z"/><path d="M6.7,889c104.23-29.48,178.92-91.38,219.71-190.1,43-104.16,12.67-195.36-59.75-274.66,7.41-10.75,15.83-7.51,22.35-5.79C391.42,471.84,569.5,566,705.13,729.78c32.12,38.76,54.09,84,71.57,131.22,7.45,20.12,4.37,30.76-20,30.72q-368.7-.66-737.42-.66C15.07,891.05,10.89,889.74,6.7,889Z"/></svg>