<svg id="Слой_1" data-name="Слой 1" xmlns="http://www.w3.org/2000/svg" viewBox="0 0 1000 1000"><path d="M809.07,115c25.77.92,49.29,3.91,71.69,12.93,7.51,3,14.48,7,19.85,13.25,8.19,9.53,8,19.68-.8,28.69-6.86,7-15.34,11.7-24.57,14.75q-63.32,20.9-126.92.73A68.7,68.7,0,0,1,725,173c-13.37-11.09-13.45-24.93.17-35.86,10.44-8.38,22.76-12.86,35.68-15.71,7.82-1.73,15.69-3.44,23.62-4.46C793.24,115.89,802.09,115.56,809.07,115Z"/><path d="M897.2,113.29c-3.89.29-6.69.28-9.59-.9C861.4,101.72,834,98.09,805.88,98.68c-10.74.22-22.1-8.1-25.53-18.35-2.84-8.46.91-17.41,10.69-24.73,12.76-9.55,27.62-13.87,43-16.73,33.13-6.16,66-5.27,98.52,3.94,10.11,2.87,19.71,7,27.94,13.71,13.87,11.32,13.88,25.3-.13,36.4-14.32,11.35-31.52,15.51-49,18.58C906.39,112.38,901.43,114,897.2,113.29Z"/><path d="M715.48,237.9c63.86,30.39,127,30.2,190.29.27,3.41,17.87-1.26,28.13-17.65,37.35-15.2,8.55-32,12.2-49,14.32-29,3.6-57.72,2.13-85.86-6.17a105.26,105.26,0,0,1-17.82-7.19C717.51,267.34,712.88,257.93,715.48,237.9Z"/><path d="M715.18,189.54c63.7,30.3,126.8,30.48,190.18.45,4.11,12.48,1.13,23.47-9.53,31.81-13.46,10.52-29.45,15.14-45.84,18-32,5.69-63.93,4.93-95.36-4.23a114.26,114.26,0,0,1-15.07-5.45C718.59,220.69,713.78,212.51,715.18,189.54Z"/><path d="M913.05,128.87c19.58-3.68,37.17-8.83,53-18.75,3-1.87,4.49-2.31,5,2.16,1.52,14.41-2.9,25.66-16,32.95a116.28,116.28,0,0,1-25.86,10.56c-2,.54-4.64,2-5-1.46A44.85,44.85,0,0,0,913.05,128.87Z"/><path d="M924.05,189.74c0-14.34,0-14.26,13.51-18.49,10-3.12,19.61-7.05,28.38-12.8,3.87-2.54,4.64-1.46,5.12,2.76,1.63,14.35-3.58,24.94-16.1,32.16-7.69,4.43-15.87,7.47-24.23,10.31-5.67,1.93-7.22.35-6.73-5.12C924.26,195.64,924.05,192.68,924.05,189.74Z"/><path d="M822.64,951.24c-23-2-54.41,9.15-77.77-4.46s-20-47.92-30-72.55C661.11,741.6,566.7,643.92,451,564.56c-41.15-28.21-84.07-53.82-130.59-72.61-13.29-5.37-20.79-13.56-21.27-28.92-2.48-77.68-22.85-149.55-70.78-212.16-3.56-4.66-9.12-10.11-5.51-15.89,4.75-7.61,12.58-2.79,19-1.35C298.92,246.33,351.37,270.82,402,299,597.73,407.94,752.9,557.65,857,757.39c26.78,51.41,44.47,106.63,58.74,163,6.37,25.17-1.09,32.68-25.46,31.11C869.35,950.18,848.33,951.24,822.64,951.24Z"/><path d="M13.4,948.88c95.56-27,164-83.77,201.42-174.27,39.46-95.49,11.61-179.1-54.77-251.79,6.79-9.85,14.5-6.88,20.49-5.31,185.55,48.91,348.8,135.27,473.14,285.37,29.44,35.53,49.58,77,65.61,120.3,6.82,18.44,4,28.2-18.36,28.16q-338-.6-676-.61C21.07,950.72,17.24,949.52,13.4,948.88Z"/></svg>