<svg id="Слой_1" data-name="Слой 1" xmlns="http://www.w3.org/2000/svg" viewBox="0 0 1000 1000"><path d="M931.25,205.86c.53-7.35-3.75-11-8.81-13.89-8.92-5.1-18.65-8.16-28.56-10.66-14.31-3.61-28.62-7.35-42.24-13-27.68-11.56-39.7-34.91-31.17-61.44,7-21.87,24.83-31.58,45.66-36.22,6.85-1.53,9.9-3.69,9-10.84a43.78,43.78,0,0,1,.19-11.26,15.26,15.26,0,0,1,15.47-13.57c7.93.15,14,5.85,15,14.1.21,1.86.15,3.75.19,5.63.36,17.16-2.88,13.6,15.5,17.23,3.68.73,7.43,1.07,11.11,1.82,9.13,1.84,15.29,10.43,13.63,18.82s-9.4,13.37-18.87,12.09c-17.2-2.34-34.16-7.56-51.84-4-7.22,1.45-14,3.78-19.87,8.3-9.57,7.41-9.11,19.81,1.09,26.25,11.74,7.4,25,10.9,38.32,14.16s26.48,6.94,38.78,13.11c17.4,8.73,28.43,22.05,28.52,42.29.09,20.53-8.73,36.17-27,46.11a66.54,66.54,0,0,1-23.56,7.79c-4.54.57-6,2.5-5.82,6.74a99,99,0,0,1-.18,12.89c-.75,8.32-6.82,14-14.76,14.27s-14.87-5.7-15.73-14.2a65.22,65.22,0,0,1-.12-12.88c.52-5.15-1.81-7.14-6.49-7.95A190.37,190.37,0,0,1,831.5,247c-11.08-4.36-15.32-12.67-11.58-22,3.38-8.43,12.46-11.3,23.14-7.33,18.73,7,37.75,12.29,58.08,10.83,7.08-.51,13.79-2,20-5.46C928.06,219.15,931.73,213.32,931.25,205.86Z"/><path d="M822.64,951.24c-23-2-54.41,9.15-77.77-4.46s-20-47.92-30-72.55C661.11,741.6,566.7,643.92,451,564.56c-41.15-28.21-84.07-53.82-130.59-72.61-13.29-5.37-20.79-13.56-21.27-28.92-2.48-77.68-22.85-149.55-70.78-212.16-3.56-4.66-9.12-10.11-5.51-15.89,4.75-7.61,12.58-2.79,19-1.35C298.92,246.33,351.37,270.82,402,299,597.73,407.94,752.9,557.65,857,757.39c26.78,51.41,44.47,106.63,58.74,163,6.37,25.17-1.09,32.68-25.46,31.11C869.35,950.18,848.33,951.24,822.64,951.24Z"/><path d="M13.4,948.88c95.56-27,164-83.77,201.42-174.27,39.46-95.49,11.61-179.1-54.77-251.79,6.79-9.85,14.5-6.88,20.49-5.31,185.55,48.91,348.8,135.27,473.14,285.37,29.44,35.53,49.58,77,65.61,120.3,6.82,18.44,4,28.2-18.36,28.16q-338-.6-676-.61C21.07,950.72,17.24,949.52,13.4,948.88Z"/></svg>