<svg id="Слой_1" data-name="Слой 1" xmlns="http://www.w3.org/2000/svg" viewBox="0 0 1000 1000"><path d="M772.58,253.3c2.09-12.6,4.14-25.93,6.59-39.19.79-4.34,0-7.35-3.31-10.46C766.71,195.06,758,186,749,177.27c-3.4-3.3-5.53-6.87-4.21-11.76,1.4-5.18,5.71-6.43,10.15-7.16,12.59-2.08,25.17-4.28,37.83-5.81,4.43-.54,6.42-2.53,8.15-6.19,5.27-11.14,10.88-22.11,16.21-33.22,2.15-4.49,5.06-8.08,10.3-8.17,5.41-.1,8,3.87,10.15,8.26,5.21,10.65,10.75,21.15,15.79,31.88,2.16,4.6,4.72,7.1,10.2,7.67,11.29,1.18,22.48,3.33,33.7,5.12,5.32.84,10.9,1.49,13,7.65,2,6-2,9.55-5.69,13.18-8.45,8.33-16.74,16.82-25.41,24.91-3.32,3.09-4.12,6.1-3.31,10.44,2.29,12.35,4.09,24.78,6.23,37.15.82,4.72.23,8.72-3.86,11.8s-7.78,1.64-11.66-.43c-11.48-6.12-23.07-12-34.5-18.26a8.49,8.49,0,0,0-9.07,0c-11.83,6.44-23.74,12.76-35.76,18.85C779.46,267.09,772.35,262.47,772.58,253.3Z"/><path d="M890.36,111.26a4.36,4.36,0,0,1-4-4.18C884.84,91,876,82.42,860.08,80.83a4.16,4.16,0,0,1,0-8.29C876,70.94,884.84,62.4,886.33,46.3c.19-2.07,1.48-4.17,4-4.13s3.78,2,4,4.17c1.46,16.12,10.43,24.56,26.3,26.2,2.28.24,3.93,1.62,3.93,4.13s-1.63,3.9-3.91,4.14c-15.84,1.67-24.77,10-26.38,26.18C893.94,110,892,111.24,890.36,111.26Z"/><path d="M938.9,167.23a8.53,8.53,0,0,1-2.07-1.74,7.77,7.77,0,0,1-1.17-3.24c-1.09-11.43-7.1-17.79-18.72-18.85-2.18-.2-4.87-1-4.73-4.1.13-2.65,2.54-3.39,4.5-3.59,11.37-1.18,17.92-7,18.91-18.67.19-2.22.84-5.08,3.87-4.89,2.46.16,2.82,2.74,3.37,4.75a8.34,8.34,0,0,1,.34,1.35c.92,10.44,6.55,16.08,17,17.17,2.59.27,6.21.57,6.06,4.33-.12,3.2-3.41,3.63-5.83,3.85-10.88,1-16.26,7.08-17.42,17.64C942.77,163.68,942.19,166.34,938.9,167.23Z"/><path d="M822.64,951.24c-23-2-54.41,9.15-77.77-4.46s-20-47.92-30-72.55C661.11,741.6,566.7,643.92,451,564.56c-41.15-28.21-84.07-53.82-130.59-72.61-13.29-5.37-20.79-13.56-21.27-28.92-2.48-77.68-22.85-149.55-70.78-212.16-3.56-4.66-9.12-10.11-5.51-15.89,4.75-7.61,12.58-2.79,19-1.35C298.92,246.33,351.37,270.82,402,299,597.73,407.94,752.9,557.65,857,757.39c26.78,51.41,44.47,106.63,58.74,163,6.37,25.17-1.09,32.68-25.46,31.11C869.35,950.18,848.33,951.24,822.64,951.24Z"/><path d="M13.4,948.88c95.56-27,164-83.77,201.42-174.27,39.46-95.49,11.61-179.1-54.77-251.79,6.79-9.85,14.5-6.88,20.49-5.31,185.55,48.91,348.8,135.27,473.14,285.37,29.44,35.53,49.58,77,65.61,120.3,6.82,18.44,4,28.2-18.36,28.16q-338-.6-676-.61C21.07,950.72,17.24,949.52,13.4,948.88Z"/></svg>