<svg id="Слой_1" data-name="Слой 1" xmlns="http://www.w3.org/2000/svg" viewBox="0 0 1000 1000"><path d="M110.13,14.18c33.13,2.95,58.42,18.47,80.9,41.36,92.11,93.76,185.83,186,276.68,280.94,25.4,26.56,39.45,26.57,64.85,0,89.74-93.78,181.9-185.26,273.61-277.14C859.61,5.83,912.89,0,955.55,41.76c41.31,40.4,35.07,103-16.44,154.34-92,91.62-183.6,183.62-277.22,273.53-24.86,23.87-24.38,37.43.17,61.08q145.5,140.13,287.25,284.14c59.78,60.8,37,150.12-40.91,168.07-39,9-69.18-8.7-95.57-35.32-93.68-94.49-188.4-188-280.41-284.1-25.68-26.82-39.73-25.88-64.86.38-89.74,93.78-181.81,185.34-273.51,277.23-53.23,53.35-106.58,58.89-149.3,17C2.44,916.54,8.49,856.82,61.3,804.2c92-91.64,183.52-183.7,277.1-273.66,24.83-23.86,24.35-37.41-.18-61C241.26,376,146.38,280.4,50.76,185.55,17.37,152.42,7.59,113.68,25.9,69.89,41.43,32.77,73.3,18.8,110.13,14.18Z"/></svg>